<?xml version="1.0" encoding="utf-8" standalone="no"?>
<!DOCTYPE svg PUBLIC "-//W3C//DTD SVG 1.1//EN"
  "http://www.w3.org/Graphics/SVG/1.1/DTD/svg11.dtd">
<svg xmlns:xlink="http://www.w3.org/1999/xlink" width="864pt" height="576pt" viewBox="0 0 864 576" xmlns="http://www.w3.org/2000/svg" version="1.1">
 <metadata>
  <rdf:RDF xmlns:dc="http://purl.org/dc/elements/1.1/" xmlns:cc="http://creativecommons.org/ns#" xmlns:rdf="http://www.w3.org/1999/02/22-rdf-syntax-ns#">
   <cc:Work>
    <dc:type rdf:resource="http://purl.org/dc/dcmitype/StillImage"/>
    <dc:date>2025-04-15T14:32:30.792273</dc:date>
    <dc:format>image/svg+xml</dc:format>
    <dc:creator>
     <cc:Agent>
      <dc:title>Matplotlib v3.10.0, https://matplotlib.org/</dc:title>
     </cc:Agent>
    </dc:creator>
   </cc:Work>
  </rdf:RDF>
 </metadata>
 <defs>
  <style type="text/css">*{stroke-linejoin: round; stroke-linecap: butt}</style>
 </defs>
 <g id="figure_1">
  <g id="patch_1">
   <path d="M 0 576 
L 864 576 
L 864 0 
L 0 0 
z
" style="fill: #ffffff"/>
  </g>
  <g id="axes_1">
   <g id="patch_2">
    <path d="M 47.765 534.04 
L 853.2 534.04 
L 853.2 26.16 
L 47.765 26.16 
z
" style="fill: #ffffff"/>
   </g>
   <g id="FillBetweenPolyCollection_1">
    <path d="M 84.375682 322.333783 
L 84.375682 356.044634 
L 94.406006 350.955957 
L 104.436329 350.955841 
L 114.466653 345.681928 
L 124.496977 340.367083 
L 134.527301 339.680862 
L 144.557625 334.890482 
L 154.587948 298.030088 
L 164.618272 297.909996 
L 174.648596 292.944546 
L 184.67892 294.260655 
L 194.709243 292.21235 
L 204.739567 273.037298 
L 214.769891 276.684114 
L 224.800215 271.285119 
L 234.830539 265.058601 
L 244.860862 259.958537 
L 254.891186 253.010155 
L 264.92151 254.698403 
L 274.951834 249.945635 
L 284.982158 249.318802 
L 295.012481 247.864022 
L 305.042805 248.746015 
L 315.073129 247.004036 
L 325.103453 244.946472 
L 335.133776 244.171898 
L 345.1641 242.7257 
L 355.194424 236.220496 
L 365.224748 235.842318 
L 375.255072 232.662935 
L 385.285395 231.290529 
L 395.315719 232.122195 
L 405.346043 232.032519 
L 415.376367 231.38169 
L 425.406691 229.221051 
L 435.437014 227.508921 
L 445.467338 227.236703 
L 455.497662 234.282927 
L 465.527986 232.71249 
L 475.558309 230.310644 
L 485.588633 228.349845 
L 495.618957 226.958502 
L 505.649281 224.33222 
L 515.679605 223.727147 
L 525.709928 223.728249 
L 535.740252 223.112199 
L 545.770576 222.356285 
L 555.8009 219.462839 
L 565.831224 219.469888 
L 575.861547 218.907912 
L 585.891871 217.449302 
L 595.922195 217.786329 
L 605.952519 216.590693 
L 615.982842 215.998859 
L 626.013166 214.847588 
L 636.04349 214.194355 
L 646.073814 213.650101 
L 656.104138 112.590911 
L 666.134461 111.236739 
L 676.164785 108.809868 
L 686.195109 109.277868 
L 696.225433 109.998613 
L 706.255757 101.539775 
L 716.28608 100.122401 
L 726.316404 98.174693 
L 736.346728 92.788993 
L 746.377052 91.041764 
L 756.407375 87.904917 
L 766.437699 88.247161 
L 776.468023 88.247161 
L 786.498347 88.436202 
L 786.498347 49.245455 
L 786.498347 49.245455 
L 776.468023 50.347269 
L 766.437699 50.347269 
L 756.407375 52.342012 
L 746.377052 52.279187 
L 736.346728 54.043076 
L 726.316404 53.119036 
L 716.28608 53.771066 
L 706.255757 53.527884 
L 696.225433 52.565216 
L 686.195109 59.165427 
L 676.164785 61.893131 
L 666.134461 61.476746 
L 656.104138 65.044974 
L 646.073814 59.818098 
L 636.04349 62.630391 
L 626.013166 62.808799 
L 615.982842 62.509622 
L 605.952519 64.560767 
L 595.922195 65.397956 
L 585.891871 69.998049 
L 575.861547 70.496198 
L 565.831224 70.878342 
L 555.8009 75.202606 
L 545.770576 76.585683 
L 535.740252 78.988234 
L 525.709928 79.819317 
L 515.679605 82.735708 
L 505.649281 84.487658 
L 495.618957 86.549439 
L 485.588633 86.192786 
L 475.558309 87.084666 
L 465.527986 107.247412 
L 455.497662 111.620431 
L 445.467338 124.448365 
L 435.437014 124.947123 
L 425.406691 125.216163 
L 415.376367 130.318242 
L 405.346043 130.261365 
L 395.315719 130.24123 
L 385.285395 136.075385 
L 375.255072 138.477592 
L 365.224748 140.083579 
L 355.194424 140.316623 
L 345.1641 155.804271 
L 335.133776 156.461195 
L 325.103453 158.585692 
L 315.073129 160.653855 
L 305.042805 163.846113 
L 295.012481 167.694868 
L 284.982158 168.306449 
L 274.951834 168.801128 
L 264.92151 174.086346 
L 254.891186 181.124306 
L 244.860862 190.020629 
L 234.830539 192.644567 
L 224.800215 194.257044 
L 214.769891 194.275023 
L 204.739567 213.153775 
L 194.709243 216.979671 
L 184.67892 217.824653 
L 174.648596 229.26326 
L 164.618272 240.981678 
L 154.587948 241.211453 
L 144.557625 257.613762 
L 134.527301 258.932389 
L 124.496977 261.415235 
L 114.466653 265.554184 
L 104.436329 323.088807 
L 94.406006 323.093418 
L 84.375682 322.333783 
z
" clip-path="url(#pf9aa2a211a)" style="fill: #1f77b4; fill-opacity: 0.2"/>
   </g>
   <g id="FillBetweenPolyCollection_2">
    <path d="M 84.375682 423.198883 
L 84.375682 438.534411 
L 94.406006 431.962435 
L 104.436329 425.85973 
L 114.466653 419.633046 
L 124.496977 403.007874 
L 134.527301 397.497385 
L 144.557625 392.519236 
L 154.587948 375.282632 
L 164.618272 369.122965 
L 174.648596 368.16975 
L 184.67892 353.775658 
L 194.709243 343.47985 
L 204.739567 342.319972 
L 214.769891 318.700803 
L 224.800215 312.808823 
L 234.830539 314.213613 
L 244.860862 308.168401 
L 254.891186 299.166925 
L 264.92151 292.357712 
L 274.951834 289.80162 
L 284.982158 286.545166 
L 295.012481 284.233855 
L 305.042805 282.346444 
L 315.073129 275.734476 
L 325.103453 277.778359 
L 335.133776 279.665874 
L 345.1641 271.00264 
L 355.194424 271.479033 
L 365.224748 259.201379 
L 375.255072 256.967657 
L 385.285395 256.063766 
L 395.315719 250.26039 
L 405.346043 249.364956 
L 415.376367 248.213822 
L 425.406691 242.823594 
L 435.437014 239.753165 
L 445.467338 238.838039 
L 455.497662 242.862889 
L 465.527986 239.67398 
L 475.558309 240.058835 
L 485.588633 239.948914 
L 495.618957 238.614153 
L 505.649281 236.437914 
L 515.679605 235.167224 
L 525.709928 234.660581 
L 535.740252 233.495073 
L 545.770576 232.13692 
L 555.8009 229.69945 
L 565.831224 229.176835 
L 575.861547 228.213891 
L 585.891871 226.120898 
L 595.922195 225.723525 
L 605.952519 224.434926 
L 615.982842 224.510345 
L 626.013166 223.758452 
L 636.04349 223.273039 
L 646.073814 219.833006 
L 656.104138 135.893094 
L 666.134461 126.607892 
L 676.164785 124.776991 
L 686.195109 121.798669 
L 696.225433 119.806577 
L 706.255757 119.612379 
L 716.28608 112.890855 
L 726.316404 112.171126 
L 736.346728 107.456111 
L 746.377052 102.61597 
L 756.407375 103.079776 
L 766.437699 101.235073 
L 776.468023 99.682938 
L 786.498347 97.994638 
L 786.498347 70.949715 
L 786.498347 70.949715 
L 776.468023 71.758781 
L 766.437699 73.634081 
L 756.407375 74.616782 
L 746.377052 80.304125 
L 736.346728 78.73707 
L 726.316404 74.434727 
L 716.28608 79.133609 
L 706.255757 79.919844 
L 696.225433 81.374643 
L 686.195109 83.167158 
L 676.164785 81.52795 
L 666.134461 82.401734 
L 656.104138 81.76397 
L 646.073814 82.258847 
L 636.04349 84.724007 
L 626.013166 82.87056 
L 615.982842 83.842765 
L 605.952519 84.276769 
L 595.922195 84.148428 
L 585.891871 84.92662 
L 575.861547 86.206267 
L 565.831224 87.902853 
L 555.8009 90.357247 
L 545.770576 93.914394 
L 535.740252 99.243716 
L 525.709928 106.794274 
L 515.679605 111.497017 
L 505.649281 111.521446 
L 495.618957 110.69738 
L 485.588633 108.849492 
L 475.558309 114.129533 
L 465.527986 133.477998 
L 455.497662 140.794087 
L 445.467338 150.2638 
L 435.437014 152.814919 
L 425.406691 156.748511 
L 415.376367 160.109507 
L 405.346043 161.483813 
L 395.315719 162.987126 
L 385.285395 171.802513 
L 375.255072 176.724029 
L 365.224748 176.797489 
L 355.194424 179.747481 
L 345.1641 183.477992 
L 335.133776 181.880454 
L 325.103453 185.947786 
L 315.073129 192.468468 
L 305.042805 197.226294 
L 295.012481 211.098376 
L 284.982158 221.367696 
L 274.951834 222.45603 
L 264.92151 225.694118 
L 254.891186 229.840279 
L 244.860862 231.972957 
L 234.830539 240.445152 
L 224.800215 251.715143 
L 214.769891 261.270033 
L 204.739567 274.484422 
L 194.709243 297.549572 
L 184.67892 310.473521 
L 174.648596 312.136988 
L 164.618272 319.627089 
L 154.587948 327.468719 
L 144.557625 343.440604 
L 134.527301 371.399889 
L 124.496977 382.802627 
L 114.466653 396.698766 
L 104.436329 400.553051 
L 94.406006 408.688316 
L 84.375682 423.198883 
z
" clip-path="url(#pf9aa2a211a)" style="fill: #ff7f0e; fill-opacity: 0.1"/>
   </g>
   <g id="FillBetweenPolyCollection_3">
    <path d="M 84.375682 327.612175 
L 84.375682 373.952464 
L 94.406006 373.952464 
L 104.436329 373.952464 
L 114.466653 373.952464 
L 124.496977 370.288094 
L 134.527301 370.288094 
L 144.557625 370.288094 
L 154.587948 370.288094 
L 164.618272 370.339029 
L 174.648596 370.042621 
L 174.648596 327.38504 
L 174.648596 327.38504 
L 164.618272 327.451687 
L 154.587948 327.589867 
L 144.557625 327.589867 
L 134.527301 327.589867 
L 124.496977 327.589867 
L 114.466653 327.612175 
L 104.436329 327.612175 
L 94.406006 327.612175 
L 84.375682 327.612175 
z
" clip-path="url(#pf9aa2a211a)" style="fill: #2ca02c; fill-opacity: 0.2"/>
   </g>
   <g id="FillBetweenPolyCollection_4">
    <path d="M 84.375682 437.286399 
L 84.375682 452.756853 
L 94.406006 466.178366 
L 104.436329 473.666322 
L 114.466653 476.199763 
L 124.496977 478.399099 
L 134.527301 487.711708 
L 144.557625 494.434309 
L 154.587948 498.435166 
L 164.618272 505.766686 
L 174.648596 510.954545 
L 174.648596 477.634171 
L 174.648596 477.634171 
L 164.618272 477.96249 
L 154.587948 475.929002 
L 144.557625 473.222102 
L 134.527301 469.491009 
L 124.496977 466.293033 
L 114.466653 462.617848 
L 104.436329 454.850929 
L 94.406006 447.576901 
L 84.375682 437.286399 
z
" clip-path="url(#pf9aa2a211a)" style="fill: #d62728; fill-opacity: 0.1"/>
   </g>
   <g id="FillBetweenPolyCollection_5">
    <path d="M 84.375682 275.700461 
L 84.375682 328.412314 
L 94.406006 318.317599 
L 104.436329 294.071055 
L 114.466653 288.62574 
L 124.496977 283.859041 
L 134.527301 279.428345 
L 144.557625 268.721745 
L 154.587948 260.673162 
L 164.618272 260.156029 
L 174.648596 260.193294 
L 184.67892 257.471655 
L 194.709243 256.444735 
L 204.739567 253.661752 
L 214.769891 252.763548 
L 224.800215 251.958666 
L 234.830539 226.865799 
L 244.860862 179.06402 
L 254.891186 180.002885 
L 264.92151 178.158891 
L 274.951834 175.66827 
L 274.951834 142.463653 
L 274.951834 142.463653 
L 264.92151 144.222881 
L 254.891186 143.989468 
L 244.860862 149.881107 
L 234.830539 149.056231 
L 224.800215 161.22587 
L 214.769891 193.500034 
L 204.739567 197.071793 
L 194.709243 199.265977 
L 184.67892 201.856598 
L 174.648596 212.900994 
L 164.618272 221.24261 
L 154.587948 223.488947 
L 144.557625 232.061051 
L 134.527301 233.93411 
L 124.496977 246.507863 
L 114.466653 248.26162 
L 104.436329 260.177097 
L 94.406006 264.305499 
L 84.375682 275.700461 
z
" clip-path="url(#pf9aa2a211a)" style="fill: #9467bd; fill-opacity: 0.2"/>
   </g>
   <g id="FillBetweenPolyCollection_6">
    <path d="M 84.375682 396.499346 
L 84.375682 417.119665 
L 94.406006 387.733164 
L 104.436329 359.441147 
L 114.466653 345.196967 
L 124.496977 325.545803 
L 134.527301 311.059632 
L 144.557625 298.328458 
L 154.587948 287.912222 
L 164.618272 283.896831 
L 174.648596 276.117676 
L 184.67892 274.31928 
L 194.709243 270.006633 
L 204.739567 264.512486 
L 214.769891 258.892019 
L 224.800215 256.841048 
L 234.830539 235.211455 
L 244.860862 209.229907 
L 254.891186 187.465516 
L 264.92151 184.917673 
L 274.951834 182.548854 
L 274.951834 149.30084 
L 274.951834 149.30084 
L 264.92151 160.225871 
L 254.891186 184.366989 
L 244.860862 185.478165 
L 234.830539 191.953521 
L 224.800215 203.03674 
L 214.769891 209.291721 
L 204.739567 216.053637 
L 194.709243 221.530968 
L 184.67892 229.579736 
L 174.648596 229.595997 
L 164.618272 235.796944 
L 154.587948 243.774001 
L 144.557625 257.166423 
L 134.527301 273.063994 
L 124.496977 288.334176 
L 114.466653 307.589737 
L 104.436329 336.831197 
L 94.406006 370.653284 
L 84.375682 396.499346 
z
" clip-path="url(#pf9aa2a211a)" style="fill: #8c564b; fill-opacity: 0.1"/>
   </g>
   <g id="FillBetweenPolyCollection_7">
    <path d="M 84.375682 308.628884 
L 84.375682 329.772575 
L 94.406006 333.400939 
L 104.436329 326.440271 
L 114.466653 311.375975 
L 124.496977 322.976325 
L 134.527301 311.481183 
L 144.557625 285.629524 
L 154.587948 286.502057 
L 154.587948 95.460469 
L 154.587948 95.460469 
L 144.557625 104.264539 
L 134.527301 148.838526 
L 124.496977 178.741855 
L 114.466653 226.474826 
L 104.436329 241.032058 
L 94.406006 242.690016 
L 84.375682 308.628884 
z
" clip-path="url(#pf9aa2a211a)" style="fill: #e377c2; fill-opacity: 0.2"/>
   </g>
   <g id="FillBetweenPolyCollection_8">
    <path d="M 84.375682 362.421714 
L 84.375682 390.343956 
L 94.406006 350.250626 
L 104.436329 324.618376 
L 114.466653 315.15459 
L 124.496977 315.370801 
L 134.527301 311.942213 
L 144.557625 294.442394 
L 154.587948 290.952889 
L 154.587948 108.666739 
L 154.587948 108.666739 
L 144.557625 137.607601 
L 134.527301 200.6284 
L 124.496977 242.09716 
L 114.466653 277.096327 
L 104.436329 316.054279 
L 94.406006 335.764903 
L 84.375682 362.421714 
z
" clip-path="url(#pf9aa2a211a)" style="fill: #7f7f7f; fill-opacity: 0.1"/>
   </g>
   <g id="FillBetweenPolyCollection_9">
    <path d="M 84.375682 294.250626 
L 84.375682 345.672101 
L 94.406006 331.144933 
L 104.436329 327.690187 
L 114.466653 323.33954 
L 124.496977 325.216482 
L 134.527301 328.718588 
L 144.557625 326.00095 
L 154.587948 325.332713 
L 164.618272 289.818978 
L 174.648596 296.053964 
L 174.648596 232.884598 
L 174.648596 232.884598 
L 164.618272 201.313787 
L 154.587948 216.970302 
L 144.557625 219.472041 
L 134.527301 221.77697 
L 124.496977 230.656954 
L 114.466653 268.294581 
L 104.436329 271.15163 
L 94.406006 278.928292 
L 84.375682 294.250626 
z
" clip-path="url(#pf9aa2a211a)" style="fill: #bcbd22; fill-opacity: 0.2"/>
   </g>
   <g id="FillBetweenPolyCollection_10">
    <path d="M 84.375682 382.265026 
L 84.375682 407.7083 
L 94.406006 376.693328 
L 104.436329 361.194632 
L 114.466653 349.127602 
L 124.496977 335.640038 
L 134.527301 332.412719 
L 144.557625 330.670588 
L 154.587948 330.065317 
L 164.618272 303.114999 
L 174.648596 307.308587 
L 174.648596 241.957769 
L 174.648596 241.957769 
L 164.618272 210.329268 
L 154.587948 241.524436 
L 144.557625 262.588321 
L 134.527301 284.410646 
L 124.496977 281.42336 
L 114.466653 292.089485 
L 104.436329 309.537111 
L 94.406006 349.481537 
L 84.375682 382.265026 
z
" clip-path="url(#pf9aa2a211a)" style="fill: #17becf; fill-opacity: 0.1"/>
   </g>
   <g id="matplotlib.axis_1">
    <g id="xtick_1">
     <g id="line2d_1">
      <path d="M 84.375682 534.04 
L 84.375682 26.16 
" clip-path="url(#pf9aa2a211a)" style="fill: none; stroke: #b0b0b0; stroke-width: 0.8; stroke-linecap: square"/>
     </g>
     <g id="line2d_2">
      <defs>
       <path id="meab4381bcb" d="M 0 0 
L 0 3.5 
" style="stroke: #000000; stroke-width: 0.8"/>
      </defs>
      <g>
       <use xlink:href="#meab4381bcb" x="84.375682" y="534.04" style="stroke: #000000; stroke-width: 0.8"/>
      </g>
     </g>
     <g id="text_1">
      <!-- 0 -->
      <g transform="translate(81.194432 548.638438) scale(0.1 -0.1)">
       <defs>
        <path id="DejaVuSans-30" d="M 2034 4250 
Q 1547 4250 1301 3770 
Q 1056 3291 1056 2328 
Q 1056 1369 1301 889 
Q 1547 409 2034 409 
Q 2525 409 2770 889 
Q 3016 1369 3016 2328 
Q 3016 3291 2770 3770 
Q 2525 4250 2034 4250 
z
M 2034 4750 
Q 2819 4750 3233 4129 
Q 3647 3509 3647 2328 
Q 3647 1150 3233 529 
Q 2819 -91 2034 -91 
Q 1250 -91 836 529 
Q 422 1150 422 2328 
Q 422 3509 836 4129 
Q 1250 4750 2034 4750 
z
" transform="scale(0.015625)"/>
       </defs>
       <use xlink:href="#DejaVuSans-30"/>
      </g>
     </g>
    </g>
    <g id="xtick_2">
     <g id="line2d_3">
      <path d="M 184.67892 534.04 
L 184.67892 26.16 
" clip-path="url(#pf9aa2a211a)" style="fill: none; stroke: #b0b0b0; stroke-width: 0.8; stroke-linecap: square"/>
     </g>
     <g id="line2d_4">
      <g>
       <use xlink:href="#meab4381bcb" x="184.67892" y="534.04" style="stroke: #000000; stroke-width: 0.8"/>
      </g>
     </g>
     <g id="text_2">
      <!-- 10 -->
      <g transform="translate(178.31642 548.638438) scale(0.1 -0.1)">
       <defs>
        <path id="DejaVuSans-31" d="M 794 531 
L 1825 531 
L 1825 4091 
L 703 3866 
L 703 4441 
L 1819 4666 
L 2450 4666 
L 2450 531 
L 3481 531 
L 3481 0 
L 794 0 
L 794 531 
z
" transform="scale(0.015625)"/>
       </defs>
       <use xlink:href="#DejaVuSans-31"/>
       <use xlink:href="#DejaVuSans-30" transform="translate(63.623047 0)"/>
      </g>
     </g>
    </g>
    <g id="xtick_3">
     <g id="line2d_5">
      <path d="M 284.982158 534.04 
L 284.982158 26.16 
" clip-path="url(#pf9aa2a211a)" style="fill: none; stroke: #b0b0b0; stroke-width: 0.8; stroke-linecap: square"/>
     </g>
     <g id="line2d_6">
      <g>
       <use xlink:href="#meab4381bcb" x="284.982158" y="534.04" style="stroke: #000000; stroke-width: 0.8"/>
      </g>
     </g>
     <g id="text_3">
      <!-- 20 -->
      <g transform="translate(278.619658 548.638438) scale(0.1 -0.1)">
       <defs>
        <path id="DejaVuSans-32" d="M 1228 531 
L 3431 531 
L 3431 0 
L 469 0 
L 469 531 
Q 828 903 1448 1529 
Q 2069 2156 2228 2338 
Q 2531 2678 2651 2914 
Q 2772 3150 2772 3378 
Q 2772 3750 2511 3984 
Q 2250 4219 1831 4219 
Q 1534 4219 1204 4116 
Q 875 4013 500 3803 
L 500 4441 
Q 881 4594 1212 4672 
Q 1544 4750 1819 4750 
Q 2544 4750 2975 4387 
Q 3406 4025 3406 3419 
Q 3406 3131 3298 2873 
Q 3191 2616 2906 2266 
Q 2828 2175 2409 1742 
Q 1991 1309 1228 531 
z
" transform="scale(0.015625)"/>
       </defs>
       <use xlink:href="#DejaVuSans-32"/>
       <use xlink:href="#DejaVuSans-30" transform="translate(63.623047 0)"/>
      </g>
     </g>
    </g>
    <g id="xtick_4">
     <g id="line2d_7">
      <path d="M 385.285395 534.04 
L 385.285395 26.16 
" clip-path="url(#pf9aa2a211a)" style="fill: none; stroke: #b0b0b0; stroke-width: 0.8; stroke-linecap: square"/>
     </g>
     <g id="line2d_8">
      <g>
       <use xlink:href="#meab4381bcb" x="385.285395" y="534.04" style="stroke: #000000; stroke-width: 0.8"/>
      </g>
     </g>
     <g id="text_4">
      <!-- 30 -->
      <g transform="translate(378.922895 548.638438) scale(0.1 -0.1)">
       <defs>
        <path id="DejaVuSans-33" d="M 2597 2516 
Q 3050 2419 3304 2112 
Q 3559 1806 3559 1356 
Q 3559 666 3084 287 
Q 2609 -91 1734 -91 
Q 1441 -91 1130 -33 
Q 819 25 488 141 
L 488 750 
Q 750 597 1062 519 
Q 1375 441 1716 441 
Q 2309 441 2620 675 
Q 2931 909 2931 1356 
Q 2931 1769 2642 2001 
Q 2353 2234 1838 2234 
L 1294 2234 
L 1294 2753 
L 1863 2753 
Q 2328 2753 2575 2939 
Q 2822 3125 2822 3475 
Q 2822 3834 2567 4026 
Q 2313 4219 1838 4219 
Q 1578 4219 1281 4162 
Q 984 4106 628 3988 
L 628 4550 
Q 988 4650 1302 4700 
Q 1616 4750 1894 4750 
Q 2613 4750 3031 4423 
Q 3450 4097 3450 3541 
Q 3450 3153 3228 2886 
Q 3006 2619 2597 2516 
z
" transform="scale(0.015625)"/>
       </defs>
       <use xlink:href="#DejaVuSans-33"/>
       <use xlink:href="#DejaVuSans-30" transform="translate(63.623047 0)"/>
      </g>
     </g>
    </g>
    <g id="xtick_5">
     <g id="line2d_9">
      <path d="M 485.588633 534.04 
L 485.588633 26.16 
" clip-path="url(#pf9aa2a211a)" style="fill: none; stroke: #b0b0b0; stroke-width: 0.8; stroke-linecap: square"/>
     </g>
     <g id="line2d_10">
      <g>
       <use xlink:href="#meab4381bcb" x="485.588633" y="534.04" style="stroke: #000000; stroke-width: 0.8"/>
      </g>
     </g>
     <g id="text_5">
      <!-- 40 -->
      <g transform="translate(479.226133 548.638438) scale(0.1 -0.1)">
       <defs>
        <path id="DejaVuSans-34" d="M 2419 4116 
L 825 1625 
L 2419 1625 
L 2419 4116 
z
M 2253 4666 
L 3047 4666 
L 3047 1625 
L 3713 1625 
L 3713 1100 
L 3047 1100 
L 3047 0 
L 2419 0 
L 2419 1100 
L 313 1100 
L 313 1709 
L 2253 4666 
z
" transform="scale(0.015625)"/>
       </defs>
       <use xlink:href="#DejaVuSans-34"/>
       <use xlink:href="#DejaVuSans-30" transform="translate(63.623047 0)"/>
      </g>
     </g>
    </g>
    <g id="xtick_6">
     <g id="line2d_11">
      <path d="M 585.891871 534.04 
L 585.891871 26.16 
" clip-path="url(#pf9aa2a211a)" style="fill: none; stroke: #b0b0b0; stroke-width: 0.8; stroke-linecap: square"/>
     </g>
     <g id="line2d_12">
      <g>
       <use xlink:href="#meab4381bcb" x="585.891871" y="534.04" style="stroke: #000000; stroke-width: 0.8"/>
      </g>
     </g>
     <g id="text_6">
      <!-- 50 -->
      <g transform="translate(579.529371 548.638438) scale(0.1 -0.1)">
       <defs>
        <path id="DejaVuSans-35" d="M 691 4666 
L 3169 4666 
L 3169 4134 
L 1269 4134 
L 1269 2991 
Q 1406 3038 1543 3061 
Q 1681 3084 1819 3084 
Q 2600 3084 3056 2656 
Q 3513 2228 3513 1497 
Q 3513 744 3044 326 
Q 2575 -91 1722 -91 
Q 1428 -91 1123 -41 
Q 819 9 494 109 
L 494 744 
Q 775 591 1075 516 
Q 1375 441 1709 441 
Q 2250 441 2565 725 
Q 2881 1009 2881 1497 
Q 2881 1984 2565 2268 
Q 2250 2553 1709 2553 
Q 1456 2553 1204 2497 
Q 953 2441 691 2322 
L 691 4666 
z
" transform="scale(0.015625)"/>
       </defs>
       <use xlink:href="#DejaVuSans-35"/>
       <use xlink:href="#DejaVuSans-30" transform="translate(63.623047 0)"/>
      </g>
     </g>
    </g>
    <g id="xtick_7">
     <g id="line2d_13">
      <path d="M 686.195109 534.04 
L 686.195109 26.16 
" clip-path="url(#pf9aa2a211a)" style="fill: none; stroke: #b0b0b0; stroke-width: 0.8; stroke-linecap: square"/>
     </g>
     <g id="line2d_14">
      <g>
       <use xlink:href="#meab4381bcb" x="686.195109" y="534.04" style="stroke: #000000; stroke-width: 0.8"/>
      </g>
     </g>
     <g id="text_7">
      <!-- 60 -->
      <g transform="translate(679.832609 548.638438) scale(0.1 -0.1)">
       <defs>
        <path id="DejaVuSans-36" d="M 2113 2584 
Q 1688 2584 1439 2293 
Q 1191 2003 1191 1497 
Q 1191 994 1439 701 
Q 1688 409 2113 409 
Q 2538 409 2786 701 
Q 3034 994 3034 1497 
Q 3034 2003 2786 2293 
Q 2538 2584 2113 2584 
z
M 3366 4563 
L 3366 3988 
Q 3128 4100 2886 4159 
Q 2644 4219 2406 4219 
Q 1781 4219 1451 3797 
Q 1122 3375 1075 2522 
Q 1259 2794 1537 2939 
Q 1816 3084 2150 3084 
Q 2853 3084 3261 2657 
Q 3669 2231 3669 1497 
Q 3669 778 3244 343 
Q 2819 -91 2113 -91 
Q 1303 -91 875 529 
Q 447 1150 447 2328 
Q 447 3434 972 4092 
Q 1497 4750 2381 4750 
Q 2619 4750 2861 4703 
Q 3103 4656 3366 4563 
z
" transform="scale(0.015625)"/>
       </defs>
       <use xlink:href="#DejaVuSans-36"/>
       <use xlink:href="#DejaVuSans-30" transform="translate(63.623047 0)"/>
      </g>
     </g>
    </g>
    <g id="xtick_8">
     <g id="line2d_15">
      <path d="M 786.498347 534.04 
L 786.498347 26.16 
" clip-path="url(#pf9aa2a211a)" style="fill: none; stroke: #b0b0b0; stroke-width: 0.8; stroke-linecap: square"/>
     </g>
     <g id="line2d_16">
      <g>
       <use xlink:href="#meab4381bcb" x="786.498347" y="534.04" style="stroke: #000000; stroke-width: 0.8"/>
      </g>
     </g>
     <g id="text_8">
      <!-- 70 -->
      <g transform="translate(780.135847 548.638438) scale(0.1 -0.1)">
       <defs>
        <path id="DejaVuSans-37" d="M 525 4666 
L 3525 4666 
L 3525 4397 
L 1831 0 
L 1172 0 
L 2766 4134 
L 525 4134 
L 525 4666 
z
" transform="scale(0.015625)"/>
       </defs>
       <use xlink:href="#DejaVuSans-37"/>
       <use xlink:href="#DejaVuSans-30" transform="translate(63.623047 0)"/>
      </g>
     </g>
    </g>
    <g id="text_9">
     <!-- Generation -->
     <g transform="translate(422.589531 562.316562) scale(0.1 -0.1)">
      <defs>
       <path id="DejaVuSans-47" d="M 3809 666 
L 3809 1919 
L 2778 1919 
L 2778 2438 
L 4434 2438 
L 4434 434 
Q 4069 175 3628 42 
Q 3188 -91 2688 -91 
Q 1594 -91 976 548 
Q 359 1188 359 2328 
Q 359 3472 976 4111 
Q 1594 4750 2688 4750 
Q 3144 4750 3555 4637 
Q 3966 4525 4313 4306 
L 4313 3634 
Q 3963 3931 3569 4081 
Q 3175 4231 2741 4231 
Q 1884 4231 1454 3753 
Q 1025 3275 1025 2328 
Q 1025 1384 1454 906 
Q 1884 428 2741 428 
Q 3075 428 3337 486 
Q 3600 544 3809 666 
z
" transform="scale(0.015625)"/>
       <path id="DejaVuSans-65" d="M 3597 1894 
L 3597 1613 
L 953 1613 
Q 991 1019 1311 708 
Q 1631 397 2203 397 
Q 2534 397 2845 478 
Q 3156 559 3463 722 
L 3463 178 
Q 3153 47 2828 -22 
Q 2503 -91 2169 -91 
Q 1331 -91 842 396 
Q 353 884 353 1716 
Q 353 2575 817 3079 
Q 1281 3584 2069 3584 
Q 2775 3584 3186 3129 
Q 3597 2675 3597 1894 
z
M 3022 2063 
Q 3016 2534 2758 2815 
Q 2500 3097 2075 3097 
Q 1594 3097 1305 2825 
Q 1016 2553 972 2059 
L 3022 2063 
z
" transform="scale(0.015625)"/>
       <path id="DejaVuSans-6e" d="M 3513 2113 
L 3513 0 
L 2938 0 
L 2938 2094 
Q 2938 2591 2744 2837 
Q 2550 3084 2163 3084 
Q 1697 3084 1428 2787 
Q 1159 2491 1159 1978 
L 1159 0 
L 581 0 
L 581 3500 
L 1159 3500 
L 1159 2956 
Q 1366 3272 1645 3428 
Q 1925 3584 2291 3584 
Q 2894 3584 3203 3211 
Q 3513 2838 3513 2113 
z
" transform="scale(0.015625)"/>
       <path id="DejaVuSans-72" d="M 2631 2963 
Q 2534 3019 2420 3045 
Q 2306 3072 2169 3072 
Q 1681 3072 1420 2755 
Q 1159 2438 1159 1844 
L 1159 0 
L 581 0 
L 581 3500 
L 1159 3500 
L 1159 2956 
Q 1341 3275 1631 3429 
Q 1922 3584 2338 3584 
Q 2397 3584 2469 3576 
Q 2541 3569 2628 3553 
L 2631 2963 
z
" transform="scale(0.015625)"/>
       <path id="DejaVuSans-61" d="M 2194 1759 
Q 1497 1759 1228 1600 
Q 959 1441 959 1056 
Q 959 750 1161 570 
Q 1363 391 1709 391 
Q 2188 391 2477 730 
Q 2766 1069 2766 1631 
L 2766 1759 
L 2194 1759 
z
M 3341 1997 
L 3341 0 
L 2766 0 
L 2766 531 
Q 2569 213 2275 61 
Q 1981 -91 1556 -91 
Q 1019 -91 701 211 
Q 384 513 384 1019 
Q 384 1609 779 1909 
Q 1175 2209 1959 2209 
L 2766 2209 
L 2766 2266 
Q 2766 2663 2505 2880 
Q 2244 3097 1772 3097 
Q 1472 3097 1187 3025 
Q 903 2953 641 2809 
L 641 3341 
Q 956 3463 1253 3523 
Q 1550 3584 1831 3584 
Q 2591 3584 2966 3190 
Q 3341 2797 3341 1997 
z
" transform="scale(0.015625)"/>
       <path id="DejaVuSans-74" d="M 1172 4494 
L 1172 3500 
L 2356 3500 
L 2356 3053 
L 1172 3053 
L 1172 1153 
Q 1172 725 1289 603 
Q 1406 481 1766 481 
L 2356 481 
L 2356 0 
L 1766 0 
Q 1100 0 847 248 
Q 594 497 594 1153 
L 594 3053 
L 172 3053 
L 172 3500 
L 594 3500 
L 594 4494 
L 1172 4494 
z
" transform="scale(0.015625)"/>
       <path id="DejaVuSans-69" d="M 603 3500 
L 1178 3500 
L 1178 0 
L 603 0 
L 603 3500 
z
M 603 4863 
L 1178 4863 
L 1178 4134 
L 603 4134 
L 603 4863 
z
" transform="scale(0.015625)"/>
       <path id="DejaVuSans-6f" d="M 1959 3097 
Q 1497 3097 1228 2736 
Q 959 2375 959 1747 
Q 959 1119 1226 758 
Q 1494 397 1959 397 
Q 2419 397 2687 759 
Q 2956 1122 2956 1747 
Q 2956 2369 2687 2733 
Q 2419 3097 1959 3097 
z
M 1959 3584 
Q 2709 3584 3137 3096 
Q 3566 2609 3566 1747 
Q 3566 888 3137 398 
Q 2709 -91 1959 -91 
Q 1206 -91 779 398 
Q 353 888 353 1747 
Q 353 2609 779 3096 
Q 1206 3584 1959 3584 
z
" transform="scale(0.015625)"/>
      </defs>
      <use xlink:href="#DejaVuSans-47"/>
      <use xlink:href="#DejaVuSans-65" transform="translate(77.490234 0)"/>
      <use xlink:href="#DejaVuSans-6e" transform="translate(139.013672 0)"/>
      <use xlink:href="#DejaVuSans-65" transform="translate(202.392578 0)"/>
      <use xlink:href="#DejaVuSans-72" transform="translate(263.916016 0)"/>
      <use xlink:href="#DejaVuSans-61" transform="translate(305.029297 0)"/>
      <use xlink:href="#DejaVuSans-74" transform="translate(366.308594 0)"/>
      <use xlink:href="#DejaVuSans-69" transform="translate(405.517578 0)"/>
      <use xlink:href="#DejaVuSans-6f" transform="translate(433.300781 0)"/>
      <use xlink:href="#DejaVuSans-6e" transform="translate(494.482422 0)"/>
     </g>
    </g>
   </g>
   <g id="matplotlib.axis_2">
    <g id="ytick_1">
     <g id="line2d_17">
      <path d="M 47.765 502.356714 
L 853.2 502.356714 
" clip-path="url(#pf9aa2a211a)" style="fill: none; stroke: #b0b0b0; stroke-width: 0.8; stroke-linecap: square"/>
     </g>
     <g id="line2d_18">
      <defs>
       <path id="m9a4c2f3e46" d="M 0 0 
L -3.5 0 
" style="stroke: #000000; stroke-width: 0.8"/>
      </defs>
      <g>
       <use xlink:href="#m9a4c2f3e46" x="47.765" y="502.356714" style="stroke: #000000; stroke-width: 0.8"/>
      </g>
     </g>
     <g id="text_10">
      <!-- 3.5 -->
      <g transform="translate(24.861875 506.155933) scale(0.1 -0.1)">
       <defs>
        <path id="DejaVuSans-2e" d="M 684 794 
L 1344 794 
L 1344 0 
L 684 0 
L 684 794 
z
" transform="scale(0.015625)"/>
       </defs>
       <use xlink:href="#DejaVuSans-33"/>
       <use xlink:href="#DejaVuSans-2e" transform="translate(63.623047 0)"/>
       <use xlink:href="#DejaVuSans-35" transform="translate(95.410156 0)"/>
      </g>
     </g>
    </g>
    <g id="ytick_2">
     <g id="line2d_19">
      <path d="M 47.765 432.312069 
L 853.2 432.312069 
" clip-path="url(#pf9aa2a211a)" style="fill: none; stroke: #b0b0b0; stroke-width: 0.8; stroke-linecap: square"/>
     </g>
     <g id="line2d_20">
      <g>
       <use xlink:href="#m9a4c2f3e46" x="47.765" y="432.312069" style="stroke: #000000; stroke-width: 0.8"/>
      </g>
     </g>
     <g id="text_11">
      <!-- 4.0 -->
      <g transform="translate(24.861875 436.111288) scale(0.1 -0.1)">
       <use xlink:href="#DejaVuSans-34"/>
       <use xlink:href="#DejaVuSans-2e" transform="translate(63.623047 0)"/>
       <use xlink:href="#DejaVuSans-30" transform="translate(95.410156 0)"/>
      </g>
     </g>
    </g>
    <g id="ytick_3">
     <g id="line2d_21">
      <path d="M 47.765 362.267424 
L 853.2 362.267424 
" clip-path="url(#pf9aa2a211a)" style="fill: none; stroke: #b0b0b0; stroke-width: 0.8; stroke-linecap: square"/>
     </g>
     <g id="line2d_22">
      <g>
       <use xlink:href="#m9a4c2f3e46" x="47.765" y="362.267424" style="stroke: #000000; stroke-width: 0.8"/>
      </g>
     </g>
     <g id="text_12">
      <!-- 4.5 -->
      <g transform="translate(24.861875 366.066643) scale(0.1 -0.1)">
       <use xlink:href="#DejaVuSans-34"/>
       <use xlink:href="#DejaVuSans-2e" transform="translate(63.623047 0)"/>
       <use xlink:href="#DejaVuSans-35" transform="translate(95.410156 0)"/>
      </g>
     </g>
    </g>
    <g id="ytick_4">
     <g id="line2d_23">
      <path d="M 47.765 292.222779 
L 853.2 292.222779 
" clip-path="url(#pf9aa2a211a)" style="fill: none; stroke: #b0b0b0; stroke-width: 0.8; stroke-linecap: square"/>
     </g>
     <g id="line2d_24">
      <g>
       <use xlink:href="#m9a4c2f3e46" x="47.765" y="292.222779" style="stroke: #000000; stroke-width: 0.8"/>
      </g>
     </g>
     <g id="text_13">
      <!-- 5.0 -->
      <g transform="translate(24.861875 296.021998) scale(0.1 -0.1)">
       <use xlink:href="#DejaVuSans-35"/>
       <use xlink:href="#DejaVuSans-2e" transform="translate(63.623047 0)"/>
       <use xlink:href="#DejaVuSans-30" transform="translate(95.410156 0)"/>
      </g>
     </g>
    </g>
    <g id="ytick_5">
     <g id="line2d_25">
      <path d="M 47.765 222.178134 
L 853.2 222.178134 
" clip-path="url(#pf9aa2a211a)" style="fill: none; stroke: #b0b0b0; stroke-width: 0.8; stroke-linecap: square"/>
     </g>
     <g id="line2d_26">
      <g>
       <use xlink:href="#m9a4c2f3e46" x="47.765" y="222.178134" style="stroke: #000000; stroke-width: 0.8"/>
      </g>
     </g>
     <g id="text_14">
      <!-- 5.5 -->
      <g transform="translate(24.861875 225.977353) scale(0.1 -0.1)">
       <use xlink:href="#DejaVuSans-35"/>
       <use xlink:href="#DejaVuSans-2e" transform="translate(63.623047 0)"/>
       <use xlink:href="#DejaVuSans-35" transform="translate(95.410156 0)"/>
      </g>
     </g>
    </g>
    <g id="ytick_6">
     <g id="line2d_27">
      <path d="M 47.765 152.133489 
L 853.2 152.133489 
" clip-path="url(#pf9aa2a211a)" style="fill: none; stroke: #b0b0b0; stroke-width: 0.8; stroke-linecap: square"/>
     </g>
     <g id="line2d_28">
      <g>
       <use xlink:href="#m9a4c2f3e46" x="47.765" y="152.133489" style="stroke: #000000; stroke-width: 0.8"/>
      </g>
     </g>
     <g id="text_15">
      <!-- 6.0 -->
      <g transform="translate(24.861875 155.932708) scale(0.1 -0.1)">
       <use xlink:href="#DejaVuSans-36"/>
       <use xlink:href="#DejaVuSans-2e" transform="translate(63.623047 0)"/>
       <use xlink:href="#DejaVuSans-30" transform="translate(95.410156 0)"/>
      </g>
     </g>
    </g>
    <g id="ytick_7">
     <g id="line2d_29">
      <path d="M 47.765 82.088844 
L 853.2 82.088844 
" clip-path="url(#pf9aa2a211a)" style="fill: none; stroke: #b0b0b0; stroke-width: 0.8; stroke-linecap: square"/>
     </g>
     <g id="line2d_30">
      <g>
       <use xlink:href="#m9a4c2f3e46" x="47.765" y="82.088844" style="stroke: #000000; stroke-width: 0.8"/>
      </g>
     </g>
     <g id="text_16">
      <!-- 6.5 -->
      <g transform="translate(24.861875 85.888063) scale(0.1 -0.1)">
       <use xlink:href="#DejaVuSans-36"/>
       <use xlink:href="#DejaVuSans-2e" transform="translate(63.623047 0)"/>
       <use xlink:href="#DejaVuSans-35" transform="translate(95.410156 0)"/>
      </g>
     </g>
    </g>
    <g id="text_17">
     <!-- Fitness (↑ = better) -->
     <g transform="translate(18.782187 329.76875) rotate(-90) scale(0.1 -0.1)">
      <defs>
       <path id="DejaVuSans-46" d="M 628 4666 
L 3309 4666 
L 3309 4134 
L 1259 4134 
L 1259 2759 
L 3109 2759 
L 3109 2228 
L 1259 2228 
L 1259 0 
L 628 0 
L 628 4666 
z
" transform="scale(0.015625)"/>
       <path id="DejaVuSans-73" d="M 2834 3397 
L 2834 2853 
Q 2591 2978 2328 3040 
Q 2066 3103 1784 3103 
Q 1356 3103 1142 2972 
Q 928 2841 928 2578 
Q 928 2378 1081 2264 
Q 1234 2150 1697 2047 
L 1894 2003 
Q 2506 1872 2764 1633 
Q 3022 1394 3022 966 
Q 3022 478 2636 193 
Q 2250 -91 1575 -91 
Q 1294 -91 989 -36 
Q 684 19 347 128 
L 347 722 
Q 666 556 975 473 
Q 1284 391 1588 391 
Q 1994 391 2212 530 
Q 2431 669 2431 922 
Q 2431 1156 2273 1281 
Q 2116 1406 1581 1522 
L 1381 1569 
Q 847 1681 609 1914 
Q 372 2147 372 2553 
Q 372 3047 722 3315 
Q 1072 3584 1716 3584 
Q 2034 3584 2315 3537 
Q 2597 3491 2834 3397 
z
" transform="scale(0.015625)"/>
       <path id="DejaVuSans-20" transform="scale(0.015625)"/>
       <path id="DejaVuSans-28" d="M 1984 4856 
Q 1566 4138 1362 3434 
Q 1159 2731 1159 2009 
Q 1159 1288 1364 580 
Q 1569 -128 1984 -844 
L 1484 -844 
Q 1016 -109 783 600 
Q 550 1309 550 2009 
Q 550 2706 781 3412 
Q 1013 4119 1484 4856 
L 1984 4856 
z
" transform="scale(0.015625)"/>
       <path id="DejaVuSans-2191" d="M 2541 4688 
L 2822 4688 
L 4047 3456 
L 3672 3081 
L 2947 3813 
L 2947 0 
L 2416 0 
L 2416 3813 
L 1684 3081 
L 1309 3456 
L 2541 4688 
z
" transform="scale(0.015625)"/>
       <path id="DejaVuSans-3d" d="M 678 2906 
L 4684 2906 
L 4684 2381 
L 678 2381 
L 678 2906 
z
M 678 1631 
L 4684 1631 
L 4684 1100 
L 678 1100 
L 678 1631 
z
" transform="scale(0.015625)"/>
       <path id="DejaVuSans-62" d="M 3116 1747 
Q 3116 2381 2855 2742 
Q 2594 3103 2138 3103 
Q 1681 3103 1420 2742 
Q 1159 2381 1159 1747 
Q 1159 1113 1420 752 
Q 1681 391 2138 391 
Q 2594 391 2855 752 
Q 3116 1113 3116 1747 
z
M 1159 2969 
Q 1341 3281 1617 3432 
Q 1894 3584 2278 3584 
Q 2916 3584 3314 3078 
Q 3713 2572 3713 1747 
Q 3713 922 3314 415 
Q 2916 -91 2278 -91 
Q 1894 -91 1617 61 
Q 1341 213 1159 525 
L 1159 0 
L 581 0 
L 581 4863 
L 1159 4863 
L 1159 2969 
z
" transform="scale(0.015625)"/>
       <path id="DejaVuSans-29" d="M 513 4856 
L 1013 4856 
Q 1481 4119 1714 3412 
Q 1947 2706 1947 2009 
Q 1947 1309 1714 600 
Q 1481 -109 1013 -844 
L 513 -844 
Q 928 -128 1133 580 
Q 1338 1288 1338 2009 
Q 1338 2731 1133 3434 
Q 928 4138 513 4856 
z
" transform="scale(0.015625)"/>
      </defs>
      <use xlink:href="#DejaVuSans-46"/>
      <use xlink:href="#DejaVuSans-69" transform="translate(50.269531 0)"/>
      <use xlink:href="#DejaVuSans-74" transform="translate(78.052734 0)"/>
      <use xlink:href="#DejaVuSans-6e" transform="translate(117.261719 0)"/>
      <use xlink:href="#DejaVuSans-65" transform="translate(180.640625 0)"/>
      <use xlink:href="#DejaVuSans-73" transform="translate(242.164062 0)"/>
      <use xlink:href="#DejaVuSans-73" transform="translate(294.263672 0)"/>
      <use xlink:href="#DejaVuSans-20" transform="translate(346.363281 0)"/>
      <use xlink:href="#DejaVuSans-28" transform="translate(378.150391 0)"/>
      <use xlink:href="#DejaVuSans-2191" transform="translate(417.164062 0)"/>
      <use xlink:href="#DejaVuSans-20" transform="translate(500.953125 0)"/>
      <use xlink:href="#DejaVuSans-3d" transform="translate(532.740234 0)"/>
      <use xlink:href="#DejaVuSans-20" transform="translate(616.529297 0)"/>
      <use xlink:href="#DejaVuSans-62" transform="translate(648.316406 0)"/>
      <use xlink:href="#DejaVuSans-65" transform="translate(711.792969 0)"/>
      <use xlink:href="#DejaVuSans-74" transform="translate(773.316406 0)"/>
      <use xlink:href="#DejaVuSans-74" transform="translate(812.525391 0)"/>
      <use xlink:href="#DejaVuSans-65" transform="translate(851.734375 0)"/>
      <use xlink:href="#DejaVuSans-72" transform="translate(913.257812 0)"/>
      <use xlink:href="#DejaVuSans-29" transform="translate(954.371094 0)"/>
     </g>
    </g>
   </g>
   <g id="line2d_31">
    <path d="M 84.375682 339.189208 
L 94.406006 337.024688 
L 104.436329 337.022324 
L 114.466653 305.618056 
L 124.496977 300.891159 
L 134.527301 299.306626 
L 144.557625 296.252122 
L 154.587948 269.620771 
L 164.618272 269.445837 
L 174.648596 261.103903 
L 184.67892 256.042654 
L 194.709243 254.596011 
L 204.739567 243.095536 
L 214.769891 235.479569 
L 224.800215 232.771082 
L 234.830539 228.851584 
L 244.860862 224.989583 
L 254.891186 217.067231 
L 264.92151 214.392374 
L 274.951834 209.373382 
L 284.982158 208.812625 
L 295.012481 207.779445 
L 305.042805 206.296064 
L 315.073129 203.828945 
L 325.103453 201.766082 
L 335.133776 200.316547 
L 345.1641 199.264986 
L 355.194424 188.268559 
L 365.224748 187.962949 
L 375.255072 185.570263 
L 385.285395 183.682957 
L 395.315719 181.181712 
L 405.346043 181.146942 
L 415.376367 180.849966 
L 425.406691 177.218607 
L 435.437014 176.228022 
L 445.467338 175.842534 
L 455.497662 172.951679 
L 465.527986 169.979951 
L 475.558309 158.697655 
L 485.588633 157.271315 
L 495.618957 156.75397 
L 505.649281 154.409939 
L 515.679605 153.231427 
L 525.709928 151.773783 
L 535.740252 151.050216 
L 545.770576 149.470984 
L 555.8009 147.332723 
L 565.831224 145.174115 
L 575.861547 144.702055 
L 585.891871 143.723676 
L 595.922195 141.592143 
L 605.952519 140.57573 
L 615.982842 139.25424 
L 626.013166 138.828193 
L 636.04349 138.412373 
L 646.073814 136.734099 
L 656.104138 88.817943 
L 666.134461 86.356742 
L 676.164785 85.3515 
L 686.195109 84.221648 
L 696.225433 81.281915 
L 706.255757 77.533829 
L 716.28608 76.946734 
L 726.316404 75.646864 
L 736.346728 73.416034 
L 746.377052 71.660475 
L 756.407375 70.123464 
L 766.437699 69.297215 
L 776.468023 69.297215 
L 786.498347 68.840828 
L 796.528671 80.409958 
L 806.558994 80.077353 
L 816.589318 79.643995 
" clip-path="url(#pf9aa2a211a)" style="fill: none; stroke: #1f77b4; stroke-width: 2; stroke-linecap: square"/>
   </g>
   <g id="line2d_32">
    <path d="M 84.375682 430.866647 
L 94.406006 420.325376 
L 104.436329 413.20639 
L 114.466653 408.165906 
L 124.496977 392.905251 
L 134.527301 384.448637 
L 144.557625 367.97992 
L 154.587948 351.375676 
L 164.618272 344.375027 
L 174.648596 340.153369 
L 184.67892 332.124589 
L 194.709243 320.514711 
L 204.739567 308.402197 
L 214.769891 289.985418 
L 224.800215 282.261983 
L 234.830539 277.329383 
L 244.860862 270.070679 
L 254.891186 264.503602 
L 264.92151 259.025915 
L 274.951834 256.128825 
L 284.982158 253.956431 
L 295.012481 247.666115 
L 305.042805 239.786369 
L 315.073129 234.101472 
L 325.103453 231.863073 
L 335.133776 230.773164 
L 345.1641 227.240316 
L 355.194424 225.613257 
L 365.224748 217.999434 
L 375.255072 216.845843 
L 385.285395 213.933139 
L 395.315719 206.623758 
L 405.346043 205.424384 
L 415.376367 204.161664 
L 425.406691 199.786052 
L 435.437014 196.284042 
L 445.467338 194.550919 
L 455.497662 191.828488 
L 465.527986 186.575989 
L 475.558309 177.094184 
L 485.588633 174.399203 
L 495.618957 174.655766 
L 505.649281 173.97968 
L 515.679605 173.33212 
L 525.709928 170.727427 
L 535.740252 166.369394 
L 545.770576 163.025657 
L 555.8009 160.028349 
L 565.831224 158.539844 
L 575.861547 157.210079 
L 585.891871 155.523759 
L 595.922195 154.935976 
L 605.952519 154.355848 
L 615.982842 154.176555 
L 626.013166 153.314506 
L 636.04349 153.998523 
L 646.073814 151.045927 
L 656.104138 108.828532 
L 666.134461 104.504813 
L 676.164785 103.152471 
L 686.195109 102.482913 
L 696.225433 100.59061 
L 706.255757 99.766111 
L 716.28608 96.012232 
L 726.316404 93.302926 
L 736.346728 93.096591 
L 746.377052 91.460048 
L 756.407375 88.848279 
L 766.437699 87.434577 
L 776.468023 85.720859 
L 786.498347 84.472177 
L 796.528671 91.210346 
L 806.558994 88.376107 
L 816.589318 87.405203 
" clip-path="url(#pf9aa2a211a)" style="fill: none; stroke-dasharray: 5.55,2.4; stroke-dashoffset: 0; stroke: #ff7f0e; stroke-width: 1.5"/>
   </g>
   <g id="line2d_33">
    <path d="M 84.375682 350.782319 
L 94.406006 350.782319 
L 104.436329 350.782319 
L 114.466653 350.782319 
L 124.496977 348.938981 
L 134.527301 348.938981 
L 144.557625 348.938981 
L 154.587948 348.938981 
L 164.618272 348.895358 
L 174.648596 348.713831 
L 184.67892 362.8445 
L 194.709243 362.8445 
L 204.739567 362.8445 
L 214.769891 362.8445 
" clip-path="url(#pf9aa2a211a)" style="fill: none; stroke: #2ca02c; stroke-width: 2; stroke-linecap: square"/>
   </g>
   <g id="line2d_34">
    <path d="M 84.375682 445.021626 
L 94.406006 456.877634 
L 104.436329 464.258625 
L 114.466653 469.408805 
L 124.496977 472.346066 
L 134.527301 478.601358 
L 144.557625 483.828206 
L 154.587948 487.182084 
L 164.618272 491.864588 
L 174.648596 494.294358 
L 184.67892 498.428452 
L 194.709243 496.715438 
L 204.739567 501.616897 
L 214.769891 503.771228 
" clip-path="url(#pf9aa2a211a)" style="fill: none; stroke-dasharray: 5.55,2.4; stroke-dashoffset: 0; stroke: #d62728; stroke-width: 1.5"/>
   </g>
   <g id="line2d_35">
    <path d="M 84.375682 302.056388 
L 94.406006 291.311549 
L 104.436329 277.124076 
L 114.466653 268.44368 
L 124.496977 265.183452 
L 134.527301 256.681228 
L 144.557625 250.391398 
L 154.587948 242.081054 
L 164.618272 240.699319 
L 174.648596 236.547144 
L 184.67892 229.664127 
L 194.709243 227.855356 
L 204.739567 225.366773 
L 214.769891 223.131791 
L 224.800215 206.592268 
L 234.830539 187.961015 
L 244.860862 164.472564 
L 254.891186 161.996176 
L 264.92151 161.190886 
L 274.951834 159.065961 
" clip-path="url(#pf9aa2a211a)" style="fill: none; stroke: #9467bd; stroke-width: 2; stroke-linecap: square"/>
   </g>
   <g id="line2d_36">
    <path d="M 84.375682 406.809506 
L 94.406006 379.193224 
L 104.436329 348.136172 
L 114.466653 326.393352 
L 124.496977 306.93999 
L 134.527301 292.061813 
L 144.557625 277.74744 
L 154.587948 265.843111 
L 164.618272 259.846887 
L 174.648596 252.856837 
L 184.67892 251.949508 
L 194.709243 245.7688 
L 204.739567 240.283062 
L 214.769891 234.09187 
L 224.800215 229.938894 
L 234.830539 213.582488 
L 244.860862 197.354036 
L 254.891186 185.916252 
L 264.92151 172.571772 
L 274.951834 165.924847 
" clip-path="url(#pf9aa2a211a)" style="fill: none; stroke-dasharray: 5.55,2.4; stroke-dashoffset: 0; stroke: #8c564b; stroke-width: 1.5"/>
   </g>
   <g id="line2d_37">
    <path d="M 84.375682 319.200729 
L 94.406006 288.045477 
L 104.436329 283.736165 
L 114.466653 268.9254 
L 124.496977 250.85909 
L 134.527301 230.159855 
L 144.557625 194.947031 
L 154.587948 190.981263 
L 164.618272 256.445104 
" clip-path="url(#pf9aa2a211a)" style="fill: none; stroke: #e377c2; stroke-width: 2; stroke-linecap: square"/>
   </g>
   <g id="line2d_38">
    <path d="M 84.375682 376.382835 
L 94.406006 343.007764 
L 104.436329 320.336328 
L 114.466653 296.125459 
L 124.496977 278.73398 
L 134.527301 256.285306 
L 144.557625 216.024997 
L 154.587948 199.809814 
L 164.618272 259.183309 
" clip-path="url(#pf9aa2a211a)" style="fill: none; stroke-dasharray: 5.55,2.4; stroke-dashoffset: 0; stroke: #7f7f7f; stroke-width: 1.5"/>
   </g>
   <g id="line2d_39">
    <path d="M 84.375682 319.961363 
L 94.406006 305.036612 
L 104.436329 299.420908 
L 114.466653 295.817061 
L 124.496977 277.936718 
L 134.527301 275.247779 
L 144.557625 272.736496 
L 154.587948 271.151507 
L 164.618272 245.566383 
L 174.648596 264.469281 
L 184.67892 279.494001 
L 194.709243 278.384615 
L 204.739567 275.823379 
L 214.769891 268.715478 
" clip-path="url(#pf9aa2a211a)" style="fill: none; stroke: #bcbd22; stroke-width: 2; stroke-linecap: square"/>
   </g>
   <g id="line2d_40">
    <path d="M 84.375682 394.986663 
L 94.406006 363.087432 
L 104.436329 335.365872 
L 114.466653 320.608543 
L 124.496977 308.531699 
L 134.527301 308.411682 
L 144.557625 296.629455 
L 154.587948 285.794876 
L 164.618272 256.722133 
L 174.648596 274.633178 
L 184.67892 292.493932 
L 194.709243 287.485466 
L 204.739567 281.8145 
L 214.769891 278.406007 
" clip-path="url(#pf9aa2a211a)" style="fill: none; stroke-dasharray: 5.55,2.4; stroke-dashoffset: 0; stroke: #17becf; stroke-width: 1.5"/>
   </g>
   <g id="patch_3">
    <path d="M 47.765 534.04 
L 47.765 26.16 
" style="fill: none; stroke: #000000; stroke-width: 0.8; stroke-linejoin: miter; stroke-linecap: square"/>
   </g>
   <g id="patch_4">
    <path d="M 853.2 534.04 
L 853.2 26.16 
" style="fill: none; stroke: #000000; stroke-width: 0.8; stroke-linejoin: miter; stroke-linecap: square"/>
   </g>
   <g id="patch_5">
    <path d="M 47.765 534.04 
L 853.2 534.04 
" style="fill: none; stroke: #000000; stroke-width: 0.8; stroke-linejoin: miter; stroke-linecap: square"/>
   </g>
   <g id="patch_6">
    <path d="M 47.765 26.16 
L 853.2 26.16 
" style="fill: none; stroke: #000000; stroke-width: 0.8; stroke-linejoin: miter; stroke-linecap: square"/>
   </g>
   <g id="text_18">
    <!-- Selection Method Comparison -->
    <g transform="translate(360.589375 20.16) scale(0.12 -0.12)">
     <defs>
      <path id="DejaVuSans-53" d="M 3425 4513 
L 3425 3897 
Q 3066 4069 2747 4153 
Q 2428 4238 2131 4238 
Q 1616 4238 1336 4038 
Q 1056 3838 1056 3469 
Q 1056 3159 1242 3001 
Q 1428 2844 1947 2747 
L 2328 2669 
Q 3034 2534 3370 2195 
Q 3706 1856 3706 1288 
Q 3706 609 3251 259 
Q 2797 -91 1919 -91 
Q 1588 -91 1214 -16 
Q 841 59 441 206 
L 441 856 
Q 825 641 1194 531 
Q 1563 422 1919 422 
Q 2459 422 2753 634 
Q 3047 847 3047 1241 
Q 3047 1584 2836 1778 
Q 2625 1972 2144 2069 
L 1759 2144 
Q 1053 2284 737 2584 
Q 422 2884 422 3419 
Q 422 4038 858 4394 
Q 1294 4750 2059 4750 
Q 2388 4750 2728 4690 
Q 3069 4631 3425 4513 
z
" transform="scale(0.015625)"/>
      <path id="DejaVuSans-6c" d="M 603 4863 
L 1178 4863 
L 1178 0 
L 603 0 
L 603 4863 
z
" transform="scale(0.015625)"/>
      <path id="DejaVuSans-63" d="M 3122 3366 
L 3122 2828 
Q 2878 2963 2633 3030 
Q 2388 3097 2138 3097 
Q 1578 3097 1268 2742 
Q 959 2388 959 1747 
Q 959 1106 1268 751 
Q 1578 397 2138 397 
Q 2388 397 2633 464 
Q 2878 531 3122 666 
L 3122 134 
Q 2881 22 2623 -34 
Q 2366 -91 2075 -91 
Q 1284 -91 818 406 
Q 353 903 353 1747 
Q 353 2603 823 3093 
Q 1294 3584 2113 3584 
Q 2378 3584 2631 3529 
Q 2884 3475 3122 3366 
z
" transform="scale(0.015625)"/>
      <path id="DejaVuSans-4d" d="M 628 4666 
L 1569 4666 
L 2759 1491 
L 3956 4666 
L 4897 4666 
L 4897 0 
L 4281 0 
L 4281 4097 
L 3078 897 
L 2444 897 
L 1241 4097 
L 1241 0 
L 628 0 
L 628 4666 
z
" transform="scale(0.015625)"/>
      <path id="DejaVuSans-68" d="M 3513 2113 
L 3513 0 
L 2938 0 
L 2938 2094 
Q 2938 2591 2744 2837 
Q 2550 3084 2163 3084 
Q 1697 3084 1428 2787 
Q 1159 2491 1159 1978 
L 1159 0 
L 581 0 
L 581 4863 
L 1159 4863 
L 1159 2956 
Q 1366 3272 1645 3428 
Q 1925 3584 2291 3584 
Q 2894 3584 3203 3211 
Q 3513 2838 3513 2113 
z
" transform="scale(0.015625)"/>
      <path id="DejaVuSans-64" d="M 2906 2969 
L 2906 4863 
L 3481 4863 
L 3481 0 
L 2906 0 
L 2906 525 
Q 2725 213 2448 61 
Q 2172 -91 1784 -91 
Q 1150 -91 751 415 
Q 353 922 353 1747 
Q 353 2572 751 3078 
Q 1150 3584 1784 3584 
Q 2172 3584 2448 3432 
Q 2725 3281 2906 2969 
z
M 947 1747 
Q 947 1113 1208 752 
Q 1469 391 1925 391 
Q 2381 391 2643 752 
Q 2906 1113 2906 1747 
Q 2906 2381 2643 2742 
Q 2381 3103 1925 3103 
Q 1469 3103 1208 2742 
Q 947 2381 947 1747 
z
" transform="scale(0.015625)"/>
      <path id="DejaVuSans-43" d="M 4122 4306 
L 4122 3641 
Q 3803 3938 3442 4084 
Q 3081 4231 2675 4231 
Q 1875 4231 1450 3742 
Q 1025 3253 1025 2328 
Q 1025 1406 1450 917 
Q 1875 428 2675 428 
Q 3081 428 3442 575 
Q 3803 722 4122 1019 
L 4122 359 
Q 3791 134 3420 21 
Q 3050 -91 2638 -91 
Q 1578 -91 968 557 
Q 359 1206 359 2328 
Q 359 3453 968 4101 
Q 1578 4750 2638 4750 
Q 3056 4750 3426 4639 
Q 3797 4528 4122 4306 
z
" transform="scale(0.015625)"/>
      <path id="DejaVuSans-6d" d="M 3328 2828 
Q 3544 3216 3844 3400 
Q 4144 3584 4550 3584 
Q 5097 3584 5394 3201 
Q 5691 2819 5691 2113 
L 5691 0 
L 5113 0 
L 5113 2094 
Q 5113 2597 4934 2840 
Q 4756 3084 4391 3084 
Q 3944 3084 3684 2787 
Q 3425 2491 3425 1978 
L 3425 0 
L 2847 0 
L 2847 2094 
Q 2847 2600 2669 2842 
Q 2491 3084 2119 3084 
Q 1678 3084 1418 2786 
Q 1159 2488 1159 1978 
L 1159 0 
L 581 0 
L 581 3500 
L 1159 3500 
L 1159 2956 
Q 1356 3278 1631 3431 
Q 1906 3584 2284 3584 
Q 2666 3584 2933 3390 
Q 3200 3197 3328 2828 
z
" transform="scale(0.015625)"/>
      <path id="DejaVuSans-70" d="M 1159 525 
L 1159 -1331 
L 581 -1331 
L 581 3500 
L 1159 3500 
L 1159 2969 
Q 1341 3281 1617 3432 
Q 1894 3584 2278 3584 
Q 2916 3584 3314 3078 
Q 3713 2572 3713 1747 
Q 3713 922 3314 415 
Q 2916 -91 2278 -91 
Q 1894 -91 1617 61 
Q 1341 213 1159 525 
z
M 3116 1747 
Q 3116 2381 2855 2742 
Q 2594 3103 2138 3103 
Q 1681 3103 1420 2742 
Q 1159 2381 1159 1747 
Q 1159 1113 1420 752 
Q 1681 391 2138 391 
Q 2594 391 2855 752 
Q 3116 1113 3116 1747 
z
" transform="scale(0.015625)"/>
     </defs>
     <use xlink:href="#DejaVuSans-53"/>
     <use xlink:href="#DejaVuSans-65" transform="translate(63.476562 0)"/>
     <use xlink:href="#DejaVuSans-6c" transform="translate(125 0)"/>
     <use xlink:href="#DejaVuSans-65" transform="translate(152.783203 0)"/>
     <use xlink:href="#DejaVuSans-63" transform="translate(214.306641 0)"/>
     <use xlink:href="#DejaVuSans-74" transform="translate(269.287109 0)"/>
     <use xlink:href="#DejaVuSans-69" transform="translate(308.496094 0)"/>
     <use xlink:href="#DejaVuSans-6f" transform="translate(336.279297 0)"/>
     <use xlink:href="#DejaVuSans-6e" transform="translate(397.460938 0)"/>
     <use xlink:href="#DejaVuSans-20" transform="translate(460.839844 0)"/>
     <use xlink:href="#DejaVuSans-4d" transform="translate(492.626953 0)"/>
     <use xlink:href="#DejaVuSans-65" transform="translate(578.90625 0)"/>
     <use xlink:href="#DejaVuSans-74" transform="translate(640.429688 0)"/>
     <use xlink:href="#DejaVuSans-68" transform="translate(679.638672 0)"/>
     <use xlink:href="#DejaVuSans-6f" transform="translate(743.017578 0)"/>
     <use xlink:href="#DejaVuSans-64" transform="translate(804.199219 0)"/>
     <use xlink:href="#DejaVuSans-20" transform="translate(867.675781 0)"/>
     <use xlink:href="#DejaVuSans-43" transform="translate(899.462891 0)"/>
     <use xlink:href="#DejaVuSans-6f" transform="translate(969.287109 0)"/>
     <use xlink:href="#DejaVuSans-6d" transform="translate(1030.46875 0)"/>
     <use xlink:href="#DejaVuSans-70" transform="translate(1127.880859 0)"/>
     <use xlink:href="#DejaVuSans-61" transform="translate(1191.357422 0)"/>
     <use xlink:href="#DejaVuSans-72" transform="translate(1252.636719 0)"/>
     <use xlink:href="#DejaVuSans-69" transform="translate(1293.75 0)"/>
     <use xlink:href="#DejaVuSans-73" transform="translate(1321.533203 0)"/>
     <use xlink:href="#DejaVuSans-6f" transform="translate(1373.632812 0)"/>
     <use xlink:href="#DejaVuSans-6e" transform="translate(1434.814453 0)"/>
    </g>
   </g>
   <g id="legend_1">
    <g id="patch_7">
     <path d="M 714.278125 529.04 
L 846.2 529.04 
Q 848.2 529.04 848.2 527.04 
L 848.2 381.25875 
Q 848.2 379.25875 846.2 379.25875 
L 714.278125 379.25875 
Q 712.278125 379.25875 712.278125 381.25875 
L 712.278125 527.04 
Q 712.278125 529.04 714.278125 529.04 
z
" style="fill: #ffffff; opacity: 0.8; stroke: #cccccc; stroke-linejoin: miter"/>
    </g>
    <g id="line2d_41">
     <path d="M 716.278125 387.357188 
L 726.278125 387.357188 
L 736.278125 387.357188 
" style="fill: none; stroke: #1f77b4; stroke-width: 2; stroke-linecap: square"/>
    </g>
    <g id="text_19">
     <!-- boltzmann (best↑) -->
     <g transform="translate(744.278125 390.857188) scale(0.1 -0.1)">
      <defs>
       <path id="DejaVuSans-7a" d="M 353 3500 
L 3084 3500 
L 3084 2975 
L 922 459 
L 3084 459 
L 3084 0 
L 275 0 
L 275 525 
L 2438 3041 
L 353 3041 
L 353 3500 
z
" transform="scale(0.015625)"/>
      </defs>
      <use xlink:href="#DejaVuSans-62"/>
      <use xlink:href="#DejaVuSans-6f" transform="translate(63.476562 0)"/>
      <use xlink:href="#DejaVuSans-6c" transform="translate(124.658203 0)"/>
      <use xlink:href="#DejaVuSans-74" transform="translate(152.441406 0)"/>
      <use xlink:href="#DejaVuSans-7a" transform="translate(191.650391 0)"/>
      <use xlink:href="#DejaVuSans-6d" transform="translate(244.140625 0)"/>
      <use xlink:href="#DejaVuSans-61" transform="translate(341.552734 0)"/>
      <use xlink:href="#DejaVuSans-6e" transform="translate(402.832031 0)"/>
      <use xlink:href="#DejaVuSans-6e" transform="translate(466.210938 0)"/>
      <use xlink:href="#DejaVuSans-20" transform="translate(529.589844 0)"/>
      <use xlink:href="#DejaVuSans-28" transform="translate(561.376953 0)"/>
      <use xlink:href="#DejaVuSans-62" transform="translate(600.390625 0)"/>
      <use xlink:href="#DejaVuSans-65" transform="translate(663.867188 0)"/>
      <use xlink:href="#DejaVuSans-73" transform="translate(725.390625 0)"/>
      <use xlink:href="#DejaVuSans-74" transform="translate(777.490234 0)"/>
      <use xlink:href="#DejaVuSans-2191" transform="translate(816.699219 0)"/>
      <use xlink:href="#DejaVuSans-29" transform="translate(900.488281 0)"/>
     </g>
    </g>
    <g id="line2d_42">
     <path d="M 716.278125 402.035313 
L 726.278125 402.035313 
L 736.278125 402.035313 
" style="fill: none; stroke-dasharray: 5.55,2.4; stroke-dashoffset: 0; stroke: #ff7f0e; stroke-width: 1.5"/>
    </g>
    <g id="text_20">
     <!-- boltzmann (avg↑) -->
     <g transform="translate(744.278125 405.535313) scale(0.1 -0.1)">
      <defs>
       <path id="DejaVuSans-76" d="M 191 3500 
L 800 3500 
L 1894 563 
L 2988 3500 
L 3597 3500 
L 2284 0 
L 1503 0 
L 191 3500 
z
" transform="scale(0.015625)"/>
       <path id="DejaVuSans-67" d="M 2906 1791 
Q 2906 2416 2648 2759 
Q 2391 3103 1925 3103 
Q 1463 3103 1205 2759 
Q 947 2416 947 1791 
Q 947 1169 1205 825 
Q 1463 481 1925 481 
Q 2391 481 2648 825 
Q 2906 1169 2906 1791 
z
M 3481 434 
Q 3481 -459 3084 -895 
Q 2688 -1331 1869 -1331 
Q 1566 -1331 1297 -1286 
Q 1028 -1241 775 -1147 
L 775 -588 
Q 1028 -725 1275 -790 
Q 1522 -856 1778 -856 
Q 2344 -856 2625 -561 
Q 2906 -266 2906 331 
L 2906 616 
Q 2728 306 2450 153 
Q 2172 0 1784 0 
Q 1141 0 747 490 
Q 353 981 353 1791 
Q 353 2603 747 3093 
Q 1141 3584 1784 3584 
Q 2172 3584 2450 3431 
Q 2728 3278 2906 2969 
L 2906 3500 
L 3481 3500 
L 3481 434 
z
" transform="scale(0.015625)"/>
      </defs>
      <use xlink:href="#DejaVuSans-62"/>
      <use xlink:href="#DejaVuSans-6f" transform="translate(63.476562 0)"/>
      <use xlink:href="#DejaVuSans-6c" transform="translate(124.658203 0)"/>
      <use xlink:href="#DejaVuSans-74" transform="translate(152.441406 0)"/>
      <use xlink:href="#DejaVuSans-7a" transform="translate(191.650391 0)"/>
      <use xlink:href="#DejaVuSans-6d" transform="translate(244.140625 0)"/>
      <use xlink:href="#DejaVuSans-61" transform="translate(341.552734 0)"/>
      <use xlink:href="#DejaVuSans-6e" transform="translate(402.832031 0)"/>
      <use xlink:href="#DejaVuSans-6e" transform="translate(466.210938 0)"/>
      <use xlink:href="#DejaVuSans-20" transform="translate(529.589844 0)"/>
      <use xlink:href="#DejaVuSans-28" transform="translate(561.376953 0)"/>
      <use xlink:href="#DejaVuSans-61" transform="translate(600.390625 0)"/>
      <use xlink:href="#DejaVuSans-76" transform="translate(661.669922 0)"/>
      <use xlink:href="#DejaVuSans-67" transform="translate(720.849609 0)"/>
      <use xlink:href="#DejaVuSans-2191" transform="translate(784.326172 0)"/>
      <use xlink:href="#DejaVuSans-29" transform="translate(868.115234 0)"/>
     </g>
    </g>
    <g id="line2d_43">
     <path d="M 716.278125 416.713437 
L 726.278125 416.713437 
L 736.278125 416.713437 
" style="fill: none; stroke: #2ca02c; stroke-width: 2; stroke-linecap: square"/>
    </g>
    <g id="text_21">
     <!-- ranking (best↑) -->
     <g transform="translate(744.278125 420.213437) scale(0.1 -0.1)">
      <defs>
       <path id="DejaVuSans-6b" d="M 581 4863 
L 1159 4863 
L 1159 1991 
L 2875 3500 
L 3609 3500 
L 1753 1863 
L 3688 0 
L 2938 0 
L 1159 1709 
L 1159 0 
L 581 0 
L 581 4863 
z
" transform="scale(0.015625)"/>
      </defs>
      <use xlink:href="#DejaVuSans-72"/>
      <use xlink:href="#DejaVuSans-61" transform="translate(41.113281 0)"/>
      <use xlink:href="#DejaVuSans-6e" transform="translate(102.392578 0)"/>
      <use xlink:href="#DejaVuSans-6b" transform="translate(165.771484 0)"/>
      <use xlink:href="#DejaVuSans-69" transform="translate(223.681641 0)"/>
      <use xlink:href="#DejaVuSans-6e" transform="translate(251.464844 0)"/>
      <use xlink:href="#DejaVuSans-67" transform="translate(314.84375 0)"/>
      <use xlink:href="#DejaVuSans-20" transform="translate(378.320312 0)"/>
      <use xlink:href="#DejaVuSans-28" transform="translate(410.107422 0)"/>
      <use xlink:href="#DejaVuSans-62" transform="translate(449.121094 0)"/>
      <use xlink:href="#DejaVuSans-65" transform="translate(512.597656 0)"/>
      <use xlink:href="#DejaVuSans-73" transform="translate(574.121094 0)"/>
      <use xlink:href="#DejaVuSans-74" transform="translate(626.220703 0)"/>
      <use xlink:href="#DejaVuSans-2191" transform="translate(665.429688 0)"/>
      <use xlink:href="#DejaVuSans-29" transform="translate(749.21875 0)"/>
     </g>
    </g>
    <g id="line2d_44">
     <path d="M 716.278125 431.391562 
L 726.278125 431.391562 
L 736.278125 431.391562 
" style="fill: none; stroke-dasharray: 5.55,2.4; stroke-dashoffset: 0; stroke: #d62728; stroke-width: 1.5"/>
    </g>
    <g id="text_22">
     <!-- ranking (avg↑) -->
     <g transform="translate(744.278125 434.891562) scale(0.1 -0.1)">
      <use xlink:href="#DejaVuSans-72"/>
      <use xlink:href="#DejaVuSans-61" transform="translate(41.113281 0)"/>
      <use xlink:href="#DejaVuSans-6e" transform="translate(102.392578 0)"/>
      <use xlink:href="#DejaVuSans-6b" transform="translate(165.771484 0)"/>
      <use xlink:href="#DejaVuSans-69" transform="translate(223.681641 0)"/>
      <use xlink:href="#DejaVuSans-6e" transform="translate(251.464844 0)"/>
      <use xlink:href="#DejaVuSans-67" transform="translate(314.84375 0)"/>
      <use xlink:href="#DejaVuSans-20" transform="translate(378.320312 0)"/>
      <use xlink:href="#DejaVuSans-28" transform="translate(410.107422 0)"/>
      <use xlink:href="#DejaVuSans-61" transform="translate(449.121094 0)"/>
      <use xlink:href="#DejaVuSans-76" transform="translate(510.400391 0)"/>
      <use xlink:href="#DejaVuSans-67" transform="translate(569.580078 0)"/>
      <use xlink:href="#DejaVuSans-2191" transform="translate(633.056641 0)"/>
      <use xlink:href="#DejaVuSans-29" transform="translate(716.845703 0)"/>
     </g>
    </g>
    <g id="line2d_45">
     <path d="M 716.278125 446.069687 
L 726.278125 446.069687 
L 736.278125 446.069687 
" style="fill: none; stroke: #9467bd; stroke-width: 2; stroke-linecap: square"/>
    </g>
    <g id="text_23">
     <!-- roulette (best↑) -->
     <g transform="translate(744.278125 449.569687) scale(0.1 -0.1)">
      <defs>
       <path id="DejaVuSans-75" d="M 544 1381 
L 544 3500 
L 1119 3500 
L 1119 1403 
Q 1119 906 1312 657 
Q 1506 409 1894 409 
Q 2359 409 2629 706 
Q 2900 1003 2900 1516 
L 2900 3500 
L 3475 3500 
L 3475 0 
L 2900 0 
L 2900 538 
Q 2691 219 2414 64 
Q 2138 -91 1772 -91 
Q 1169 -91 856 284 
Q 544 659 544 1381 
z
M 1991 3584 
L 1991 3584 
z
" transform="scale(0.015625)"/>
      </defs>
      <use xlink:href="#DejaVuSans-72"/>
      <use xlink:href="#DejaVuSans-6f" transform="translate(38.863281 0)"/>
      <use xlink:href="#DejaVuSans-75" transform="translate(100.044922 0)"/>
      <use xlink:href="#DejaVuSans-6c" transform="translate(163.423828 0)"/>
      <use xlink:href="#DejaVuSans-65" transform="translate(191.207031 0)"/>
      <use xlink:href="#DejaVuSans-74" transform="translate(252.730469 0)"/>
      <use xlink:href="#DejaVuSans-74" transform="translate(291.939453 0)"/>
      <use xlink:href="#DejaVuSans-65" transform="translate(331.148438 0)"/>
      <use xlink:href="#DejaVuSans-20" transform="translate(392.671875 0)"/>
      <use xlink:href="#DejaVuSans-28" transform="translate(424.458984 0)"/>
      <use xlink:href="#DejaVuSans-62" transform="translate(463.472656 0)"/>
      <use xlink:href="#DejaVuSans-65" transform="translate(526.949219 0)"/>
      <use xlink:href="#DejaVuSans-73" transform="translate(588.472656 0)"/>
      <use xlink:href="#DejaVuSans-74" transform="translate(640.572266 0)"/>
      <use xlink:href="#DejaVuSans-2191" transform="translate(679.78125 0)"/>
      <use xlink:href="#DejaVuSans-29" transform="translate(763.570312 0)"/>
     </g>
    </g>
    <g id="line2d_46">
     <path d="M 716.278125 460.747813 
L 726.278125 460.747813 
L 736.278125 460.747813 
" style="fill: none; stroke-dasharray: 5.55,2.4; stroke-dashoffset: 0; stroke: #8c564b; stroke-width: 1.5"/>
    </g>
    <g id="text_24">
     <!-- roulette (avg↑) -->
     <g transform="translate(744.278125 464.247813) scale(0.1 -0.1)">
      <use xlink:href="#DejaVuSans-72"/>
      <use xlink:href="#DejaVuSans-6f" transform="translate(38.863281 0)"/>
      <use xlink:href="#DejaVuSans-75" transform="translate(100.044922 0)"/>
      <use xlink:href="#DejaVuSans-6c" transform="translate(163.423828 0)"/>
      <use xlink:href="#DejaVuSans-65" transform="translate(191.207031 0)"/>
      <use xlink:href="#DejaVuSans-74" transform="translate(252.730469 0)"/>
      <use xlink:href="#DejaVuSans-74" transform="translate(291.939453 0)"/>
      <use xlink:href="#DejaVuSans-65" transform="translate(331.148438 0)"/>
      <use xlink:href="#DejaVuSans-20" transform="translate(392.671875 0)"/>
      <use xlink:href="#DejaVuSans-28" transform="translate(424.458984 0)"/>
      <use xlink:href="#DejaVuSans-61" transform="translate(463.472656 0)"/>
      <use xlink:href="#DejaVuSans-76" transform="translate(524.751953 0)"/>
      <use xlink:href="#DejaVuSans-67" transform="translate(583.931641 0)"/>
      <use xlink:href="#DejaVuSans-2191" transform="translate(647.408203 0)"/>
      <use xlink:href="#DejaVuSans-29" transform="translate(731.197266 0)"/>
     </g>
    </g>
    <g id="line2d_47">
     <path d="M 716.278125 475.425937 
L 726.278125 475.425937 
L 736.278125 475.425937 
" style="fill: none; stroke: #e377c2; stroke-width: 2; stroke-linecap: square"/>
    </g>
    <g id="text_25">
     <!-- tournament (best↑) -->
     <g transform="translate(744.278125 478.925937) scale(0.1 -0.1)">
      <use xlink:href="#DejaVuSans-74"/>
      <use xlink:href="#DejaVuSans-6f" transform="translate(39.208984 0)"/>
      <use xlink:href="#DejaVuSans-75" transform="translate(100.390625 0)"/>
      <use xlink:href="#DejaVuSans-72" transform="translate(163.769531 0)"/>
      <use xlink:href="#DejaVuSans-6e" transform="translate(203.132812 0)"/>
      <use xlink:href="#DejaVuSans-61" transform="translate(266.511719 0)"/>
      <use xlink:href="#DejaVuSans-6d" transform="translate(327.791016 0)"/>
      <use xlink:href="#DejaVuSans-65" transform="translate(425.203125 0)"/>
      <use xlink:href="#DejaVuSans-6e" transform="translate(486.726562 0)"/>
      <use xlink:href="#DejaVuSans-74" transform="translate(550.105469 0)"/>
      <use xlink:href="#DejaVuSans-20" transform="translate(589.314453 0)"/>
      <use xlink:href="#DejaVuSans-28" transform="translate(621.101562 0)"/>
      <use xlink:href="#DejaVuSans-62" transform="translate(660.115234 0)"/>
      <use xlink:href="#DejaVuSans-65" transform="translate(723.591797 0)"/>
      <use xlink:href="#DejaVuSans-73" transform="translate(785.115234 0)"/>
      <use xlink:href="#DejaVuSans-74" transform="translate(837.214844 0)"/>
      <use xlink:href="#DejaVuSans-2191" transform="translate(876.423828 0)"/>
      <use xlink:href="#DejaVuSans-29" transform="translate(960.212891 0)"/>
     </g>
    </g>
    <g id="line2d_48">
     <path d="M 716.278125 490.104062 
L 726.278125 490.104062 
L 736.278125 490.104062 
" style="fill: none; stroke-dasharray: 5.55,2.4; stroke-dashoffset: 0; stroke: #7f7f7f; stroke-width: 1.5"/>
    </g>
    <g id="text_26">
     <!-- tournament (avg↑) -->
     <g transform="translate(744.278125 493.604062) scale(0.1 -0.1)">
      <use xlink:href="#DejaVuSans-74"/>
      <use xlink:href="#DejaVuSans-6f" transform="translate(39.208984 0)"/>
      <use xlink:href="#DejaVuSans-75" transform="translate(100.390625 0)"/>
      <use xlink:href="#DejaVuSans-72" transform="translate(163.769531 0)"/>
      <use xlink:href="#DejaVuSans-6e" transform="translate(203.132812 0)"/>
      <use xlink:href="#DejaVuSans-61" transform="translate(266.511719 0)"/>
      <use xlink:href="#DejaVuSans-6d" transform="translate(327.791016 0)"/>
      <use xlink:href="#DejaVuSans-65" transform="translate(425.203125 0)"/>
      <use xlink:href="#DejaVuSans-6e" transform="translate(486.726562 0)"/>
      <use xlink:href="#DejaVuSans-74" transform="translate(550.105469 0)"/>
      <use xlink:href="#DejaVuSans-20" transform="translate(589.314453 0)"/>
      <use xlink:href="#DejaVuSans-28" transform="translate(621.101562 0)"/>
      <use xlink:href="#DejaVuSans-61" transform="translate(660.115234 0)"/>
      <use xlink:href="#DejaVuSans-76" transform="translate(721.394531 0)"/>
      <use xlink:href="#DejaVuSans-67" transform="translate(780.574219 0)"/>
      <use xlink:href="#DejaVuSans-2191" transform="translate(844.050781 0)"/>
      <use xlink:href="#DejaVuSans-29" transform="translate(927.839844 0)"/>
     </g>
    </g>
    <g id="line2d_49">
     <path d="M 716.278125 504.782187 
L 726.278125 504.782187 
L 736.278125 504.782187 
" style="fill: none; stroke: #bcbd22; stroke-width: 2; stroke-linecap: square"/>
    </g>
    <g id="text_27">
     <!-- universal (best↑) -->
     <g transform="translate(744.278125 508.282187) scale(0.1 -0.1)">
      <use xlink:href="#DejaVuSans-75"/>
      <use xlink:href="#DejaVuSans-6e" transform="translate(63.378906 0)"/>
      <use xlink:href="#DejaVuSans-69" transform="translate(126.757812 0)"/>
      <use xlink:href="#DejaVuSans-76" transform="translate(154.541016 0)"/>
      <use xlink:href="#DejaVuSans-65" transform="translate(213.720703 0)"/>
      <use xlink:href="#DejaVuSans-72" transform="translate(275.244141 0)"/>
      <use xlink:href="#DejaVuSans-73" transform="translate(316.357422 0)"/>
      <use xlink:href="#DejaVuSans-61" transform="translate(368.457031 0)"/>
      <use xlink:href="#DejaVuSans-6c" transform="translate(429.736328 0)"/>
      <use xlink:href="#DejaVuSans-20" transform="translate(457.519531 0)"/>
      <use xlink:href="#DejaVuSans-28" transform="translate(489.306641 0)"/>
      <use xlink:href="#DejaVuSans-62" transform="translate(528.320312 0)"/>
      <use xlink:href="#DejaVuSans-65" transform="translate(591.796875 0)"/>
      <use xlink:href="#DejaVuSans-73" transform="translate(653.320312 0)"/>
      <use xlink:href="#DejaVuSans-74" transform="translate(705.419922 0)"/>
      <use xlink:href="#DejaVuSans-2191" transform="translate(744.628906 0)"/>
      <use xlink:href="#DejaVuSans-29" transform="translate(828.417969 0)"/>
     </g>
    </g>
    <g id="line2d_50">
     <path d="M 716.278125 519.460312 
L 726.278125 519.460312 
L 736.278125 519.460312 
" style="fill: none; stroke-dasharray: 5.55,2.4; stroke-dashoffset: 0; stroke: #17becf; stroke-width: 1.5"/>
    </g>
    <g id="text_28">
     <!-- universal (avg↑) -->
     <g transform="translate(744.278125 522.960312) scale(0.1 -0.1)">
      <use xlink:href="#DejaVuSans-75"/>
      <use xlink:href="#DejaVuSans-6e" transform="translate(63.378906 0)"/>
      <use xlink:href="#DejaVuSans-69" transform="translate(126.757812 0)"/>
      <use xlink:href="#DejaVuSans-76" transform="translate(154.541016 0)"/>
      <use xlink:href="#DejaVuSans-65" transform="translate(213.720703 0)"/>
      <use xlink:href="#DejaVuSans-72" transform="translate(275.244141 0)"/>
      <use xlink:href="#DejaVuSans-73" transform="translate(316.357422 0)"/>
      <use xlink:href="#DejaVuSans-61" transform="translate(368.457031 0)"/>
      <use xlink:href="#DejaVuSans-6c" transform="translate(429.736328 0)"/>
      <use xlink:href="#DejaVuSans-20" transform="translate(457.519531 0)"/>
      <use xlink:href="#DejaVuSans-28" transform="translate(489.306641 0)"/>
      <use xlink:href="#DejaVuSans-61" transform="translate(528.320312 0)"/>
      <use xlink:href="#DejaVuSans-76" transform="translate(589.599609 0)"/>
      <use xlink:href="#DejaVuSans-67" transform="translate(648.779297 0)"/>
      <use xlink:href="#DejaVuSans-2191" transform="translate(712.255859 0)"/>
      <use xlink:href="#DejaVuSans-29" transform="translate(796.044922 0)"/>
     </g>
    </g>
   </g>
  </g>
 </g>
 <defs>
  <clipPath id="pf9aa2a211a">
   <rect x="47.765" y="26.16" width="805.435" height="507.88"/>
  </clipPath>
 </defs>
</svg>
