<?xml version="1.0" encoding="utf-8" standalone="no"?>
<!DOCTYPE svg PUBLIC "-//W3C//DTD SVG 1.1//EN"
  "http://www.w3.org/Graphics/SVG/1.1/DTD/svg11.dtd">
<svg xmlns:xlink="http://www.w3.org/1999/xlink" width="864pt" height="576pt" viewBox="0 0 864 576" xmlns="http://www.w3.org/2000/svg" version="1.1">
 <metadata>
  <rdf:RDF xmlns:dc="http://purl.org/dc/elements/1.1/" xmlns:cc="http://creativecommons.org/ns#" xmlns:rdf="http://www.w3.org/1999/02/22-rdf-syntax-ns#">
   <cc:Work>
    <dc:type rdf:resource="http://purl.org/dc/dcmitype/StillImage"/>
    <dc:date>2025-04-15T14:35:30.387480</dc:date>
    <dc:format>image/svg+xml</dc:format>
    <dc:creator>
     <cc:Agent>
      <dc:title>Matplotlib v3.10.0, https://matplotlib.org/</dc:title>
     </cc:Agent>
    </dc:creator>
   </cc:Work>
  </rdf:RDF>
 </metadata>
 <defs>
  <style type="text/css">*{stroke-linejoin: round; stroke-linecap: butt}</style>
 </defs>
 <g id="figure_1">
  <g id="patch_1">
   <path d="M 0 576 
L 864 576 
L 864 0 
L 0 0 
z
" style="fill: #ffffff"/>
  </g>
  <g id="axes_1">
   <g id="patch_2">
    <path d="M 44.57 534.04 
L 853.2 534.04 
L 853.2 26.16 
L 44.57 26.16 
z
" style="fill: #ffffff"/>
   </g>
   <g id="FillBetweenPolyCollection_1">
    <path d="M 81.325909 467.669505 
L 81.325909 495.219265 
L 95.739991 484.165611 
L 110.154073 474.891806 
L 124.568155 468.776202 
L 138.982237 462.833931 
L 153.396319 455.013228 
L 167.810401 449.108621 
L 182.224483 443.856222 
L 196.638565 440.514068 
L 211.052647 436.981153 
L 225.466729 430.975365 
L 239.880811 422.258331 
L 254.294893 409.589425 
L 268.708975 407.293711 
L 283.123057 401.231305 
L 297.537139 397.054429 
L 311.951221 396.378228 
L 326.365303 395.246806 
L 340.779385 387.058681 
L 355.193467 381.488325 
L 369.607549 370.745768 
L 384.021631 366.091771 
L 398.435713 361.174616 
L 412.849795 347.654683 
L 427.263877 337.159907 
L 441.677959 326.048767 
L 456.092041 316.808997 
L 470.506123 313.700288 
L 484.920205 306.210974 
L 499.334287 303.783988 
L 513.748369 294.096173 
L 528.162451 292.407616 
L 542.576533 291.032571 
L 556.990615 281.38231 
L 571.404697 276.637651 
L 585.818779 273.903434 
L 600.232861 254.869551 
L 614.646943 252.252191 
L 629.061025 238.720555 
L 643.475107 222.470975 
L 657.889189 216.394288 
L 672.303271 204.11985 
L 686.717353 200.691567 
L 701.131435 198.510098 
L 715.545517 165.732894 
L 729.959599 158.994736 
L 744.373681 160.087358 
L 758.787763 156.01176 
L 758.787763 49.245455 
L 758.787763 49.245455 
L 744.373681 55.819247 
L 729.959599 72.161326 
L 715.545517 85.980414 
L 701.131435 84.75381 
L 686.717353 91.496129 
L 672.303271 110.65859 
L 657.889189 116.97869 
L 643.475107 148.016481 
L 629.061025 172.134596 
L 614.646943 179.333635 
L 600.232861 189.171229 
L 585.818779 196.928856 
L 571.404697 205.998101 
L 556.990615 212.532194 
L 542.576533 222.396269 
L 528.162451 240.192671 
L 513.748369 245.394187 
L 499.334287 252.488336 
L 484.920205 255.973798 
L 470.506123 261.611165 
L 456.092041 270.205056 
L 441.677959 277.325959 
L 427.263877 281.556528 
L 412.849795 292.221793 
L 398.435713 301.843033 
L 384.021631 308.408404 
L 369.607549 315.268129 
L 355.193467 327.039127 
L 340.779385 331.893324 
L 326.365303 336.941042 
L 311.951221 351.015509 
L 297.537139 369.178574 
L 283.123057 376.34071 
L 268.708975 381.210369 
L 254.294893 384.399409 
L 239.880811 389.454197 
L 225.466729 392.67416 
L 211.052647 398.697785 
L 196.638565 408.019851 
L 182.224483 419.066638 
L 167.810401 426.683778 
L 153.396319 431.738938 
L 138.982237 438.336304 
L 124.568155 447.409795 
L 110.154073 453.246087 
L 95.739991 456.196192 
L 81.325909 467.669505 
z
" clip-path="url(#p14c319a694)" style="fill: #1f77b4; fill-opacity: 0.2"/>
   </g>
   <g id="FillBetweenPolyCollection_2">
    <path d="M 81.325909 505.365778 
L 81.325909 510.736662 
L 95.739991 500.707774 
L 110.154073 491.414743 
L 124.568155 483.83602 
L 138.982237 473.779029 
L 153.396319 466.823287 
L 167.810401 460.668911 
L 182.224483 452.608412 
L 196.638565 447.698321 
L 211.052647 443.191637 
L 225.466729 438.595832 
L 239.880811 434.15973 
L 254.294893 427.701693 
L 268.708975 419.144008 
L 283.123057 412.979157 
L 297.537139 405.256996 
L 311.951221 401.104528 
L 326.365303 398.824182 
L 340.779385 395.556276 
L 355.193467 391.187665 
L 369.607549 385.00414 
L 384.021631 379.234691 
L 398.435713 370.039253 
L 412.849795 365.446849 
L 427.263877 358.180258 
L 441.677959 346.818835 
L 456.092041 336.403716 
L 470.506123 328.560386 
L 484.920205 319.181719 
L 499.334287 313.39968 
L 513.748369 309.10159 
L 528.162451 302.558691 
L 542.576533 300.104577 
L 556.990615 295.717688 
L 571.404697 288.596242 
L 585.818779 283.891731 
L 600.232861 279.410301 
L 614.646943 272.744462 
L 629.061025 258.675876 
L 643.475107 243.886771 
L 657.889189 233.260159 
L 672.303271 224.701695 
L 686.717353 216.320961 
L 701.131435 209.914354 
L 715.545517 200.609463 
L 729.959599 211.20319 
L 744.373681 185.561107 
L 758.787763 175.551502 
L 758.787763 66.110856 
L 758.787763 66.110856 
L 744.373681 76.35799 
L 729.959599 91.2881 
L 715.545517 105.10447 
L 701.131435 108.163034 
L 686.717353 131.467235 
L 672.303271 147.852592 
L 657.889189 161.103652 
L 643.475107 170.635881 
L 629.061025 190.101254 
L 614.646943 196.526061 
L 600.232861 204.457639 
L 585.818779 214.808371 
L 571.404697 224.006756 
L 556.990615 235.338868 
L 542.576533 241.461237 
L 528.162451 253.419999 
L 513.748369 259.412754 
L 499.334287 264.964053 
L 484.920205 272.313485 
L 470.506123 277.359891 
L 456.092041 283.958938 
L 441.677959 294.542273 
L 427.263877 301.87372 
L 412.849795 311.714154 
L 398.435713 318.8012 
L 384.021631 326.827695 
L 369.607549 333.989499 
L 355.193467 338.428876 
L 340.779385 349.55427 
L 326.365303 363.427881 
L 311.951221 372.261654 
L 297.537139 379.378668 
L 283.123057 384.823879 
L 268.708975 388.616299 
L 254.294893 393.139142 
L 239.880811 399.179722 
L 225.466729 409.81507 
L 211.052647 418.948737 
L 196.638565 424.896744 
L 182.224483 431.025091 
L 167.810401 437.283993 
L 153.396319 444.233218 
L 138.982237 450.222875 
L 124.568155 459.085027 
L 110.154073 472.186153 
L 95.739991 486.939447 
L 81.325909 505.365778 
z
" clip-path="url(#p14c319a694)" style="fill: #ff7f0e; fill-opacity: 0.1"/>
   </g>
   <g id="FillBetweenPolyCollection_3">
    <path d="M 81.325909 457.379184 
L 81.325909 480.07971 
L 95.739991 476.55168 
L 110.154073 456.327605 
L 124.568155 447.585677 
L 138.982237 443.212738 
L 153.396319 428.677511 
L 167.810401 423.022359 
L 182.224483 417.006894 
L 196.638565 411.519089 
L 211.052647 408.70068 
L 225.466729 401.165574 
L 239.880811 397.930085 
L 254.294893 387.041088 
L 268.708975 380.126241 
L 283.123057 372.115877 
L 297.537139 366.023369 
L 311.951221 362.272332 
L 326.365303 366.962427 
L 340.779385 364.416658 
L 355.193467 354.340827 
L 369.607549 352.324705 
L 384.021631 345.013698 
L 398.435713 352.00129 
L 412.849795 350.997494 
L 427.263877 340.981849 
L 441.677959 338.129976 
L 456.092041 328.285066 
L 470.506123 329.012354 
L 484.920205 326.561388 
L 499.334287 318.327486 
L 513.748369 317.368363 
L 528.162451 313.22463 
L 542.576533 310.344936 
L 556.990615 336.675569 
L 571.404697 327.167488 
L 585.818779 317.140353 
L 600.232861 310.266275 
L 614.646943 308.382352 
L 629.061025 293.640906 
L 643.475107 292.365465 
L 657.889189 282.971877 
L 672.303271 278.849174 
L 672.303271 96.136851 
L 672.303271 96.136851 
L 657.889189 98.62695 
L 643.475107 101.376532 
L 629.061025 107.193545 
L 614.646943 109.50122 
L 600.232861 112.87892 
L 585.818779 119.562365 
L 571.404697 125.467992 
L 556.990615 131.666285 
L 542.576533 151.040303 
L 528.162451 162.178959 
L 513.748369 168.064245 
L 499.334287 176.776363 
L 484.920205 180.536449 
L 470.506123 184.228374 
L 456.092041 191.889222 
L 441.677959 197.399576 
L 427.263877 204.428246 
L 412.849795 208.787787 
L 398.435713 218.363393 
L 384.021631 228.685499 
L 369.607549 231.140688 
L 355.193467 237.069229 
L 340.779385 243.136618 
L 326.365303 260.061829 
L 311.951221 268.414005 
L 297.537139 274.53846 
L 283.123057 284.509372 
L 268.708975 297.421612 
L 254.294893 314.783806 
L 239.880811 329.03701 
L 225.466729 337.183028 
L 211.052647 344.668388 
L 196.638565 349.221342 
L 182.224483 354.476479 
L 167.810401 361.28308 
L 153.396319 374.971101 
L 138.982237 392.177401 
L 124.568155 409.222476 
L 110.154073 416.052246 
L 95.739991 424.850454 
L 81.325909 457.379184 
z
" clip-path="url(#p14c319a694)" style="fill: #2ca02c; fill-opacity: 0.2"/>
   </g>
   <g id="FillBetweenPolyCollection_4">
    <path d="M 81.325909 498.088192 
L 81.325909 510.954545 
L 95.739991 490.120495 
L 110.154073 480.637212 
L 124.568155 470.523355 
L 138.982237 457.140961 
L 153.396319 447.80436 
L 167.810401 439.935825 
L 182.224483 429.531284 
L 196.638565 422.12764 
L 211.052647 416.971449 
L 225.466729 412.387929 
L 239.880811 407.957511 
L 254.294893 403.970414 
L 268.708975 396.43452 
L 283.123057 387.089602 
L 297.537139 378.613538 
L 311.951221 371.649265 
L 326.365303 376.590272 
L 340.779385 372.707891 
L 355.193467 366.873997 
L 369.607549 362.272424 
L 384.021631 357.828704 
L 398.435713 369.5951 
L 412.849795 365.876694 
L 427.263877 357.797079 
L 441.677959 350.306014 
L 456.092041 344.927157 
L 470.506123 339.989085 
L 484.920205 333.450482 
L 499.334287 328.910656 
L 513.748369 326.420134 
L 528.162451 321.479278 
L 542.576533 315.869758 
L 556.990615 351.497871 
L 571.404697 349.705903 
L 585.818779 343.053132 
L 600.232861 327.482587 
L 614.646943 320.561253 
L 629.061025 314.713617 
L 643.475107 307.632233 
L 657.889189 301.275184 
L 672.303271 290.951554 
L 672.303271 105.212088 
L 672.303271 105.212088 
L 657.889189 109.893519 
L 643.475107 113.462597 
L 629.061025 117.944169 
L 614.646943 121.14532 
L 600.232861 127.189732 
L 585.818779 130.206834 
L 571.404697 137.622315 
L 556.990615 148.830022 
L 542.576533 171.278179 
L 528.162451 176.931348 
L 513.748369 182.149746 
L 499.334287 187.632982 
L 484.920205 192.525756 
L 470.506123 199.57835 
L 456.092041 209.147606 
L 441.677959 214.504073 
L 427.263877 217.129444 
L 412.849795 223.434015 
L 398.435713 228.118725 
L 384.021631 237.129593 
L 369.607549 246.530097 
L 355.193467 255.959646 
L 340.779385 268.058308 
L 326.365303 277.594567 
L 311.951221 285.110674 
L 297.537139 297.491284 
L 283.123057 312.551039 
L 268.708975 326.574423 
L 254.294893 334.668391 
L 239.880811 343.455447 
L 225.466729 350.709239 
L 211.052647 356.010935 
L 196.638565 363.603445 
L 182.224483 375.646295 
L 167.810401 389.813734 
L 153.396319 402.381863 
L 138.982237 414.135056 
L 124.568155 430.675418 
L 110.154073 451.205864 
L 95.739991 476.769708 
L 81.325909 498.088192 
z
" clip-path="url(#p14c319a694)" style="fill: #d62728; fill-opacity: 0.1"/>
   </g>
   <g id="FillBetweenPolyCollection_5">
    <path d="M 81.325909 454.376718 
L 81.325909 467.828927 
L 95.739991 460.617184 
L 110.154073 453.259368 
L 124.568155 444.791598 
L 138.982237 434.762087 
L 153.396319 426.5249 
L 167.810401 423.79944 
L 182.224483 413.17545 
L 196.638565 410.538943 
L 211.052647 397.667914 
L 225.466729 391.881019 
L 239.880811 382.067741 
L 254.294893 373.33567 
L 268.708975 366.095829 
L 283.123057 361.870721 
L 297.537139 355.441979 
L 311.951221 347.865626 
L 326.365303 336.855245 
L 340.779385 321.302754 
L 355.193467 319.126914 
L 369.607549 309.006619 
L 384.021631 304.618954 
L 398.435713 297.693217 
L 412.849795 295.381674 
L 427.263877 286.676532 
L 441.677959 278.773614 
L 456.092041 279.426231 
L 470.506123 270.59285 
L 484.920205 267.075269 
L 499.334287 261.562431 
L 513.748369 256.01362 
L 528.162451 249.807638 
L 542.576533 244.829064 
L 556.990615 239.675529 
L 571.404697 230.50852 
L 585.818779 224.455483 
L 600.232861 224.500212 
L 614.646943 219.518381 
L 629.061025 180.650734 
L 643.475107 162.062955 
L 657.889189 160.769405 
L 657.889189 86.674115 
L 657.889189 86.674115 
L 643.475107 95.990494 
L 629.061025 97.489535 
L 614.646943 117.573248 
L 600.232861 120.947925 
L 585.818779 135.118017 
L 571.404697 148.220992 
L 556.990615 157.994837 
L 542.576533 163.587335 
L 528.162451 182.779721 
L 513.748369 183.106067 
L 499.334287 199.88279 
L 484.920205 208.023691 
L 470.506123 220.421604 
L 456.092041 219.915778 
L 441.677959 232.029694 
L 427.263877 246.489601 
L 412.849795 255.8441 
L 398.435713 261.822728 
L 384.021631 270.256552 
L 369.607549 277.090646 
L 355.193467 287.769967 
L 340.779385 295.30976 
L 326.365303 301.697853 
L 311.951221 311.174715 
L 297.537139 313.178285 
L 283.123057 320.106186 
L 268.708975 330.982051 
L 254.294893 333.901899 
L 239.880811 354.783545 
L 225.466729 361.759799 
L 211.052647 366.048601 
L 196.638565 381.30734 
L 182.224483 395.689064 
L 167.810401 398.072646 
L 153.396319 406.935046 
L 138.982237 417.307463 
L 124.568155 426.859515 
L 110.154073 434.197652 
L 95.739991 441.983809 
L 81.325909 454.376718 
z
" clip-path="url(#p14c319a694)" style="fill: #9467bd; fill-opacity: 0.2"/>
   </g>
   <g id="FillBetweenPolyCollection_6">
    <path d="M 81.325909 493.216066 
L 81.325909 507.587983 
L 95.739991 489.337792 
L 110.154073 469.239555 
L 124.568155 458.382457 
L 138.982237 451.460336 
L 153.396319 442.585491 
L 167.810401 434.965371 
L 182.224483 426.646992 
L 196.638565 418.801912 
L 211.052647 414.015739 
L 225.466729 405.732192 
L 239.880811 397.879303 
L 254.294893 389.004876 
L 268.708975 379.808884 
L 283.123057 372.793263 
L 297.537139 366.192774 
L 311.951221 362.062063 
L 326.365303 355.620903 
L 340.779385 344.664063 
L 355.193467 336.217519 
L 369.607549 324.511697 
L 384.021631 318.24795 
L 398.435713 311.558139 
L 412.849795 305.670218 
L 427.263877 301.529663 
L 441.677959 296.425302 
L 456.092041 291.240515 
L 470.506123 286.017707 
L 484.920205 280.04484 
L 499.334287 273.260289 
L 513.748369 268.095994 
L 528.162451 260.112898 
L 542.576533 256.497623 
L 556.990615 251.114384 
L 571.404697 245.735163 
L 585.818779 239.602064 
L 600.232861 235.488492 
L 614.646943 226.793956 
L 629.061025 188.569945 
L 643.475107 181.518015 
L 657.889189 181.266072 
L 657.889189 101.286075 
L 657.889189 101.286075 
L 643.475107 112.797632 
L 629.061025 118.223483 
L 614.646943 143.171767 
L 600.232861 146.8069 
L 585.818779 159.655007 
L 571.404697 170.795204 
L 556.990615 182.938032 
L 542.576533 191.285733 
L 528.162451 200.856408 
L 513.748369 212.527061 
L 499.334287 219.691741 
L 484.920205 225.409092 
L 470.506123 236.168699 
L 456.092041 248.485517 
L 441.677959 251.412027 
L 427.263877 258.252682 
L 412.849795 271.254498 
L 398.435713 276.521933 
L 384.021631 286.20687 
L 369.607549 295.225341 
L 355.193467 301.089732 
L 340.779385 309.403884 
L 326.365303 314.074797 
L 311.951221 319.910839 
L 297.537139 329.886698 
L 283.123057 342.700713 
L 268.708975 351.523279 
L 254.294893 360.10704 
L 239.880811 368.928447 
L 225.466729 376.870287 
L 211.052647 386.400402 
L 196.638565 398.886942 
L 182.224483 408.555288 
L 167.810401 416.520677 
L 153.396319 423.897801 
L 138.982237 432.802285 
L 124.568155 442.671367 
L 110.154073 454.442775 
L 95.739991 471.516542 
L 81.325909 493.216066 
z
" clip-path="url(#p14c319a694)" style="fill: #8c564b; fill-opacity: 0.1"/>
   </g>
   <g id="matplotlib.axis_1">
    <g id="xtick_1">
     <g id="line2d_1">
      <path d="M 81.325909 534.04 
L 81.325909 26.16 
" clip-path="url(#p14c319a694)" style="fill: none; stroke: #b0b0b0; stroke-width: 0.8; stroke-linecap: square"/>
     </g>
     <g id="line2d_2">
      <defs>
       <path id="m0a1ce3ac94" d="M 0 0 
L 0 3.5 
" style="stroke: #000000; stroke-width: 0.8"/>
      </defs>
      <g>
       <use xlink:href="#m0a1ce3ac94" x="81.325909" y="534.04" style="stroke: #000000; stroke-width: 0.8"/>
      </g>
     </g>
     <g id="text_1">
      <!-- 0 -->
      <g transform="translate(78.144659 548.638438) scale(0.1 -0.1)">
       <defs>
        <path id="DejaVuSans-30" d="M 2034 4250 
Q 1547 4250 1301 3770 
Q 1056 3291 1056 2328 
Q 1056 1369 1301 889 
Q 1547 409 2034 409 
Q 2525 409 2770 889 
Q 3016 1369 3016 2328 
Q 3016 3291 2770 3770 
Q 2525 4250 2034 4250 
z
M 2034 4750 
Q 2819 4750 3233 4129 
Q 3647 3509 3647 2328 
Q 3647 1150 3233 529 
Q 2819 -91 2034 -91 
Q 1250 -91 836 529 
Q 422 1150 422 2328 
Q 422 3509 836 4129 
Q 1250 4750 2034 4750 
z
" transform="scale(0.015625)"/>
       </defs>
       <use xlink:href="#DejaVuSans-30"/>
      </g>
     </g>
    </g>
    <g id="xtick_2">
     <g id="line2d_3">
      <path d="M 225.466729 534.04 
L 225.466729 26.16 
" clip-path="url(#p14c319a694)" style="fill: none; stroke: #b0b0b0; stroke-width: 0.8; stroke-linecap: square"/>
     </g>
     <g id="line2d_4">
      <g>
       <use xlink:href="#m0a1ce3ac94" x="225.466729" y="534.04" style="stroke: #000000; stroke-width: 0.8"/>
      </g>
     </g>
     <g id="text_2">
      <!-- 10 -->
      <g transform="translate(219.104229 548.638438) scale(0.1 -0.1)">
       <defs>
        <path id="DejaVuSans-31" d="M 794 531 
L 1825 531 
L 1825 4091 
L 703 3866 
L 703 4441 
L 1819 4666 
L 2450 4666 
L 2450 531 
L 3481 531 
L 3481 0 
L 794 0 
L 794 531 
z
" transform="scale(0.015625)"/>
       </defs>
       <use xlink:href="#DejaVuSans-31"/>
       <use xlink:href="#DejaVuSans-30" transform="translate(63.623047 0)"/>
      </g>
     </g>
    </g>
    <g id="xtick_3">
     <g id="line2d_5">
      <path d="M 369.607549 534.04 
L 369.607549 26.16 
" clip-path="url(#p14c319a694)" style="fill: none; stroke: #b0b0b0; stroke-width: 0.8; stroke-linecap: square"/>
     </g>
     <g id="line2d_6">
      <g>
       <use xlink:href="#m0a1ce3ac94" x="369.607549" y="534.04" style="stroke: #000000; stroke-width: 0.8"/>
      </g>
     </g>
     <g id="text_3">
      <!-- 20 -->
      <g transform="translate(363.245049 548.638438) scale(0.1 -0.1)">
       <defs>
        <path id="DejaVuSans-32" d="M 1228 531 
L 3431 531 
L 3431 0 
L 469 0 
L 469 531 
Q 828 903 1448 1529 
Q 2069 2156 2228 2338 
Q 2531 2678 2651 2914 
Q 2772 3150 2772 3378 
Q 2772 3750 2511 3984 
Q 2250 4219 1831 4219 
Q 1534 4219 1204 4116 
Q 875 4013 500 3803 
L 500 4441 
Q 881 4594 1212 4672 
Q 1544 4750 1819 4750 
Q 2544 4750 2975 4387 
Q 3406 4025 3406 3419 
Q 3406 3131 3298 2873 
Q 3191 2616 2906 2266 
Q 2828 2175 2409 1742 
Q 1991 1309 1228 531 
z
" transform="scale(0.015625)"/>
       </defs>
       <use xlink:href="#DejaVuSans-32"/>
       <use xlink:href="#DejaVuSans-30" transform="translate(63.623047 0)"/>
      </g>
     </g>
    </g>
    <g id="xtick_4">
     <g id="line2d_7">
      <path d="M 513.748369 534.04 
L 513.748369 26.16 
" clip-path="url(#p14c319a694)" style="fill: none; stroke: #b0b0b0; stroke-width: 0.8; stroke-linecap: square"/>
     </g>
     <g id="line2d_8">
      <g>
       <use xlink:href="#m0a1ce3ac94" x="513.748369" y="534.04" style="stroke: #000000; stroke-width: 0.8"/>
      </g>
     </g>
     <g id="text_4">
      <!-- 30 -->
      <g transform="translate(507.385869 548.638438) scale(0.1 -0.1)">
       <defs>
        <path id="DejaVuSans-33" d="M 2597 2516 
Q 3050 2419 3304 2112 
Q 3559 1806 3559 1356 
Q 3559 666 3084 287 
Q 2609 -91 1734 -91 
Q 1441 -91 1130 -33 
Q 819 25 488 141 
L 488 750 
Q 750 597 1062 519 
Q 1375 441 1716 441 
Q 2309 441 2620 675 
Q 2931 909 2931 1356 
Q 2931 1769 2642 2001 
Q 2353 2234 1838 2234 
L 1294 2234 
L 1294 2753 
L 1863 2753 
Q 2328 2753 2575 2939 
Q 2822 3125 2822 3475 
Q 2822 3834 2567 4026 
Q 2313 4219 1838 4219 
Q 1578 4219 1281 4162 
Q 984 4106 628 3988 
L 628 4550 
Q 988 4650 1302 4700 
Q 1616 4750 1894 4750 
Q 2613 4750 3031 4423 
Q 3450 4097 3450 3541 
Q 3450 3153 3228 2886 
Q 3006 2619 2597 2516 
z
" transform="scale(0.015625)"/>
       </defs>
       <use xlink:href="#DejaVuSans-33"/>
       <use xlink:href="#DejaVuSans-30" transform="translate(63.623047 0)"/>
      </g>
     </g>
    </g>
    <g id="xtick_5">
     <g id="line2d_9">
      <path d="M 657.889189 534.04 
L 657.889189 26.16 
" clip-path="url(#p14c319a694)" style="fill: none; stroke: #b0b0b0; stroke-width: 0.8; stroke-linecap: square"/>
     </g>
     <g id="line2d_10">
      <g>
       <use xlink:href="#m0a1ce3ac94" x="657.889189" y="534.04" style="stroke: #000000; stroke-width: 0.8"/>
      </g>
     </g>
     <g id="text_5">
      <!-- 40 -->
      <g transform="translate(651.526689 548.638438) scale(0.1 -0.1)">
       <defs>
        <path id="DejaVuSans-34" d="M 2419 4116 
L 825 1625 
L 2419 1625 
L 2419 4116 
z
M 2253 4666 
L 3047 4666 
L 3047 1625 
L 3713 1625 
L 3713 1100 
L 3047 1100 
L 3047 0 
L 2419 0 
L 2419 1100 
L 313 1100 
L 313 1709 
L 2253 4666 
z
" transform="scale(0.015625)"/>
       </defs>
       <use xlink:href="#DejaVuSans-34"/>
       <use xlink:href="#DejaVuSans-30" transform="translate(63.623047 0)"/>
      </g>
     </g>
    </g>
    <g id="xtick_6">
     <g id="line2d_11">
      <path d="M 802.030009 534.04 
L 802.030009 26.16 
" clip-path="url(#p14c319a694)" style="fill: none; stroke: #b0b0b0; stroke-width: 0.8; stroke-linecap: square"/>
     </g>
     <g id="line2d_12">
      <g>
       <use xlink:href="#m0a1ce3ac94" x="802.030009" y="534.04" style="stroke: #000000; stroke-width: 0.8"/>
      </g>
     </g>
     <g id="text_6">
      <!-- 50 -->
      <g transform="translate(795.667509 548.638438) scale(0.1 -0.1)">
       <defs>
        <path id="DejaVuSans-35" d="M 691 4666 
L 3169 4666 
L 3169 4134 
L 1269 4134 
L 1269 2991 
Q 1406 3038 1543 3061 
Q 1681 3084 1819 3084 
Q 2600 3084 3056 2656 
Q 3513 2228 3513 1497 
Q 3513 744 3044 326 
Q 2575 -91 1722 -91 
Q 1428 -91 1123 -41 
Q 819 9 494 109 
L 494 744 
Q 775 591 1075 516 
Q 1375 441 1709 441 
Q 2250 441 2565 725 
Q 2881 1009 2881 1497 
Q 2881 1984 2565 2268 
Q 2250 2553 1709 2553 
Q 1456 2553 1204 2497 
Q 953 2441 691 2322 
L 691 4666 
z
" transform="scale(0.015625)"/>
       </defs>
       <use xlink:href="#DejaVuSans-35"/>
       <use xlink:href="#DejaVuSans-30" transform="translate(63.623047 0)"/>
      </g>
     </g>
    </g>
    <g id="text_7">
     <!-- Generation -->
     <g transform="translate(420.992031 562.316562) scale(0.1 -0.1)">
      <defs>
       <path id="DejaVuSans-47" d="M 3809 666 
L 3809 1919 
L 2778 1919 
L 2778 2438 
L 4434 2438 
L 4434 434 
Q 4069 175 3628 42 
Q 3188 -91 2688 -91 
Q 1594 -91 976 548 
Q 359 1188 359 2328 
Q 359 3472 976 4111 
Q 1594 4750 2688 4750 
Q 3144 4750 3555 4637 
Q 3966 4525 4313 4306 
L 4313 3634 
Q 3963 3931 3569 4081 
Q 3175 4231 2741 4231 
Q 1884 4231 1454 3753 
Q 1025 3275 1025 2328 
Q 1025 1384 1454 906 
Q 1884 428 2741 428 
Q 3075 428 3337 486 
Q 3600 544 3809 666 
z
" transform="scale(0.015625)"/>
       <path id="DejaVuSans-65" d="M 3597 1894 
L 3597 1613 
L 953 1613 
Q 991 1019 1311 708 
Q 1631 397 2203 397 
Q 2534 397 2845 478 
Q 3156 559 3463 722 
L 3463 178 
Q 3153 47 2828 -22 
Q 2503 -91 2169 -91 
Q 1331 -91 842 396 
Q 353 884 353 1716 
Q 353 2575 817 3079 
Q 1281 3584 2069 3584 
Q 2775 3584 3186 3129 
Q 3597 2675 3597 1894 
z
M 3022 2063 
Q 3016 2534 2758 2815 
Q 2500 3097 2075 3097 
Q 1594 3097 1305 2825 
Q 1016 2553 972 2059 
L 3022 2063 
z
" transform="scale(0.015625)"/>
       <path id="DejaVuSans-6e" d="M 3513 2113 
L 3513 0 
L 2938 0 
L 2938 2094 
Q 2938 2591 2744 2837 
Q 2550 3084 2163 3084 
Q 1697 3084 1428 2787 
Q 1159 2491 1159 1978 
L 1159 0 
L 581 0 
L 581 3500 
L 1159 3500 
L 1159 2956 
Q 1366 3272 1645 3428 
Q 1925 3584 2291 3584 
Q 2894 3584 3203 3211 
Q 3513 2838 3513 2113 
z
" transform="scale(0.015625)"/>
       <path id="DejaVuSans-72" d="M 2631 2963 
Q 2534 3019 2420 3045 
Q 2306 3072 2169 3072 
Q 1681 3072 1420 2755 
Q 1159 2438 1159 1844 
L 1159 0 
L 581 0 
L 581 3500 
L 1159 3500 
L 1159 2956 
Q 1341 3275 1631 3429 
Q 1922 3584 2338 3584 
Q 2397 3584 2469 3576 
Q 2541 3569 2628 3553 
L 2631 2963 
z
" transform="scale(0.015625)"/>
       <path id="DejaVuSans-61" d="M 2194 1759 
Q 1497 1759 1228 1600 
Q 959 1441 959 1056 
Q 959 750 1161 570 
Q 1363 391 1709 391 
Q 2188 391 2477 730 
Q 2766 1069 2766 1631 
L 2766 1759 
L 2194 1759 
z
M 3341 1997 
L 3341 0 
L 2766 0 
L 2766 531 
Q 2569 213 2275 61 
Q 1981 -91 1556 -91 
Q 1019 -91 701 211 
Q 384 513 384 1019 
Q 384 1609 779 1909 
Q 1175 2209 1959 2209 
L 2766 2209 
L 2766 2266 
Q 2766 2663 2505 2880 
Q 2244 3097 1772 3097 
Q 1472 3097 1187 3025 
Q 903 2953 641 2809 
L 641 3341 
Q 956 3463 1253 3523 
Q 1550 3584 1831 3584 
Q 2591 3584 2966 3190 
Q 3341 2797 3341 1997 
z
" transform="scale(0.015625)"/>
       <path id="DejaVuSans-74" d="M 1172 4494 
L 1172 3500 
L 2356 3500 
L 2356 3053 
L 1172 3053 
L 1172 1153 
Q 1172 725 1289 603 
Q 1406 481 1766 481 
L 2356 481 
L 2356 0 
L 1766 0 
Q 1100 0 847 248 
Q 594 497 594 1153 
L 594 3053 
L 172 3053 
L 172 3500 
L 594 3500 
L 594 4494 
L 1172 4494 
z
" transform="scale(0.015625)"/>
       <path id="DejaVuSans-69" d="M 603 3500 
L 1178 3500 
L 1178 0 
L 603 0 
L 603 3500 
z
M 603 4863 
L 1178 4863 
L 1178 4134 
L 603 4134 
L 603 4863 
z
" transform="scale(0.015625)"/>
       <path id="DejaVuSans-6f" d="M 1959 3097 
Q 1497 3097 1228 2736 
Q 959 2375 959 1747 
Q 959 1119 1226 758 
Q 1494 397 1959 397 
Q 2419 397 2687 759 
Q 2956 1122 2956 1747 
Q 2956 2369 2687 2733 
Q 2419 3097 1959 3097 
z
M 1959 3584 
Q 2709 3584 3137 3096 
Q 3566 2609 3566 1747 
Q 3566 888 3137 398 
Q 2709 -91 1959 -91 
Q 1206 -91 779 398 
Q 353 888 353 1747 
Q 353 2609 779 3096 
Q 1206 3584 1959 3584 
z
" transform="scale(0.015625)"/>
      </defs>
      <use xlink:href="#DejaVuSans-47"/>
      <use xlink:href="#DejaVuSans-65" transform="translate(77.490234 0)"/>
      <use xlink:href="#DejaVuSans-6e" transform="translate(139.013672 0)"/>
      <use xlink:href="#DejaVuSans-65" transform="translate(202.392578 0)"/>
      <use xlink:href="#DejaVuSans-72" transform="translate(263.916016 0)"/>
      <use xlink:href="#DejaVuSans-61" transform="translate(305.029297 0)"/>
      <use xlink:href="#DejaVuSans-74" transform="translate(366.308594 0)"/>
      <use xlink:href="#DejaVuSans-69" transform="translate(405.517578 0)"/>
      <use xlink:href="#DejaVuSans-6f" transform="translate(433.300781 0)"/>
      <use xlink:href="#DejaVuSans-6e" transform="translate(494.482422 0)"/>
     </g>
    </g>
   </g>
   <g id="matplotlib.axis_2">
    <g id="ytick_1">
     <g id="line2d_13">
      <path d="M 44.57 463.258826 
L 853.2 463.258826 
" clip-path="url(#p14c319a694)" style="fill: none; stroke: #b0b0b0; stroke-width: 0.8; stroke-linecap: square"/>
     </g>
     <g id="line2d_14">
      <defs>
       <path id="ma9acdadf7d" d="M 0 0 
L -3.5 0 
" style="stroke: #000000; stroke-width: 0.8"/>
      </defs>
      <g>
       <use xlink:href="#ma9acdadf7d" x="44.57" y="463.258826" style="stroke: #000000; stroke-width: 0.8"/>
      </g>
     </g>
     <g id="text_8">
      <!-- 6 -->
      <g transform="translate(31.2075 467.058045) scale(0.1 -0.1)">
       <defs>
        <path id="DejaVuSans-36" d="M 2113 2584 
Q 1688 2584 1439 2293 
Q 1191 2003 1191 1497 
Q 1191 994 1439 701 
Q 1688 409 2113 409 
Q 2538 409 2786 701 
Q 3034 994 3034 1497 
Q 3034 2003 2786 2293 
Q 2538 2584 2113 2584 
z
M 3366 4563 
L 3366 3988 
Q 3128 4100 2886 4159 
Q 2644 4219 2406 4219 
Q 1781 4219 1451 3797 
Q 1122 3375 1075 2522 
Q 1259 2794 1537 2939 
Q 1816 3084 2150 3084 
Q 2853 3084 3261 2657 
Q 3669 2231 3669 1497 
Q 3669 778 3244 343 
Q 2819 -91 2113 -91 
Q 1303 -91 875 529 
Q 447 1150 447 2328 
Q 447 3434 972 4092 
Q 1497 4750 2381 4750 
Q 2619 4750 2861 4703 
Q 3103 4656 3366 4563 
z
" transform="scale(0.015625)"/>
       </defs>
       <use xlink:href="#DejaVuSans-36"/>
      </g>
     </g>
    </g>
    <g id="ytick_2">
     <g id="line2d_15">
      <path d="M 44.57 376.256841 
L 853.2 376.256841 
" clip-path="url(#p14c319a694)" style="fill: none; stroke: #b0b0b0; stroke-width: 0.8; stroke-linecap: square"/>
     </g>
     <g id="line2d_16">
      <g>
       <use xlink:href="#ma9acdadf7d" x="44.57" y="376.256841" style="stroke: #000000; stroke-width: 0.8"/>
      </g>
     </g>
     <g id="text_9">
      <!-- 8 -->
      <g transform="translate(31.2075 380.05606) scale(0.1 -0.1)">
       <defs>
        <path id="DejaVuSans-38" d="M 2034 2216 
Q 1584 2216 1326 1975 
Q 1069 1734 1069 1313 
Q 1069 891 1326 650 
Q 1584 409 2034 409 
Q 2484 409 2743 651 
Q 3003 894 3003 1313 
Q 3003 1734 2745 1975 
Q 2488 2216 2034 2216 
z
M 1403 2484 
Q 997 2584 770 2862 
Q 544 3141 544 3541 
Q 544 4100 942 4425 
Q 1341 4750 2034 4750 
Q 2731 4750 3128 4425 
Q 3525 4100 3525 3541 
Q 3525 3141 3298 2862 
Q 3072 2584 2669 2484 
Q 3125 2378 3379 2068 
Q 3634 1759 3634 1313 
Q 3634 634 3220 271 
Q 2806 -91 2034 -91 
Q 1263 -91 848 271 
Q 434 634 434 1313 
Q 434 1759 690 2068 
Q 947 2378 1403 2484 
z
M 1172 3481 
Q 1172 3119 1398 2916 
Q 1625 2713 2034 2713 
Q 2441 2713 2670 2916 
Q 2900 3119 2900 3481 
Q 2900 3844 2670 4047 
Q 2441 4250 2034 4250 
Q 1625 4250 1398 4047 
Q 1172 3844 1172 3481 
z
" transform="scale(0.015625)"/>
       </defs>
       <use xlink:href="#DejaVuSans-38"/>
      </g>
     </g>
    </g>
    <g id="ytick_3">
     <g id="line2d_17">
      <path d="M 44.57 289.254856 
L 853.2 289.254856 
" clip-path="url(#p14c319a694)" style="fill: none; stroke: #b0b0b0; stroke-width: 0.8; stroke-linecap: square"/>
     </g>
     <g id="line2d_18">
      <g>
       <use xlink:href="#ma9acdadf7d" x="44.57" y="289.254856" style="stroke: #000000; stroke-width: 0.8"/>
      </g>
     </g>
     <g id="text_10">
      <!-- 10 -->
      <g transform="translate(24.845 293.054074) scale(0.1 -0.1)">
       <use xlink:href="#DejaVuSans-31"/>
       <use xlink:href="#DejaVuSans-30" transform="translate(63.623047 0)"/>
      </g>
     </g>
    </g>
    <g id="ytick_4">
     <g id="line2d_19">
      <path d="M 44.57 202.25287 
L 853.2 202.25287 
" clip-path="url(#p14c319a694)" style="fill: none; stroke: #b0b0b0; stroke-width: 0.8; stroke-linecap: square"/>
     </g>
     <g id="line2d_20">
      <g>
       <use xlink:href="#ma9acdadf7d" x="44.57" y="202.25287" style="stroke: #000000; stroke-width: 0.8"/>
      </g>
     </g>
     <g id="text_11">
      <!-- 12 -->
      <g transform="translate(24.845 206.052089) scale(0.1 -0.1)">
       <use xlink:href="#DejaVuSans-31"/>
       <use xlink:href="#DejaVuSans-32" transform="translate(63.623047 0)"/>
      </g>
     </g>
    </g>
    <g id="ytick_5">
     <g id="line2d_21">
      <path d="M 44.57 115.250885 
L 853.2 115.250885 
" clip-path="url(#p14c319a694)" style="fill: none; stroke: #b0b0b0; stroke-width: 0.8; stroke-linecap: square"/>
     </g>
     <g id="line2d_22">
      <g>
       <use xlink:href="#ma9acdadf7d" x="44.57" y="115.250885" style="stroke: #000000; stroke-width: 0.8"/>
      </g>
     </g>
     <g id="text_12">
      <!-- 14 -->
      <g transform="translate(24.845 119.050104) scale(0.1 -0.1)">
       <use xlink:href="#DejaVuSans-31"/>
       <use xlink:href="#DejaVuSans-34" transform="translate(63.623047 0)"/>
      </g>
     </g>
    </g>
    <g id="ytick_6">
     <g id="line2d_23">
      <path d="M 44.57 28.248899 
L 853.2 28.248899 
" clip-path="url(#p14c319a694)" style="fill: none; stroke: #b0b0b0; stroke-width: 0.8; stroke-linecap: square"/>
     </g>
     <g id="line2d_24">
      <g>
       <use xlink:href="#ma9acdadf7d" x="44.57" y="28.248899" style="stroke: #000000; stroke-width: 0.8"/>
      </g>
     </g>
     <g id="text_13">
      <!-- 16 -->
      <g transform="translate(24.845 32.048118) scale(0.1 -0.1)">
       <use xlink:href="#DejaVuSans-31"/>
       <use xlink:href="#DejaVuSans-36" transform="translate(63.623047 0)"/>
      </g>
     </g>
    </g>
    <g id="text_14">
     <!-- Fitness (↑ = better) -->
     <g transform="translate(18.765312 329.76875) rotate(-90) scale(0.1 -0.1)">
      <defs>
       <path id="DejaVuSans-46" d="M 628 4666 
L 3309 4666 
L 3309 4134 
L 1259 4134 
L 1259 2759 
L 3109 2759 
L 3109 2228 
L 1259 2228 
L 1259 0 
L 628 0 
L 628 4666 
z
" transform="scale(0.015625)"/>
       <path id="DejaVuSans-73" d="M 2834 3397 
L 2834 2853 
Q 2591 2978 2328 3040 
Q 2066 3103 1784 3103 
Q 1356 3103 1142 2972 
Q 928 2841 928 2578 
Q 928 2378 1081 2264 
Q 1234 2150 1697 2047 
L 1894 2003 
Q 2506 1872 2764 1633 
Q 3022 1394 3022 966 
Q 3022 478 2636 193 
Q 2250 -91 1575 -91 
Q 1294 -91 989 -36 
Q 684 19 347 128 
L 347 722 
Q 666 556 975 473 
Q 1284 391 1588 391 
Q 1994 391 2212 530 
Q 2431 669 2431 922 
Q 2431 1156 2273 1281 
Q 2116 1406 1581 1522 
L 1381 1569 
Q 847 1681 609 1914 
Q 372 2147 372 2553 
Q 372 3047 722 3315 
Q 1072 3584 1716 3584 
Q 2034 3584 2315 3537 
Q 2597 3491 2834 3397 
z
" transform="scale(0.015625)"/>
       <path id="DejaVuSans-20" transform="scale(0.015625)"/>
       <path id="DejaVuSans-28" d="M 1984 4856 
Q 1566 4138 1362 3434 
Q 1159 2731 1159 2009 
Q 1159 1288 1364 580 
Q 1569 -128 1984 -844 
L 1484 -844 
Q 1016 -109 783 600 
Q 550 1309 550 2009 
Q 550 2706 781 3412 
Q 1013 4119 1484 4856 
L 1984 4856 
z
" transform="scale(0.015625)"/>
       <path id="DejaVuSans-2191" d="M 2541 4688 
L 2822 4688 
L 4047 3456 
L 3672 3081 
L 2947 3813 
L 2947 0 
L 2416 0 
L 2416 3813 
L 1684 3081 
L 1309 3456 
L 2541 4688 
z
" transform="scale(0.015625)"/>
       <path id="DejaVuSans-3d" d="M 678 2906 
L 4684 2906 
L 4684 2381 
L 678 2381 
L 678 2906 
z
M 678 1631 
L 4684 1631 
L 4684 1100 
L 678 1100 
L 678 1631 
z
" transform="scale(0.015625)"/>
       <path id="DejaVuSans-62" d="M 3116 1747 
Q 3116 2381 2855 2742 
Q 2594 3103 2138 3103 
Q 1681 3103 1420 2742 
Q 1159 2381 1159 1747 
Q 1159 1113 1420 752 
Q 1681 391 2138 391 
Q 2594 391 2855 752 
Q 3116 1113 3116 1747 
z
M 1159 2969 
Q 1341 3281 1617 3432 
Q 1894 3584 2278 3584 
Q 2916 3584 3314 3078 
Q 3713 2572 3713 1747 
Q 3713 922 3314 415 
Q 2916 -91 2278 -91 
Q 1894 -91 1617 61 
Q 1341 213 1159 525 
L 1159 0 
L 581 0 
L 581 4863 
L 1159 4863 
L 1159 2969 
z
" transform="scale(0.015625)"/>
       <path id="DejaVuSans-29" d="M 513 4856 
L 1013 4856 
Q 1481 4119 1714 3412 
Q 1947 2706 1947 2009 
Q 1947 1309 1714 600 
Q 1481 -109 1013 -844 
L 513 -844 
Q 928 -128 1133 580 
Q 1338 1288 1338 2009 
Q 1338 2731 1133 3434 
Q 928 4138 513 4856 
z
" transform="scale(0.015625)"/>
      </defs>
      <use xlink:href="#DejaVuSans-46"/>
      <use xlink:href="#DejaVuSans-69" transform="translate(50.269531 0)"/>
      <use xlink:href="#DejaVuSans-74" transform="translate(78.052734 0)"/>
      <use xlink:href="#DejaVuSans-6e" transform="translate(117.261719 0)"/>
      <use xlink:href="#DejaVuSans-65" transform="translate(180.640625 0)"/>
      <use xlink:href="#DejaVuSans-73" transform="translate(242.164062 0)"/>
      <use xlink:href="#DejaVuSans-73" transform="translate(294.263672 0)"/>
      <use xlink:href="#DejaVuSans-20" transform="translate(346.363281 0)"/>
      <use xlink:href="#DejaVuSans-28" transform="translate(378.150391 0)"/>
      <use xlink:href="#DejaVuSans-2191" transform="translate(417.164062 0)"/>
      <use xlink:href="#DejaVuSans-20" transform="translate(500.953125 0)"/>
      <use xlink:href="#DejaVuSans-3d" transform="translate(532.740234 0)"/>
      <use xlink:href="#DejaVuSans-20" transform="translate(616.529297 0)"/>
      <use xlink:href="#DejaVuSans-62" transform="translate(648.316406 0)"/>
      <use xlink:href="#DejaVuSans-65" transform="translate(711.792969 0)"/>
      <use xlink:href="#DejaVuSans-74" transform="translate(773.316406 0)"/>
      <use xlink:href="#DejaVuSans-74" transform="translate(812.525391 0)"/>
      <use xlink:href="#DejaVuSans-65" transform="translate(851.734375 0)"/>
      <use xlink:href="#DejaVuSans-72" transform="translate(913.257812 0)"/>
      <use xlink:href="#DejaVuSans-29" transform="translate(954.371094 0)"/>
     </g>
    </g>
   </g>
   <g id="line2d_25">
    <path d="M 81.325909 481.444385 
L 95.739991 470.180902 
L 110.154073 464.068946 
L 124.568155 458.092999 
L 138.982237 450.585117 
L 153.396319 443.376083 
L 167.810401 437.8962 
L 182.224483 431.46143 
L 196.638565 424.266959 
L 211.052647 417.839469 
L 225.466729 411.824763 
L 239.880811 405.856264 
L 254.294893 396.994417 
L 268.708975 394.25204 
L 283.123057 388.786008 
L 297.537139 383.116501 
L 311.951221 373.696869 
L 326.365303 366.093924 
L 340.779385 359.476003 
L 355.193467 354.263726 
L 369.607549 343.006948 
L 384.021631 337.250087 
L 398.435713 331.508825 
L 412.849795 319.938238 
L 427.263877 309.358217 
L 441.677959 301.687363 
L 456.092041 293.507027 
L 470.506123 287.655726 
L 484.920205 281.092386 
L 499.334287 278.136162 
L 513.748369 269.74518 
L 528.162451 266.300144 
L 542.576533 256.71442 
L 556.990615 246.957252 
L 571.404697 241.317876 
L 585.818779 235.416145 
L 600.232861 222.02039 
L 614.646943 215.792913 
L 629.061025 205.427575 
L 643.475107 185.243728 
L 657.889189 166.686489 
L 672.303271 157.38922 
L 686.717353 146.093848 
L 701.131435 141.631954 
L 715.545517 125.856654 
L 729.959599 115.578031 
L 744.373681 107.953302 
L 758.787763 102.628607 
L 773.201845 134.464129 
L 787.615927 131.050785 
" clip-path="url(#p14c319a694)" style="fill: none; stroke: #1f77b4; stroke-width: 2; stroke-linecap: square"/>
   </g>
   <g id="line2d_26">
    <path d="M 81.325909 508.05122 
L 95.739991 493.823611 
L 110.154073 481.800448 
L 124.568155 471.460524 
L 138.982237 462.000952 
L 153.396319 455.528252 
L 167.810401 448.976452 
L 182.224483 441.816752 
L 196.638565 436.297532 
L 211.052647 431.070187 
L 225.466729 424.205451 
L 239.880811 416.669726 
L 254.294893 410.420417 
L 268.708975 403.880154 
L 283.123057 398.901518 
L 297.537139 392.317832 
L 311.951221 386.683091 
L 326.365303 381.126032 
L 340.779385 372.555273 
L 355.193467 364.80827 
L 369.607549 359.49682 
L 384.021631 353.031193 
L 398.435713 344.420227 
L 412.849795 338.580502 
L 427.263877 330.026989 
L 441.677959 320.680554 
L 456.092041 310.181327 
L 470.506123 302.960139 
L 484.920205 295.747602 
L 499.334287 289.181866 
L 513.748369 284.257172 
L 528.162451 277.989345 
L 542.576533 270.782907 
L 556.990615 265.528278 
L 571.404697 256.301499 
L 585.818779 249.350051 
L 600.232861 241.93397 
L 614.646943 234.635262 
L 629.061025 224.388565 
L 643.475107 207.261326 
L 657.889189 197.181906 
L 672.303271 186.277144 
L 686.717353 173.894098 
L 701.131435 159.038694 
L 715.545517 152.856967 
L 729.959599 151.245645 
L 744.373681 130.959548 
L 758.787763 120.831179 
L 773.201845 148.424907 
L 787.615927 141.210353 
" clip-path="url(#p14c319a694)" style="fill: none; stroke-dasharray: 5.55,2.4; stroke-dashoffset: 0; stroke: #ff7f0e; stroke-width: 1.5"/>
   </g>
   <g id="line2d_27">
    <path d="M 81.325909 468.729447 
L 95.739991 450.701067 
L 110.154073 436.189925 
L 124.568155 428.404077 
L 138.982237 417.695069 
L 153.396319 401.824306 
L 167.810401 392.152719 
L 182.224483 385.741686 
L 196.638565 380.370215 
L 211.052647 376.684534 
L 225.466729 369.174301 
L 239.880811 363.483547 
L 254.294893 350.912447 
L 268.708975 338.773927 
L 283.123057 328.312625 
L 297.537139 320.280914 
L 311.951221 315.343168 
L 326.365303 313.512128 
L 340.779385 303.776638 
L 355.193467 295.705028 
L 369.607549 291.732697 
L 384.021631 286.849598 
L 398.435713 285.182341 
L 412.849795 279.89264 
L 427.263877 272.705047 
L 441.677959 267.764776 
L 456.092041 260.087144 
L 470.506123 256.620364 
L 484.920205 253.548918 
L 499.334287 247.551925 
L 513.748369 242.716304 
L 528.162451 237.701794 
L 542.576533 230.69262 
L 556.990615 234.170927 
L 571.404697 226.31774 
L 585.818779 218.351359 
L 600.232861 211.572597 
L 614.646943 208.941786 
L 629.061025 200.417225 
L 643.475107 196.870998 
L 657.889189 190.799414 
L 672.303271 187.493013 
L 686.717353 244.238205 
L 701.131435 232.521407 
L 715.545517 224.435422 
L 729.959599 221.351964 
L 744.373681 215.305349 
" clip-path="url(#p14c319a694)" style="fill: none; stroke: #2ca02c; stroke-width: 2; stroke-linecap: square"/>
   </g>
   <g id="line2d_28">
    <path d="M 81.325909 504.521369 
L 95.739991 483.445101 
L 110.154073 465.921538 
L 124.568155 450.599386 
L 138.982237 435.638009 
L 153.396319 425.093111 
L 167.810401 414.87478 
L 182.224483 402.58879 
L 196.638565 392.865543 
L 211.052647 386.491192 
L 225.466729 381.548584 
L 239.880811 375.706479 
L 254.294893 369.319403 
L 268.708975 361.504471 
L 283.123057 349.820321 
L 297.537139 338.052411 
L 311.951221 328.379969 
L 326.365303 327.09242 
L 340.779385 320.383099 
L 355.193467 311.416821 
L 369.607549 304.40126 
L 384.021631 297.479149 
L 398.435713 298.856912 
L 412.849795 294.655355 
L 427.263877 287.463261 
L 441.677959 282.405044 
L 456.092041 277.037382 
L 470.506123 269.783717 
L 484.920205 262.988119 
L 499.334287 258.271819 
L 513.748369 254.28494 
L 528.162451 249.205313 
L 542.576533 243.573969 
L 556.990615 250.163947 
L 571.404697 243.664109 
L 585.818779 236.629983 
L 600.232861 227.336159 
L 614.646943 220.853287 
L 629.061025 216.328893 
L 643.475107 210.547415 
L 657.889189 205.584351 
L 672.303271 198.081821 
L 686.717353 259.009584 
L 701.131435 252.275949 
L 715.545517 245.290092 
L 729.959599 239.793762 
L 744.373681 225.845454 
" clip-path="url(#p14c319a694)" style="fill: none; stroke-dasharray: 5.55,2.4; stroke-dashoffset: 0; stroke: #d62728; stroke-width: 1.5"/>
   </g>
   <g id="line2d_29">
    <path d="M 81.325909 461.102822 
L 95.739991 451.300497 
L 110.154073 443.72851 
L 124.568155 435.825557 
L 138.982237 426.034775 
L 153.396319 416.729973 
L 167.810401 410.936043 
L 182.224483 404.432257 
L 196.638565 395.923142 
L 211.052647 381.858257 
L 225.466729 376.820409 
L 239.880811 368.425643 
L 254.294893 353.618784 
L 268.708975 348.53894 
L 283.123057 340.988453 
L 297.537139 334.310132 
L 311.951221 329.520171 
L 326.365303 319.276549 
L 340.779385 308.306257 
L 355.193467 303.44844 
L 369.607549 293.048632 
L 384.021631 287.437753 
L 398.435713 279.757972 
L 412.849795 275.612887 
L 427.263877 266.583066 
L 441.677959 255.401654 
L 456.092041 249.671005 
L 470.506123 245.507227 
L 484.920205 237.54948 
L 499.334287 230.72261 
L 513.748369 219.559843 
L 528.162451 216.293679 
L 542.576533 204.2082 
L 556.990615 198.835183 
L 571.404697 189.364756 
L 585.818779 179.78675 
L 600.232861 172.724069 
L 614.646943 168.545814 
L 629.061025 139.070134 
L 643.475107 129.026724 
L 657.889189 123.72176 
L 672.303271 132.592699 
L 686.717353 131.998267 
L 701.131435 115.571915 
L 715.545517 111.58754 
L 729.959599 111.58754 
L 744.373681 106.212845 
L 758.787763 96.222599 
L 773.201845 87.946518 
L 787.615927 80.311986 
L 802.030009 78.259434 
L 816.444091 71.343969 
" clip-path="url(#p14c319a694)" style="fill: none; stroke: #9467bd; stroke-width: 2; stroke-linecap: square"/>
   </g>
   <g id="line2d_30">
    <path d="M 81.325909 500.402024 
L 95.739991 480.427167 
L 110.154073 461.841165 
L 124.568155 450.526912 
L 138.982237 442.131311 
L 153.396319 433.241646 
L 167.810401 425.743024 
L 182.224483 417.60114 
L 196.638565 408.844427 
L 211.052647 400.20807 
L 225.466729 391.30124 
L 239.880811 383.403875 
L 254.294893 374.555958 
L 268.708975 365.666081 
L 283.123057 357.746988 
L 297.537139 348.039736 
L 311.951221 340.986451 
L 326.365303 334.84785 
L 340.779385 327.033973 
L 355.193467 318.653625 
L 369.607549 309.868519 
L 384.021631 302.22741 
L 398.435713 294.040036 
L 412.849795 288.462358 
L 427.263877 279.891172 
L 441.677959 273.918664 
L 456.092041 269.863016 
L 470.506123 261.093203 
L 484.920205 252.726966 
L 499.334287 246.476015 
L 513.748369 240.311527 
L 528.162451 230.484653 
L 542.576533 223.891678 
L 556.990615 217.026208 
L 571.404697 208.265184 
L 585.818779 199.628535 
L 600.232861 191.147696 
L 614.646943 184.982862 
L 629.061025 153.396714 
L 643.475107 147.157823 
L 657.889189 141.276074 
L 672.303271 159.758143 
L 686.717353 153.14432 
L 701.131435 138.624452 
L 715.545517 134.799176 
L 729.959599 128.651698 
L 744.373681 122.076172 
L 758.787763 116.95245 
L 773.201845 111.211739 
L 787.615927 99.168329 
L 802.030009 91.458757 
L 816.444091 84.091394 
" clip-path="url(#p14c319a694)" style="fill: none; stroke-dasharray: 5.55,2.4; stroke-dashoffset: 0; stroke: #8c564b; stroke-width: 1.5"/>
   </g>
   <g id="patch_3">
    <path d="M 44.57 534.04 
L 44.57 26.16 
" style="fill: none; stroke: #000000; stroke-width: 0.8; stroke-linejoin: miter; stroke-linecap: square"/>
   </g>
   <g id="patch_4">
    <path d="M 853.2 534.04 
L 853.2 26.16 
" style="fill: none; stroke: #000000; stroke-width: 0.8; stroke-linejoin: miter; stroke-linecap: square"/>
   </g>
   <g id="patch_5">
    <path d="M 44.57 534.04 
L 853.2 534.04 
" style="fill: none; stroke: #000000; stroke-width: 0.8; stroke-linejoin: miter; stroke-linecap: square"/>
   </g>
   <g id="patch_6">
    <path d="M 44.57 26.16 
L 853.2 26.16 
" style="fill: none; stroke: #000000; stroke-width: 0.8; stroke-linejoin: miter; stroke-linecap: square"/>
   </g>
   <g id="text_15">
    <!-- Crossover Method Comparison -->
    <g transform="translate(356.81875 20.16) scale(0.12 -0.12)">
     <defs>
      <path id="DejaVuSans-43" d="M 4122 4306 
L 4122 3641 
Q 3803 3938 3442 4084 
Q 3081 4231 2675 4231 
Q 1875 4231 1450 3742 
Q 1025 3253 1025 2328 
Q 1025 1406 1450 917 
Q 1875 428 2675 428 
Q 3081 428 3442 575 
Q 3803 722 4122 1019 
L 4122 359 
Q 3791 134 3420 21 
Q 3050 -91 2638 -91 
Q 1578 -91 968 557 
Q 359 1206 359 2328 
Q 359 3453 968 4101 
Q 1578 4750 2638 4750 
Q 3056 4750 3426 4639 
Q 3797 4528 4122 4306 
z
" transform="scale(0.015625)"/>
      <path id="DejaVuSans-76" d="M 191 3500 
L 800 3500 
L 1894 563 
L 2988 3500 
L 3597 3500 
L 2284 0 
L 1503 0 
L 191 3500 
z
" transform="scale(0.015625)"/>
      <path id="DejaVuSans-4d" d="M 628 4666 
L 1569 4666 
L 2759 1491 
L 3956 4666 
L 4897 4666 
L 4897 0 
L 4281 0 
L 4281 4097 
L 3078 897 
L 2444 897 
L 1241 4097 
L 1241 0 
L 628 0 
L 628 4666 
z
" transform="scale(0.015625)"/>
      <path id="DejaVuSans-68" d="M 3513 2113 
L 3513 0 
L 2938 0 
L 2938 2094 
Q 2938 2591 2744 2837 
Q 2550 3084 2163 3084 
Q 1697 3084 1428 2787 
Q 1159 2491 1159 1978 
L 1159 0 
L 581 0 
L 581 4863 
L 1159 4863 
L 1159 2956 
Q 1366 3272 1645 3428 
Q 1925 3584 2291 3584 
Q 2894 3584 3203 3211 
Q 3513 2838 3513 2113 
z
" transform="scale(0.015625)"/>
      <path id="DejaVuSans-64" d="M 2906 2969 
L 2906 4863 
L 3481 4863 
L 3481 0 
L 2906 0 
L 2906 525 
Q 2725 213 2448 61 
Q 2172 -91 1784 -91 
Q 1150 -91 751 415 
Q 353 922 353 1747 
Q 353 2572 751 3078 
Q 1150 3584 1784 3584 
Q 2172 3584 2448 3432 
Q 2725 3281 2906 2969 
z
M 947 1747 
Q 947 1113 1208 752 
Q 1469 391 1925 391 
Q 2381 391 2643 752 
Q 2906 1113 2906 1747 
Q 2906 2381 2643 2742 
Q 2381 3103 1925 3103 
Q 1469 3103 1208 2742 
Q 947 2381 947 1747 
z
" transform="scale(0.015625)"/>
      <path id="DejaVuSans-6d" d="M 3328 2828 
Q 3544 3216 3844 3400 
Q 4144 3584 4550 3584 
Q 5097 3584 5394 3201 
Q 5691 2819 5691 2113 
L 5691 0 
L 5113 0 
L 5113 2094 
Q 5113 2597 4934 2840 
Q 4756 3084 4391 3084 
Q 3944 3084 3684 2787 
Q 3425 2491 3425 1978 
L 3425 0 
L 2847 0 
L 2847 2094 
Q 2847 2600 2669 2842 
Q 2491 3084 2119 3084 
Q 1678 3084 1418 2786 
Q 1159 2488 1159 1978 
L 1159 0 
L 581 0 
L 581 3500 
L 1159 3500 
L 1159 2956 
Q 1356 3278 1631 3431 
Q 1906 3584 2284 3584 
Q 2666 3584 2933 3390 
Q 3200 3197 3328 2828 
z
" transform="scale(0.015625)"/>
      <path id="DejaVuSans-70" d="M 1159 525 
L 1159 -1331 
L 581 -1331 
L 581 3500 
L 1159 3500 
L 1159 2969 
Q 1341 3281 1617 3432 
Q 1894 3584 2278 3584 
Q 2916 3584 3314 3078 
Q 3713 2572 3713 1747 
Q 3713 922 3314 415 
Q 2916 -91 2278 -91 
Q 1894 -91 1617 61 
Q 1341 213 1159 525 
z
M 3116 1747 
Q 3116 2381 2855 2742 
Q 2594 3103 2138 3103 
Q 1681 3103 1420 2742 
Q 1159 2381 1159 1747 
Q 1159 1113 1420 752 
Q 1681 391 2138 391 
Q 2594 391 2855 752 
Q 3116 1113 3116 1747 
z
" transform="scale(0.015625)"/>
     </defs>
     <use xlink:href="#DejaVuSans-43"/>
     <use xlink:href="#DejaVuSans-72" transform="translate(69.824219 0)"/>
     <use xlink:href="#DejaVuSans-6f" transform="translate(108.6875 0)"/>
     <use xlink:href="#DejaVuSans-73" transform="translate(169.869141 0)"/>
     <use xlink:href="#DejaVuSans-73" transform="translate(221.96875 0)"/>
     <use xlink:href="#DejaVuSans-6f" transform="translate(274.068359 0)"/>
     <use xlink:href="#DejaVuSans-76" transform="translate(335.25 0)"/>
     <use xlink:href="#DejaVuSans-65" transform="translate(394.429688 0)"/>
     <use xlink:href="#DejaVuSans-72" transform="translate(455.953125 0)"/>
     <use xlink:href="#DejaVuSans-20" transform="translate(497.066406 0)"/>
     <use xlink:href="#DejaVuSans-4d" transform="translate(528.853516 0)"/>
     <use xlink:href="#DejaVuSans-65" transform="translate(615.132812 0)"/>
     <use xlink:href="#DejaVuSans-74" transform="translate(676.65625 0)"/>
     <use xlink:href="#DejaVuSans-68" transform="translate(715.865234 0)"/>
     <use xlink:href="#DejaVuSans-6f" transform="translate(779.244141 0)"/>
     <use xlink:href="#DejaVuSans-64" transform="translate(840.425781 0)"/>
     <use xlink:href="#DejaVuSans-20" transform="translate(903.902344 0)"/>
     <use xlink:href="#DejaVuSans-43" transform="translate(935.689453 0)"/>
     <use xlink:href="#DejaVuSans-6f" transform="translate(1005.513672 0)"/>
     <use xlink:href="#DejaVuSans-6d" transform="translate(1066.695312 0)"/>
     <use xlink:href="#DejaVuSans-70" transform="translate(1164.107422 0)"/>
     <use xlink:href="#DejaVuSans-61" transform="translate(1227.583984 0)"/>
     <use xlink:href="#DejaVuSans-72" transform="translate(1288.863281 0)"/>
     <use xlink:href="#DejaVuSans-69" transform="translate(1329.976562 0)"/>
     <use xlink:href="#DejaVuSans-73" transform="translate(1357.759766 0)"/>
     <use xlink:href="#DejaVuSans-6f" transform="translate(1409.859375 0)"/>
     <use xlink:href="#DejaVuSans-6e" transform="translate(1471.041016 0)"/>
    </g>
   </g>
   <g id="legend_1">
    <g id="patch_7">
     <path d="M 51.57 123.34125 
L 173.674688 123.34125 
Q 175.674688 123.34125 175.674688 121.34125 
L 175.674688 33.16 
Q 175.674688 31.16 173.674688 31.16 
L 51.57 31.16 
Q 49.57 31.16 49.57 33.16 
L 49.57 121.34125 
Q 49.57 123.34125 51.57 123.34125 
z
" style="fill: #ffffff; opacity: 0.8; stroke: #cccccc; stroke-linejoin: miter"/>
    </g>
    <g id="line2d_31">
     <path d="M 53.57 39.258437 
L 63.57 39.258437 
L 73.57 39.258437 
" style="fill: none; stroke: #1f77b4; stroke-width: 2; stroke-linecap: square"/>
    </g>
    <g id="text_16">
     <!-- one_point (best↑) -->
     <g transform="translate(81.57 42.758437) scale(0.1 -0.1)">
      <defs>
       <path id="DejaVuSans-5f" d="M 3263 -1063 
L 3263 -1509 
L -63 -1509 
L -63 -1063 
L 3263 -1063 
z
" transform="scale(0.015625)"/>
      </defs>
      <use xlink:href="#DejaVuSans-6f"/>
      <use xlink:href="#DejaVuSans-6e" transform="translate(61.181641 0)"/>
      <use xlink:href="#DejaVuSans-65" transform="translate(124.560547 0)"/>
      <use xlink:href="#DejaVuSans-5f" transform="translate(186.083984 0)"/>
      <use xlink:href="#DejaVuSans-70" transform="translate(236.083984 0)"/>
      <use xlink:href="#DejaVuSans-6f" transform="translate(299.560547 0)"/>
      <use xlink:href="#DejaVuSans-69" transform="translate(360.742188 0)"/>
      <use xlink:href="#DejaVuSans-6e" transform="translate(388.525391 0)"/>
      <use xlink:href="#DejaVuSans-74" transform="translate(451.904297 0)"/>
      <use xlink:href="#DejaVuSans-20" transform="translate(491.113281 0)"/>
      <use xlink:href="#DejaVuSans-28" transform="translate(522.900391 0)"/>
      <use xlink:href="#DejaVuSans-62" transform="translate(561.914062 0)"/>
      <use xlink:href="#DejaVuSans-65" transform="translate(625.390625 0)"/>
      <use xlink:href="#DejaVuSans-73" transform="translate(686.914062 0)"/>
      <use xlink:href="#DejaVuSans-74" transform="translate(739.013672 0)"/>
      <use xlink:href="#DejaVuSans-2191" transform="translate(778.222656 0)"/>
      <use xlink:href="#DejaVuSans-29" transform="translate(862.011719 0)"/>
     </g>
    </g>
    <g id="line2d_32">
     <path d="M 53.57 54.214687 
L 63.57 54.214687 
L 73.57 54.214687 
" style="fill: none; stroke-dasharray: 5.55,2.4; stroke-dashoffset: 0; stroke: #ff7f0e; stroke-width: 1.5"/>
    </g>
    <g id="text_17">
     <!-- one_point (avg↑) -->
     <g transform="translate(81.57 57.714687) scale(0.1 -0.1)">
      <defs>
       <path id="DejaVuSans-67" d="M 2906 1791 
Q 2906 2416 2648 2759 
Q 2391 3103 1925 3103 
Q 1463 3103 1205 2759 
Q 947 2416 947 1791 
Q 947 1169 1205 825 
Q 1463 481 1925 481 
Q 2391 481 2648 825 
Q 2906 1169 2906 1791 
z
M 3481 434 
Q 3481 -459 3084 -895 
Q 2688 -1331 1869 -1331 
Q 1566 -1331 1297 -1286 
Q 1028 -1241 775 -1147 
L 775 -588 
Q 1028 -725 1275 -790 
Q 1522 -856 1778 -856 
Q 2344 -856 2625 -561 
Q 2906 -266 2906 331 
L 2906 616 
Q 2728 306 2450 153 
Q 2172 0 1784 0 
Q 1141 0 747 490 
Q 353 981 353 1791 
Q 353 2603 747 3093 
Q 1141 3584 1784 3584 
Q 2172 3584 2450 3431 
Q 2728 3278 2906 2969 
L 2906 3500 
L 3481 3500 
L 3481 434 
z
" transform="scale(0.015625)"/>
      </defs>
      <use xlink:href="#DejaVuSans-6f"/>
      <use xlink:href="#DejaVuSans-6e" transform="translate(61.181641 0)"/>
      <use xlink:href="#DejaVuSans-65" transform="translate(124.560547 0)"/>
      <use xlink:href="#DejaVuSans-5f" transform="translate(186.083984 0)"/>
      <use xlink:href="#DejaVuSans-70" transform="translate(236.083984 0)"/>
      <use xlink:href="#DejaVuSans-6f" transform="translate(299.560547 0)"/>
      <use xlink:href="#DejaVuSans-69" transform="translate(360.742188 0)"/>
      <use xlink:href="#DejaVuSans-6e" transform="translate(388.525391 0)"/>
      <use xlink:href="#DejaVuSans-74" transform="translate(451.904297 0)"/>
      <use xlink:href="#DejaVuSans-20" transform="translate(491.113281 0)"/>
      <use xlink:href="#DejaVuSans-28" transform="translate(522.900391 0)"/>
      <use xlink:href="#DejaVuSans-61" transform="translate(561.914062 0)"/>
      <use xlink:href="#DejaVuSans-76" transform="translate(623.193359 0)"/>
      <use xlink:href="#DejaVuSans-67" transform="translate(682.373047 0)"/>
      <use xlink:href="#DejaVuSans-2191" transform="translate(745.849609 0)"/>
      <use xlink:href="#DejaVuSans-29" transform="translate(829.638672 0)"/>
     </g>
    </g>
    <g id="line2d_33">
     <path d="M 53.57 69.170937 
L 63.57 69.170937 
L 73.57 69.170937 
" style="fill: none; stroke: #2ca02c; stroke-width: 2; stroke-linecap: square"/>
    </g>
    <g id="text_18">
     <!-- two_point (best↑) -->
     <g transform="translate(81.57 72.670937) scale(0.1 -0.1)">
      <defs>
       <path id="DejaVuSans-77" d="M 269 3500 
L 844 3500 
L 1563 769 
L 2278 3500 
L 2956 3500 
L 3675 769 
L 4391 3500 
L 4966 3500 
L 4050 0 
L 3372 0 
L 2619 2869 
L 1863 0 
L 1184 0 
L 269 3500 
z
" transform="scale(0.015625)"/>
      </defs>
      <use xlink:href="#DejaVuSans-74"/>
      <use xlink:href="#DejaVuSans-77" transform="translate(39.208984 0)"/>
      <use xlink:href="#DejaVuSans-6f" transform="translate(120.996094 0)"/>
      <use xlink:href="#DejaVuSans-5f" transform="translate(182.177734 0)"/>
      <use xlink:href="#DejaVuSans-70" transform="translate(232.177734 0)"/>
      <use xlink:href="#DejaVuSans-6f" transform="translate(295.654297 0)"/>
      <use xlink:href="#DejaVuSans-69" transform="translate(356.835938 0)"/>
      <use xlink:href="#DejaVuSans-6e" transform="translate(384.619141 0)"/>
      <use xlink:href="#DejaVuSans-74" transform="translate(447.998047 0)"/>
      <use xlink:href="#DejaVuSans-20" transform="translate(487.207031 0)"/>
      <use xlink:href="#DejaVuSans-28" transform="translate(518.994141 0)"/>
      <use xlink:href="#DejaVuSans-62" transform="translate(558.007812 0)"/>
      <use xlink:href="#DejaVuSans-65" transform="translate(621.484375 0)"/>
      <use xlink:href="#DejaVuSans-73" transform="translate(683.007812 0)"/>
      <use xlink:href="#DejaVuSans-74" transform="translate(735.107422 0)"/>
      <use xlink:href="#DejaVuSans-2191" transform="translate(774.316406 0)"/>
      <use xlink:href="#DejaVuSans-29" transform="translate(858.105469 0)"/>
     </g>
    </g>
    <g id="line2d_34">
     <path d="M 53.57 84.127187 
L 63.57 84.127187 
L 73.57 84.127187 
" style="fill: none; stroke-dasharray: 5.55,2.4; stroke-dashoffset: 0; stroke: #d62728; stroke-width: 1.5"/>
    </g>
    <g id="text_19">
     <!-- two_point (avg↑) -->
     <g transform="translate(81.57 87.627187) scale(0.1 -0.1)">
      <use xlink:href="#DejaVuSans-74"/>
      <use xlink:href="#DejaVuSans-77" transform="translate(39.208984 0)"/>
      <use xlink:href="#DejaVuSans-6f" transform="translate(120.996094 0)"/>
      <use xlink:href="#DejaVuSans-5f" transform="translate(182.177734 0)"/>
      <use xlink:href="#DejaVuSans-70" transform="translate(232.177734 0)"/>
      <use xlink:href="#DejaVuSans-6f" transform="translate(295.654297 0)"/>
      <use xlink:href="#DejaVuSans-69" transform="translate(356.835938 0)"/>
      <use xlink:href="#DejaVuSans-6e" transform="translate(384.619141 0)"/>
      <use xlink:href="#DejaVuSans-74" transform="translate(447.998047 0)"/>
      <use xlink:href="#DejaVuSans-20" transform="translate(487.207031 0)"/>
      <use xlink:href="#DejaVuSans-28" transform="translate(518.994141 0)"/>
      <use xlink:href="#DejaVuSans-61" transform="translate(558.007812 0)"/>
      <use xlink:href="#DejaVuSans-76" transform="translate(619.287109 0)"/>
      <use xlink:href="#DejaVuSans-67" transform="translate(678.466797 0)"/>
      <use xlink:href="#DejaVuSans-2191" transform="translate(741.943359 0)"/>
      <use xlink:href="#DejaVuSans-29" transform="translate(825.732422 0)"/>
     </g>
    </g>
    <g id="line2d_35">
     <path d="M 53.57 99.083437 
L 63.57 99.083437 
L 73.57 99.083437 
" style="fill: none; stroke: #9467bd; stroke-width: 2; stroke-linecap: square"/>
    </g>
    <g id="text_20">
     <!-- uniform (best↑) -->
     <g transform="translate(81.57 102.583437) scale(0.1 -0.1)">
      <defs>
       <path id="DejaVuSans-75" d="M 544 1381 
L 544 3500 
L 1119 3500 
L 1119 1403 
Q 1119 906 1312 657 
Q 1506 409 1894 409 
Q 2359 409 2629 706 
Q 2900 1003 2900 1516 
L 2900 3500 
L 3475 3500 
L 3475 0 
L 2900 0 
L 2900 538 
Q 2691 219 2414 64 
Q 2138 -91 1772 -91 
Q 1169 -91 856 284 
Q 544 659 544 1381 
z
M 1991 3584 
L 1991 3584 
z
" transform="scale(0.015625)"/>
       <path id="DejaVuSans-66" d="M 2375 4863 
L 2375 4384 
L 1825 4384 
Q 1516 4384 1395 4259 
Q 1275 4134 1275 3809 
L 1275 3500 
L 2222 3500 
L 2222 3053 
L 1275 3053 
L 1275 0 
L 697 0 
L 697 3053 
L 147 3053 
L 147 3500 
L 697 3500 
L 697 3744 
Q 697 4328 969 4595 
Q 1241 4863 1831 4863 
L 2375 4863 
z
" transform="scale(0.015625)"/>
      </defs>
      <use xlink:href="#DejaVuSans-75"/>
      <use xlink:href="#DejaVuSans-6e" transform="translate(63.378906 0)"/>
      <use xlink:href="#DejaVuSans-69" transform="translate(126.757812 0)"/>
      <use xlink:href="#DejaVuSans-66" transform="translate(154.541016 0)"/>
      <use xlink:href="#DejaVuSans-6f" transform="translate(189.746094 0)"/>
      <use xlink:href="#DejaVuSans-72" transform="translate(250.927734 0)"/>
      <use xlink:href="#DejaVuSans-6d" transform="translate(290.291016 0)"/>
      <use xlink:href="#DejaVuSans-20" transform="translate(387.703125 0)"/>
      <use xlink:href="#DejaVuSans-28" transform="translate(419.490234 0)"/>
      <use xlink:href="#DejaVuSans-62" transform="translate(458.503906 0)"/>
      <use xlink:href="#DejaVuSans-65" transform="translate(521.980469 0)"/>
      <use xlink:href="#DejaVuSans-73" transform="translate(583.503906 0)"/>
      <use xlink:href="#DejaVuSans-74" transform="translate(635.603516 0)"/>
      <use xlink:href="#DejaVuSans-2191" transform="translate(674.8125 0)"/>
      <use xlink:href="#DejaVuSans-29" transform="translate(758.601562 0)"/>
     </g>
    </g>
    <g id="line2d_36">
     <path d="M 53.57 113.761562 
L 63.57 113.761562 
L 73.57 113.761562 
" style="fill: none; stroke-dasharray: 5.55,2.4; stroke-dashoffset: 0; stroke: #8c564b; stroke-width: 1.5"/>
    </g>
    <g id="text_21">
     <!-- uniform (avg↑) -->
     <g transform="translate(81.57 117.261562) scale(0.1 -0.1)">
      <use xlink:href="#DejaVuSans-75"/>
      <use xlink:href="#DejaVuSans-6e" transform="translate(63.378906 0)"/>
      <use xlink:href="#DejaVuSans-69" transform="translate(126.757812 0)"/>
      <use xlink:href="#DejaVuSans-66" transform="translate(154.541016 0)"/>
      <use xlink:href="#DejaVuSans-6f" transform="translate(189.746094 0)"/>
      <use xlink:href="#DejaVuSans-72" transform="translate(250.927734 0)"/>
      <use xlink:href="#DejaVuSans-6d" transform="translate(290.291016 0)"/>
      <use xlink:href="#DejaVuSans-20" transform="translate(387.703125 0)"/>
      <use xlink:href="#DejaVuSans-28" transform="translate(419.490234 0)"/>
      <use xlink:href="#DejaVuSans-61" transform="translate(458.503906 0)"/>
      <use xlink:href="#DejaVuSans-76" transform="translate(519.783203 0)"/>
      <use xlink:href="#DejaVuSans-67" transform="translate(578.962891 0)"/>
      <use xlink:href="#DejaVuSans-2191" transform="translate(642.439453 0)"/>
      <use xlink:href="#DejaVuSans-29" transform="translate(726.228516 0)"/>
     </g>
    </g>
   </g>
  </g>
 </g>
 <defs>
  <clipPath id="p14c319a694">
   <rect x="44.57" y="26.16" width="808.63" height="507.88"/>
  </clipPath>
 </defs>
</svg>
