<?xml version="1.0" encoding="utf-8" standalone="no"?>
<!DOCTYPE svg PUBLIC "-//W3C//DTD SVG 1.1//EN"
  "http://www.w3.org/Graphics/SVG/1.1/DTD/svg11.dtd">
<svg xmlns:xlink="http://www.w3.org/1999/xlink" width="864pt" height="576pt" viewBox="0 0 864 576" xmlns="http://www.w3.org/2000/svg" version="1.1">
 <metadata>
  <rdf:RDF xmlns:dc="http://purl.org/dc/elements/1.1/" xmlns:cc="http://creativecommons.org/ns#" xmlns:rdf="http://www.w3.org/1999/02/22-rdf-syntax-ns#">
   <cc:Work>
    <dc:type rdf:resource="http://purl.org/dc/dcmitype/StillImage"/>
    <dc:date>2025-04-15T14:32:56.204051</dc:date>
    <dc:format>image/svg+xml</dc:format>
    <dc:creator>
     <cc:Agent>
      <dc:title>Matplotlib v3.10.0, https://matplotlib.org/</dc:title>
     </cc:Agent>
    </dc:creator>
   </cc:Work>
  </rdf:RDF>
 </metadata>
 <defs>
  <style type="text/css">*{stroke-linejoin: round; stroke-linecap: butt}</style>
 </defs>
 <g id="figure_1">
  <g id="patch_1">
   <path d="M 0 576 
L 864 576 
L 864 0 
L 0 0 
z
" style="fill: #ffffff"/>
  </g>
  <g id="axes_1">
   <g id="patch_2">
    <path d="M 54.11 534.04 
L 853.2 534.04 
L 853.2 26.16 
L 54.11 26.16 
z
" style="fill: #ffffff"/>
   </g>
   <g id="FillBetweenPolyCollection_1">
    <path d="M 90.432273 474.255546 
L 90.432273 496.626077 
L 97.770106 485.809083 
L 105.107938 470.886223 
L 112.445771 457.969283 
L 119.783604 449.045658 
L 127.121437 441.184115 
L 134.45927 428.922278 
L 141.797103 426.677963 
L 149.134936 409.286886 
L 156.472769 397.065173 
L 163.810601 393.813166 
L 171.148434 388.506347 
L 178.486267 376.397755 
L 185.8241 372.833601 
L 193.161933 371.402194 
L 200.499766 362.591952 
L 207.837599 359.75162 
L 215.175432 345.503485 
L 222.513264 344.827332 
L 229.851097 341.542523 
L 237.18893 341.31996 
L 244.526763 337.564814 
L 251.864596 331.427744 
L 259.202429 326.498073 
L 266.540262 324.558362 
L 273.878095 321.778068 
L 281.215927 313.131432 
L 288.55376 313.054343 
L 295.891593 307.688418 
L 303.229426 306.340124 
L 310.567259 303.746878 
L 317.905092 304.03624 
L 325.242925 300.565327 
L 332.580758 299.127567 
L 339.91859 299.015951 
L 347.256423 294.740766 
L 354.594256 293.832478 
L 361.932089 292.872839 
L 369.269922 288.037242 
L 376.607755 286.949299 
L 383.945588 285.770731 
L 391.283421 282.537053 
L 398.621253 281.685189 
L 405.959086 281.114621 
L 413.296919 278.45265 
L 420.634752 264.09848 
L 427.972585 261.591549 
L 435.310418 261.529362 
L 442.648251 259.511019 
L 449.986084 259.511617 
L 457.323916 258.405575 
L 464.661749 256.639005 
L 471.999582 255.478108 
L 479.337415 253.047431 
L 486.675248 251.870076 
L 494.013081 247.067309 
L 501.350914 255.717498 
L 508.688747 254.871921 
L 516.026579 251.74815 
L 523.364412 249.98756 
L 530.702245 244.134363 
L 538.040078 243.972108 
L 545.377911 243.734141 
L 552.715744 243.260922 
L 560.053577 238.181041 
L 567.39141 236.040871 
L 574.729242 233.472461 
L 582.067075 233.221427 
L 589.404908 232.17999 
L 596.742741 231.270494 
L 604.080574 227.661647 
L 611.418407 222.120116 
L 618.75624 220.289335 
L 626.094073 219.054573 
L 633.431905 220.020495 
L 640.769738 216.977837 
L 648.107571 216.977837 
L 655.445404 216.977837 
L 662.783237 214.425801 
L 670.12107 213.912866 
L 677.458903 213.004414 
L 684.796736 187.559348 
L 684.796736 125.659204 
L 684.796736 125.659204 
L 677.458903 138.045973 
L 670.12107 141.413338 
L 662.783237 143.791014 
L 655.445404 143.490227 
L 648.107571 143.490227 
L 640.769738 143.490227 
L 633.431905 144.676893 
L 626.094073 148.453105 
L 618.75624 148.338823 
L 611.418407 115.263169 
L 604.080574 116.828573 
L 596.742741 117.928286 
L 589.404908 118.018477 
L 582.067075 118.000865 
L 574.729242 118.30202 
L 567.39141 123.032773 
L 560.053577 123.134188 
L 552.715744 127.921744 
L 545.377911 127.898917 
L 538.040078 129.814653 
L 530.702245 130.004748 
L 523.364412 137.173642 
L 516.026579 140.854773 
L 508.688747 141.469861 
L 501.350914 142.392713 
L 494.013081 148.504956 
L 486.675248 149.753096 
L 479.337415 151.829459 
L 471.999582 151.882111 
L 464.661749 162.786479 
L 457.323916 164.392947 
L 449.986084 164.629021 
L 442.648251 171.186334 
L 435.310418 171.313574 
L 427.972585 178.162852 
L 420.634752 186.266436 
L 413.296919 182.95453 
L 405.959086 185.409225 
L 398.621253 192.400571 
L 391.283421 195.988554 
L 383.945588 195.579725 
L 376.607755 200.417043 
L 369.269922 206.075969 
L 361.932089 208.658836 
L 354.594256 212.994268 
L 347.256423 217.267479 
L 339.91859 222.257101 
L 332.580758 230.61121 
L 325.242925 236.690315 
L 317.905092 238.985585 
L 310.567259 247.729454 
L 303.229426 250.599969 
L 295.891593 261.743887 
L 288.55376 263.868806 
L 281.215927 264.110591 
L 273.878095 270.617476 
L 266.540262 273.663824 
L 259.202429 278.983899 
L 251.864596 284.393253 
L 244.526763 284.755031 
L 237.18893 297.502071 
L 229.851097 303.211823 
L 222.513264 311.36933 
L 215.175432 313.745235 
L 207.837599 317.583678 
L 200.499766 325.706549 
L 193.161933 328.814715 
L 185.8241 334.55861 
L 178.486267 342.113022 
L 171.148434 345.580075 
L 163.810601 351.021128 
L 156.472769 359.451718 
L 149.134936 377.114725 
L 141.797103 382.807036 
L 134.45927 400.929192 
L 127.121437 408.494304 
L 119.783604 420.130502 
L 112.445771 430.713044 
L 105.107938 447.013914 
L 97.770106 464.310299 
L 90.432273 474.255546 
z
" clip-path="url(#p5e84cd7819)" style="fill: #1f77b4; fill-opacity: 0.2"/>
   </g>
   <g id="FillBetweenPolyCollection_2">
    <path d="M 90.432273 506.840148 
L 90.432273 508.9897 
L 97.770106 498.783585 
L 105.107938 490.531493 
L 112.445771 479.608935 
L 119.783604 467.621941 
L 127.121437 459.402351 
L 134.45927 448.145477 
L 141.797103 438.723607 
L 149.134936 432.016603 
L 156.472769 424.548859 
L 163.810601 412.287955 
L 171.148434 405.764813 
L 178.486267 400.508236 
L 185.8241 395.463174 
L 193.161933 391.794256 
L 200.499766 386.582271 
L 207.837599 380.281657 
L 215.175432 375.387426 
L 222.513264 371.290728 
L 229.851097 368.349237 
L 237.18893 361.102311 
L 244.526763 359.149803 
L 251.864596 354.069686 
L 259.202429 348.365906 
L 266.540262 348.099833 
L 273.878095 340.822322 
L 281.215927 340.004959 
L 288.55376 336.04735 
L 295.891593 335.77518 
L 303.229426 334.369559 
L 310.567259 331.703242 
L 317.905092 325.825027 
L 325.242925 324.656011 
L 332.580758 320.544812 
L 339.91859 321.219777 
L 347.256423 323.113335 
L 354.594256 318.044012 
L 361.932089 321.786898 
L 369.269922 313.739055 
L 376.607755 317.265772 
L 383.945588 311.029294 
L 391.283421 310.518759 
L 398.621253 307.691106 
L 405.959086 307.136328 
L 413.296919 309.197204 
L 420.634752 302.0767 
L 427.972585 298.018677 
L 435.310418 296.210812 
L 442.648251 287.46229 
L 449.986084 289.31128 
L 457.323916 283.75846 
L 464.661749 286.342399 
L 471.999582 280.961432 
L 479.337415 276.179736 
L 486.675248 280.497145 
L 494.013081 281.588235 
L 501.350914 279.797963 
L 508.688747 282.910656 
L 516.026579 276.086764 
L 523.364412 275.236794 
L 530.702245 276.40793 
L 538.040078 274.865735 
L 545.377911 276.59118 
L 552.715744 278.685848 
L 560.053577 274.222036 
L 567.39141 275.598526 
L 574.729242 265.770392 
L 582.067075 266.318312 
L 589.404908 256.180904 
L 596.742741 257.356615 
L 604.080574 256.124617 
L 611.418407 254.373121 
L 618.75624 257.690116 
L 626.094073 253.170747 
L 633.431905 245.89771 
L 640.769738 244.592827 
L 648.107571 250.596154 
L 655.445404 248.116106 
L 662.783237 246.869434 
L 670.12107 251.164444 
L 677.458903 246.907911 
L 684.796736 222.401938 
L 684.796736 158.852187 
L 684.796736 158.852187 
L 677.458903 175.060001 
L 670.12107 170.985946 
L 662.783237 181.577802 
L 655.445404 179.272394 
L 648.107571 190.13532 
L 640.769738 181.158512 
L 633.431905 186.079699 
L 626.094073 184.186227 
L 618.75624 199.37545 
L 611.418407 162.950234 
L 604.080574 169.595785 
L 596.742741 158.117908 
L 589.404908 170.160688 
L 582.067075 162.300304 
L 574.729242 156.899265 
L 567.39141 161.416254 
L 560.053577 165.623854 
L 552.715744 168.589864 
L 545.377911 179.588272 
L 538.040078 178.622596 
L 530.702245 181.902675 
L 523.364412 195.667516 
L 516.026579 192.974818 
L 508.688747 192.602799 
L 501.350914 187.247257 
L 494.013081 192.188573 
L 486.675248 190.888356 
L 479.337415 204.072417 
L 471.999582 208.296077 
L 464.661749 201.172875 
L 457.323916 207.390823 
L 449.986084 204.34051 
L 442.648251 211.975516 
L 435.310418 213.555525 
L 427.972585 217.521614 
L 420.634752 226.161973 
L 413.296919 218.093682 
L 405.959086 227.083833 
L 398.621253 226.452139 
L 391.283421 231.062005 
L 383.945588 232.036689 
L 376.607755 237.250101 
L 369.269922 238.359582 
L 361.932089 244.664929 
L 354.594256 251.984385 
L 347.256423 248.800432 
L 339.91859 253.55765 
L 332.580758 263.300945 
L 325.242925 270.40609 
L 317.905092 272.105255 
L 310.567259 278.979142 
L 303.229426 282.736913 
L 295.891593 285.712788 
L 288.55376 289.019561 
L 281.215927 289.462281 
L 273.878095 294.940311 
L 266.540262 303.123568 
L 259.202429 307.468269 
L 251.864596 314.289815 
L 244.526763 316.553344 
L 237.18893 324.837657 
L 229.851097 328.742381 
L 222.513264 334.517612 
L 215.175432 338.347052 
L 207.837599 342.503501 
L 200.499766 353.376534 
L 193.161933 355.978391 
L 185.8241 363.820663 
L 178.486267 364.274957 
L 171.148434 375.828635 
L 163.810601 383.18499 
L 156.472769 393.179891 
L 149.134936 402.226996 
L 141.797103 414.106031 
L 134.45927 422.628238 
L 127.121437 435.337533 
L 119.783604 446.105572 
L 112.445771 458.686905 
L 105.107938 472.835715 
L 97.770106 491.104737 
L 90.432273 506.840148 
z
" clip-path="url(#p5e84cd7819)" style="fill: #ff7f0e; fill-opacity: 0.1"/>
   </g>
   <g id="FillBetweenPolyCollection_3">
    <path d="M 90.432273 486.294943 
L 90.432273 499.120429 
L 97.770106 491.685808 
L 105.107938 487.169784 
L 112.445771 480.192296 
L 119.783604 471.88066 
L 127.121437 464.846186 
L 134.45927 454.20861 
L 141.797103 450.585861 
L 149.134936 439.852686 
L 156.472769 431.515847 
L 163.810601 421.337816 
L 171.148434 421.055752 
L 178.486267 410.609956 
L 185.8241 407.217862 
L 193.161933 403.099248 
L 200.499766 398.346337 
L 207.837599 387.681957 
L 215.175432 384.006285 
L 222.513264 375.751331 
L 229.851097 369.593991 
L 237.18893 362.656043 
L 244.526763 359.135402 
L 251.864596 352.50966 
L 259.202429 349.785278 
L 266.540262 344.207139 
L 273.878095 339.625171 
L 281.215927 336.76191 
L 288.55376 328.617901 
L 295.891593 325.89883 
L 303.229426 325.419453 
L 310.567259 320.630549 
L 317.905092 307.612451 
L 325.242925 301.78933 
L 332.580758 297.483326 
L 339.91859 295.365708 
L 347.256423 291.748055 
L 354.594256 289.987007 
L 361.932089 287.527056 
L 369.269922 283.793863 
L 376.607755 279.798276 
L 383.945588 276.781836 
L 391.283421 273.228874 
L 398.621253 271.225912 
L 405.959086 267.124701 
L 413.296919 265.46258 
L 420.634752 257.338419 
L 427.972585 254.44668 
L 435.310418 251.190993 
L 442.648251 249.015971 
L 449.986084 246.452504 
L 457.323916 246.003452 
L 464.661749 245.217838 
L 471.999582 242.109622 
L 479.337415 238.929956 
L 486.675248 236.793721 
L 494.013081 234.586178 
L 501.350914 241.964815 
L 508.688747 238.030702 
L 516.026579 231.391449 
L 523.364412 232.315365 
L 530.702245 227.394263 
L 538.040078 223.332255 
L 545.377911 221.446295 
L 552.715744 216.979139 
L 560.053577 213.546868 
L 567.39141 209.205227 
L 574.729242 230.63517 
L 582.067075 231.39296 
L 589.404908 230.719064 
L 596.742741 228.599587 
L 604.080574 223.906955 
L 611.418407 223.407553 
L 618.75624 222.939494 
L 626.094073 249.004569 
L 633.431905 248.439638 
L 640.769738 244.629977 
L 648.107571 241.285946 
L 655.445404 241.285946 
L 662.783237 239.005108 
L 670.12107 235.238435 
L 677.458903 235.442772 
L 684.796736 228.964965 
L 684.796736 69.018879 
L 684.796736 69.018879 
L 677.458903 68.084182 
L 670.12107 69.275145 
L 662.783237 68.628886 
L 655.445404 75.747704 
L 648.107571 75.747704 
L 640.769738 84.705003 
L 633.431905 91.772975 
L 626.094073 98.79283 
L 618.75624 49.245455 
L 611.418407 51.400325 
L 604.080574 55.324342 
L 596.742741 61.630872 
L 589.404908 61.162445 
L 582.067075 67.523214 
L 574.729242 72.28998 
L 567.39141 74.625405 
L 560.053577 75.027384 
L 552.715744 77.715998 
L 545.377911 81.375601 
L 538.040078 85.310093 
L 530.702245 88.276383 
L 523.364412 89.61451 
L 516.026579 98.256989 
L 508.688747 103.367183 
L 501.350914 110.799969 
L 494.013081 116.117833 
L 486.675248 123.421723 
L 479.337415 123.708464 
L 471.999582 126.521393 
L 464.661749 132.697936 
L 457.323916 138.397198 
L 449.986084 143.259918 
L 442.648251 150.627794 
L 435.310418 152.100615 
L 427.972585 156.043122 
L 420.634752 161.04471 
L 413.296919 170.992021 
L 405.959086 172.502039 
L 398.621253 177.400395 
L 391.283421 182.15763 
L 383.945588 187.514803 
L 376.607755 193.151998 
L 369.269922 199.697591 
L 361.932089 200.216289 
L 354.594256 205.512294 
L 347.256423 207.81322 
L 339.91859 210.099012 
L 332.580758 216.49612 
L 325.242925 223.545021 
L 317.905092 225.359344 
L 310.567259 235.099669 
L 303.229426 238.390989 
L 295.891593 247.148346 
L 288.55376 251.681136 
L 281.215927 258.685559 
L 273.878095 266.841833 
L 266.540262 278.170982 
L 259.202429 284.594127 
L 251.864596 291.889242 
L 244.526763 299.641534 
L 237.18893 305.226865 
L 229.851097 315.555342 
L 222.513264 323.216644 
L 215.175432 327.382597 
L 207.837599 338.193498 
L 200.499766 350.249503 
L 193.161933 357.788594 
L 185.8241 363.341046 
L 178.486267 375.063707 
L 171.148434 382.156155 
L 163.810601 395.2938 
L 156.472769 403.774069 
L 149.134936 411.728924 
L 141.797103 426.386904 
L 134.45927 435.007266 
L 127.121437 442.630606 
L 119.783604 449.56578 
L 112.445771 453.550598 
L 105.107938 463.722093 
L 97.770106 478.662157 
L 90.432273 486.294943 
z
" clip-path="url(#p5e84cd7819)" style="fill: #2ca02c; fill-opacity: 0.2"/>
   </g>
   <g id="FillBetweenPolyCollection_4">
    <path d="M 90.432273 505.700272 
L 90.432273 510.396171 
L 97.770106 503.218144 
L 105.107938 498.176587 
L 112.445771 490.496092 
L 119.783604 483.609251 
L 127.121437 475.842346 
L 134.45927 469.253172 
L 141.797103 461.863839 
L 149.134936 454.651759 
L 156.472769 445.802234 
L 163.810601 437.360697 
L 171.148434 430.015273 
L 178.486267 426.545007 
L 185.8241 420.078631 
L 193.161933 412.642503 
L 200.499766 409.926007 
L 207.837599 403.506318 
L 215.175432 398.434404 
L 222.513264 391.451974 
L 229.851097 384.645112 
L 237.18893 378.966819 
L 244.526763 372.948985 
L 251.864596 365.313869 
L 259.202429 362.892162 
L 266.540262 358.228735 
L 273.878095 352.719546 
L 281.215927 349.401179 
L 288.55376 344.785678 
L 295.891593 338.874873 
L 303.229426 336.512041 
L 310.567259 334.823569 
L 317.905092 327.465135 
L 325.242925 323.876219 
L 332.580758 315.962175 
L 339.91859 309.913266 
L 347.256423 304.802601 
L 354.594256 301.201235 
L 361.932089 300.500499 
L 369.269922 296.446704 
L 376.607755 293.591752 
L 383.945588 289.340827 
L 391.283421 287.241692 
L 398.621253 285.850016 
L 405.959086 280.759107 
L 413.296919 279.866729 
L 420.634752 277.002793 
L 427.972585 274.325836 
L 435.310418 269.458123 
L 442.648251 264.652577 
L 449.986084 261.390439 
L 457.323916 256.21979 
L 464.661749 256.238924 
L 471.999582 253.659296 
L 479.337415 254.350654 
L 486.675248 250.498616 
L 494.013081 248.318604 
L 501.350914 255.165303 
L 508.688747 251.338309 
L 516.026579 248.09816 
L 523.364412 252.504618 
L 530.702245 243.030241 
L 538.040078 241.838652 
L 545.377911 237.320412 
L 552.715744 234.021344 
L 560.053577 228.499961 
L 567.39141 225.01683 
L 574.729242 245.482998 
L 582.067075 243.215197 
L 589.404908 246.474423 
L 596.742741 239.908337 
L 604.080574 240.245302 
L 611.418407 237.990802 
L 618.75624 236.064446 
L 626.094073 257.41108 
L 633.431905 260.591576 
L 640.769738 257.72212 
L 648.107571 250.933502 
L 655.445404 255.484101 
L 662.783237 251.744916 
L 670.12107 249.6904 
L 677.458903 244.634426 
L 684.796736 241.304933 
L 684.796736 84.585132 
L 684.796736 84.585132 
L 677.458903 86.830079 
L 670.12107 86.955319 
L 662.783237 98.227528 
L 655.445404 104.785562 
L 648.107571 102.027608 
L 640.769738 106.451711 
L 633.431905 118.739399 
L 626.094073 122.107787 
L 618.75624 64.708298 
L 611.418407 67.311191 
L 604.080574 75.205218 
L 596.742741 78.999959 
L 589.404908 82.72452 
L 582.067075 84.118069 
L 574.729242 91.123512 
L 567.39141 90.992716 
L 560.053577 95.252105 
L 552.715744 96.685519 
L 545.377911 105.009921 
L 538.040078 107.951548 
L 530.702245 110.633274 
L 523.364412 114.346072 
L 516.026579 126.087326 
L 508.688747 125.694392 
L 501.350914 129.174726 
L 494.013081 136.349585 
L 486.675248 141.812563 
L 479.337415 145.894142 
L 471.999582 147.617571 
L 464.661749 153.35026 
L 457.323916 162.733546 
L 449.986084 166.754878 
L 442.648251 171.579715 
L 435.310418 173.113557 
L 427.972585 177.730336 
L 420.634752 185.935014 
L 413.296919 190.044787 
L 405.959086 196.440729 
L 398.621253 199.541111 
L 391.283421 204.606543 
L 383.945588 206.070995 
L 376.607755 212.435899 
L 369.269922 215.089996 
L 361.932089 223.78228 
L 354.594256 225.065295 
L 347.256423 229.62891 
L 339.91859 235.440269 
L 332.580758 238.237722 
L 325.242925 239.676908 
L 317.905092 250.109187 
L 310.567259 255.408827 
L 303.229426 264.642739 
L 295.891593 268.410639 
L 288.55376 272.157552 
L 281.215927 279.174856 
L 273.878095 289.798623 
L 266.540262 298.608464 
L 259.202429 303.37709 
L 251.864596 313.02252 
L 244.526763 320.020638 
L 237.18893 328.210576 
L 229.851097 333.031165 
L 222.513264 341.557906 
L 215.175432 351.694496 
L 207.837599 359.467002 
L 200.499766 366.78633 
L 193.161933 373.808234 
L 185.8241 385.003377 
L 178.486267 392.809418 
L 171.148434 404.28068 
L 163.810601 414.608416 
L 156.472769 423.728162 
L 149.134936 433.921227 
L 141.797103 440.88123 
L 134.45927 447.150909 
L 127.121437 454.614407 
L 119.783604 464.660321 
L 112.445771 475.647998 
L 105.107938 485.264368 
L 97.770106 494.778311 
L 90.432273 505.700272 
z
" clip-path="url(#p5e84cd7819)" style="fill: #d62728; fill-opacity: 0.1"/>
   </g>
   <g id="FillBetweenPolyCollection_5">
    <path d="M 90.432273 485.976892 
L 90.432273 499.051755 
L 97.770106 490.125939 
L 105.107938 486.362116 
L 112.445771 482.548075 
L 119.783604 479.968634 
L 127.121437 476.329364 
L 134.45927 474.016864 
L 141.797103 469.92714 
L 149.134936 467.252928 
L 156.472769 464.956614 
L 163.810601 461.774423 
L 171.148434 460.525361 
L 178.486267 456.296405 
L 185.8241 453.543624 
L 193.161933 449.052173 
L 200.499766 443.759562 
L 207.837599 441.342807 
L 215.175432 435.051484 
L 222.513264 431.618361 
L 229.851097 426.930885 
L 237.18893 421.501511 
L 244.526763 419.55454 
L 251.864596 417.225731 
L 259.202429 411.856733 
L 266.540262 404.321992 
L 273.878095 401.491174 
L 281.215927 393.437392 
L 288.55376 388.477328 
L 295.891593 382.543638 
L 303.229426 376.779774 
L 310.567259 372.818992 
L 317.905092 372.519532 
L 325.242925 370.624759 
L 332.580758 366.383235 
L 339.91859 362.411592 
L 347.256423 360.467773 
L 354.594256 355.828327 
L 361.932089 351.82752 
L 369.269922 346.927713 
L 376.607755 351.1783 
L 383.945588 346.819499 
L 391.283421 346.028012 
L 398.621253 347.319414 
L 405.959086 337.547379 
L 413.296919 337.031267 
L 420.634752 334.957043 
L 420.634752 213.761721 
L 420.634752 213.761721 
L 413.296919 218.440166 
L 405.959086 224.694856 
L 398.621253 256.718054 
L 391.283421 273.945781 
L 383.945588 284.029111 
L 376.607755 286.861982 
L 369.269922 293.665314 
L 361.932089 297.602354 
L 354.594256 302.294724 
L 347.256423 304.743032 
L 339.91859 315.345785 
L 332.580758 319.186526 
L 325.242925 323.158451 
L 317.905092 331.835047 
L 310.567259 334.345156 
L 303.229426 346.17062 
L 295.891593 348.95913 
L 288.55376 351.924713 
L 281.215927 357.037569 
L 273.878095 359.773271 
L 266.540262 363.144743 
L 259.202429 365.415215 
L 251.864596 367.945267 
L 244.526763 373.972873 
L 237.18893 384.170531 
L 229.851097 387.540833 
L 222.513264 390.62339 
L 215.175432 403.318509 
L 207.837599 410.577418 
L 200.499766 412.709125 
L 193.161933 417.705833 
L 185.8241 422.988608 
L 178.486267 425.269955 
L 171.148434 430.018483 
L 163.810601 437.603009 
L 156.472769 443.998203 
L 149.134936 447.491438 
L 141.797103 452.291587 
L 134.45927 455.519791 
L 127.121437 458.840447 
L 119.783604 462.088181 
L 112.445771 466.013144 
L 105.107938 471.621933 
L 97.770106 476.908636 
L 90.432273 485.976892 
z
" clip-path="url(#p5e84cd7819)" style="fill: #9467bd; fill-opacity: 0.2"/>
   </g>
   <g id="FillBetweenPolyCollection_6">
    <path d="M 90.432273 501.956677 
L 90.432273 509.378843 
L 97.770106 500.762831 
L 105.107938 495.904822 
L 112.445771 490.338714 
L 119.783604 485.592193 
L 127.121437 482.165694 
L 134.45927 479.261685 
L 141.797103 475.896659 
L 149.134936 472.353703 
L 156.472769 469.263659 
L 163.810601 466.314632 
L 171.148434 463.709003 
L 178.486267 461.145513 
L 185.8241 458.665984 
L 193.161933 456.1306 
L 200.499766 453.293256 
L 207.837599 449.210806 
L 215.175432 443.322883 
L 222.513264 438.998435 
L 229.851097 435.638107 
L 237.18893 430.984308 
L 244.526763 426.531062 
L 251.864596 422.27696 
L 259.202429 420.555937 
L 266.540262 417.641926 
L 273.878095 411.382968 
L 281.215927 405.045692 
L 288.55376 401.394858 
L 295.891593 392.391909 
L 303.229426 388.538887 
L 310.567259 383.106683 
L 317.905092 378.272633 
L 325.242925 375.330584 
L 332.580758 373.472291 
L 339.91859 371.052706 
L 347.256423 366.801078 
L 354.594256 362.284573 
L 361.932089 361.008942 
L 369.269922 355.505438 
L 376.607755 356.998583 
L 383.945588 354.347151 
L 391.283421 351.078647 
L 398.621253 349.499316 
L 405.959086 341.793873 
L 413.296919 340.549237 
L 420.634752 337.734575 
L 420.634752 229.367966 
L 420.634752 229.367966 
L 413.296919 242.709967 
L 405.959086 248.709141 
L 398.621253 272.938552 
L 391.283421 287.481042 
L 383.945588 294.474278 
L 376.607755 297.466543 
L 369.269922 304.342013 
L 361.932089 308.439195 
L 354.594256 316.336914 
L 347.256423 320.327213 
L 339.91859 326.35564 
L 332.580758 332.251486 
L 325.242925 338.907209 
L 317.905092 346.271236 
L 310.567259 350.691787 
L 303.229426 352.986509 
L 295.891593 358.28517 
L 288.55376 361.461929 
L 281.215927 363.654212 
L 273.878095 366.225149 
L 266.540262 369.528335 
L 259.202429 376.106282 
L 251.864596 382.985811 
L 244.526763 388.898944 
L 237.18893 394.63791 
L 229.851097 401.455223 
L 222.513264 408.056058 
L 215.175432 413.619985 
L 207.837599 418.486381 
L 200.499766 422.102463 
L 193.161933 426.050688 
L 185.8241 431.127253 
L 178.486267 437.596801 
L 171.148434 443.476831 
L 163.810601 447.402634 
L 156.472769 450.828006 
L 149.134936 454.458095 
L 141.797103 458.206083 
L 134.45927 462.006466 
L 127.121437 465.84281 
L 119.783604 471.394074 
L 112.445771 477.978824 
L 105.107938 482.187252 
L 97.770106 492.102617 
L 90.432273 501.956677 
z
" clip-path="url(#p5e84cd7819)" style="fill: #8c564b; fill-opacity: 0.1"/>
   </g>
   <g id="FillBetweenPolyCollection_7">
    <path d="M 90.432273 478.785753 
L 90.432273 496.80074 
L 97.770106 485.160449 
L 105.107938 477.265216 
L 112.445771 467.806423 
L 119.783604 452.815908 
L 127.121437 443.176113 
L 134.45927 436.050253 
L 141.797103 424.844859 
L 149.134936 416.525481 
L 156.472769 403.818644 
L 163.810601 398.661089 
L 171.148434 390.049252 
L 178.486267 373.050645 
L 185.8241 366.033453 
L 193.161933 365.158867 
L 200.499766 363.522819 
L 207.837599 358.971186 
L 215.175432 357.116488 
L 222.513264 354.914916 
L 229.851097 335.647723 
L 237.18893 326.745932 
L 244.526763 319.913963 
L 251.864596 316.444135 
L 259.202429 313.136029 
L 266.540262 312.957022 
L 273.878095 304.5323 
L 281.215927 303.769523 
L 288.55376 304.462299 
L 295.891593 303.914281 
L 303.229426 303.897487 
L 310.567259 295.766013 
L 317.905092 294.151928 
L 325.242925 296.086447 
L 332.580758 295.550834 
L 339.91859 282.429535 
L 347.256423 279.637431 
L 354.594256 271.214724 
L 361.932089 269.318013 
L 369.269922 262.037932 
L 376.607755 262.302355 
L 383.945588 261.410983 
L 391.283421 257.239148 
L 398.621253 245.096343 
L 405.959086 245.096343 
L 413.296919 246.351582 
L 420.634752 246.351582 
L 427.972585 244.372436 
L 435.310418 241.573247 
L 442.648251 238.459139 
L 449.986084 237.161187 
L 457.323916 220.39715 
L 464.661749 216.427536 
L 471.999582 212.617226 
L 479.337415 212.571023 
L 486.675248 203.821092 
L 494.013081 202.463087 
L 501.350914 198.694601 
L 508.688747 192.231584 
L 516.026579 186.485661 
L 523.364412 185.193452 
L 530.702245 185.452172 
L 538.040078 186.625469 
L 545.377911 186.625469 
L 552.715744 186.139784 
L 560.053577 168.687986 
L 567.39141 168.926185 
L 574.729242 169.563527 
L 582.067075 160.747236 
L 589.404908 161.505569 
L 596.742741 176.1015 
L 604.080574 176.1015 
L 611.418407 176.1015 
L 618.75624 176.1015 
L 626.094073 166.636356 
L 633.431905 166.636356 
L 640.769738 166.636356 
L 648.107571 166.723133 
L 655.445404 166.723133 
L 655.445404 51.218422 
L 655.445404 51.218422 
L 648.107571 51.218422 
L 640.769738 51.724198 
L 633.431905 51.724198 
L 626.094073 51.724198 
L 618.75624 50.100236 
L 611.418407 50.100236 
L 604.080574 50.100236 
L 596.742741 50.100236 
L 589.404908 80.171404 
L 582.067075 85.566203 
L 574.729242 83.662538 
L 567.39141 87.552528 
L 560.053577 89.109056 
L 552.715744 104.616593 
L 545.377911 106.049303 
L 538.040078 106.049303 
L 530.702245 110.934157 
L 523.364412 112.195072 
L 516.026579 123.937904 
L 508.688747 125.110528 
L 501.350914 124.035006 
L 494.013081 126.292811 
L 486.675248 130.977243 
L 479.337415 131.329023 
L 471.999582 134.615091 
L 464.661749 133.801916 
L 457.323916 135.205458 
L 449.986084 137.496256 
L 442.648251 137.277845 
L 435.310418 151.475907 
L 427.972585 154.765977 
L 420.634752 157.490003 
L 413.296919 157.490003 
L 405.959086 161.985651 
L 398.621253 161.985651 
L 391.283421 166.877802 
L 383.945588 167.431909 
L 376.607755 172.786216 
L 369.269922 173.64842 
L 361.932089 177.190811 
L 354.594256 176.870011 
L 347.256423 187.751318 
L 339.91859 190.986906 
L 332.580758 193.882661 
L 325.242925 194.970457 
L 317.905092 220.683211 
L 310.567259 221.143348 
L 303.229426 241.511354 
L 295.891593 247.001965 
L 288.55376 247.274729 
L 281.215927 255.77171 
L 273.878095 256.926307 
L 266.540262 259.249705 
L 259.202429 270.617818 
L 251.864596 280.412108 
L 244.526763 281.731139 
L 237.18893 285.980303 
L 229.851097 292.93945 
L 222.513264 294.609916 
L 215.175432 298.626842 
L 207.837599 308.377158 
L 200.499766 315.265792 
L 193.161933 317.50386 
L 185.8241 318.531998 
L 178.486267 327.36789 
L 171.148434 342.879729 
L 163.810601 347.177628 
L 156.472769 357.057122 
L 149.134936 383.853242 
L 141.797103 402.146544 
L 134.45927 415.819834 
L 127.121437 423.429141 
L 119.783604 431.322401 
L 112.445771 443.827362 
L 105.107938 448.617395 
L 97.770106 468.086916 
L 90.432273 478.785753 
z
" clip-path="url(#p5e84cd7819)" style="fill: #e377c2; fill-opacity: 0.2"/>
   </g>
   <g id="FillBetweenPolyCollection_8">
    <path d="M 90.432273 504.21514 
L 90.432273 510.954545 
L 97.770106 500.258998 
L 105.107938 489.269851 
L 112.445771 480.887066 
L 119.783604 473.026204 
L 127.121437 461.887099 
L 134.45927 454.006634 
L 141.797103 445.311248 
L 149.134936 438.626254 
L 156.472769 432.653574 
L 163.810601 424.004231 
L 171.148434 416.420733 
L 178.486267 408.1156 
L 185.8241 399.83993 
L 193.161933 389.396875 
L 200.499766 385.055356 
L 207.837599 382.377303 
L 215.175432 379.821357 
L 222.513264 377.373479 
L 229.851097 373.306116 
L 237.18893 361.068832 
L 244.526763 357.793725 
L 251.864596 348.923766 
L 259.202429 349.562608 
L 266.540262 342.306677 
L 273.878095 339.308464 
L 281.215927 337.687454 
L 288.55376 333.548588 
L 295.891593 331.922137 
L 303.229426 330.910483 
L 310.567259 326.799057 
L 317.905092 322.404658 
L 325.242925 319.955804 
L 332.580758 322.772492 
L 339.91859 319.533896 
L 347.256423 318.341888 
L 354.594256 318.105162 
L 361.932089 311.436445 
L 369.269922 312.011684 
L 376.607755 305.882723 
L 383.945588 306.266075 
L 391.283421 300.951356 
L 398.621253 290.665095 
L 405.959086 284.345378 
L 413.296919 284.062927 
L 420.634752 285.850989 
L 427.972585 283.231263 
L 435.310418 288.304183 
L 442.648251 282.597419 
L 449.986084 273.986754 
L 457.323916 280.348098 
L 464.661749 274.145517 
L 471.999582 266.179437 
L 479.337415 257.758961 
L 486.675248 261.979752 
L 494.013081 262.971793 
L 501.350914 251.6048 
L 508.688747 258.738498 
L 516.026579 245.553459 
L 523.364412 249.661758 
L 530.702245 241.82799 
L 538.040078 250.435492 
L 545.377911 237.830042 
L 552.715744 235.542549 
L 560.053577 229.936855 
L 567.39141 237.505581 
L 574.729242 211.728091 
L 582.067075 211.198654 
L 589.404908 202.737997 
L 596.742741 216.110697 
L 604.080574 213.346897 
L 611.418407 230.532982 
L 618.75624 214.408367 
L 626.094073 219.050267 
L 633.431905 215.789246 
L 640.769738 216.623629 
L 648.107571 208.351279 
L 655.445404 199.613895 
L 655.445404 115.249758 
L 655.445404 115.249758 
L 648.107571 124.617655 
L 640.769738 114.409115 
L 633.431905 117.659379 
L 626.094073 117.470287 
L 618.75624 116.88448 
L 611.418407 129.927862 
L 604.080574 130.100291 
L 596.742741 118.28062 
L 589.404908 149.248645 
L 582.067075 151.122608 
L 574.729242 145.465244 
L 567.39141 137.61666 
L 560.053577 154.120975 
L 552.715744 169.955509 
L 545.377911 155.114714 
L 538.040078 161.638544 
L 530.702245 159.618844 
L 523.364412 175.810545 
L 516.026579 174.433756 
L 508.688747 170.595204 
L 501.350914 178.355123 
L 494.013081 185.013033 
L 486.675248 181.575304 
L 479.337415 180.751084 
L 471.999582 180.750233 
L 464.661749 179.254878 
L 457.323916 189.471709 
L 449.986084 187.700554 
L 442.648251 195.861869 
L 435.310418 196.601966 
L 427.972585 192.532773 
L 420.634752 207.390067 
L 413.296919 208.051702 
L 405.959086 204.532202 
L 398.621253 206.977671 
L 391.283421 206.464072 
L 383.945588 215.018326 
L 376.607755 219.295515 
L 369.269922 216.921205 
L 361.932089 219.926123 
L 354.594256 231.992287 
L 347.256423 233.351073 
L 339.91859 237.924439 
L 332.580758 248.903127 
L 325.242925 260.310665 
L 317.905092 266.766533 
L 310.567259 274.647128 
L 303.229426 284.86342 
L 295.891593 285.960399 
L 288.55376 295.669441 
L 281.215927 298.207828 
L 273.878095 306.506643 
L 266.540262 304.817864 
L 259.202429 313.390128 
L 251.864596 312.196939 
L 244.526763 319.257421 
L 237.18893 320.018909 
L 229.851097 324.63419 
L 222.513264 328.693899 
L 215.175432 336.205924 
L 207.837599 339.703167 
L 200.499766 348.257591 
L 193.161933 358.486796 
L 185.8241 363.678916 
L 178.486267 370.271746 
L 171.148434 379.570919 
L 163.810601 397.709773 
L 156.472769 410.904379 
L 149.134936 419.142938 
L 141.797103 428.487189 
L 134.45927 434.659037 
L 127.121437 443.142618 
L 119.783604 455.158273 
L 112.445771 466.524142 
L 105.107938 479.160168 
L 97.770106 492.750596 
L 90.432273 504.21514 
z
" clip-path="url(#p5e84cd7819)" style="fill: #7f7f7f; fill-opacity: 0.1"/>
   </g>
   <g id="matplotlib.axis_1">
    <g id="xtick_1">
     <g id="line2d_1">
      <path d="M 90.432273 534.04 
L 90.432273 26.16 
" clip-path="url(#p5e84cd7819)" style="fill: none; stroke: #b0b0b0; stroke-width: 0.8; stroke-linecap: square"/>
     </g>
     <g id="line2d_2">
      <defs>
       <path id="mf209b1d2e7" d="M 0 0 
L 0 3.5 
" style="stroke: #000000; stroke-width: 0.8"/>
      </defs>
      <g>
       <use xlink:href="#mf209b1d2e7" x="90.432273" y="534.04" style="stroke: #000000; stroke-width: 0.8"/>
      </g>
     </g>
     <g id="text_1">
      <!-- 0 -->
      <g transform="translate(87.251023 548.638438) scale(0.1 -0.1)">
       <defs>
        <path id="DejaVuSans-30" d="M 2034 4250 
Q 1547 4250 1301 3770 
Q 1056 3291 1056 2328 
Q 1056 1369 1301 889 
Q 1547 409 2034 409 
Q 2525 409 2770 889 
Q 3016 1369 3016 2328 
Q 3016 3291 2770 3770 
Q 2525 4250 2034 4250 
z
M 2034 4750 
Q 2819 4750 3233 4129 
Q 3647 3509 3647 2328 
Q 3647 1150 3233 529 
Q 2819 -91 2034 -91 
Q 1250 -91 836 529 
Q 422 1150 422 2328 
Q 422 3509 836 4129 
Q 1250 4750 2034 4750 
z
" transform="scale(0.015625)"/>
       </defs>
       <use xlink:href="#DejaVuSans-30"/>
      </g>
     </g>
    </g>
    <g id="xtick_2">
     <g id="line2d_3">
      <path d="M 237.18893 534.04 
L 237.18893 26.16 
" clip-path="url(#p5e84cd7819)" style="fill: none; stroke: #b0b0b0; stroke-width: 0.8; stroke-linecap: square"/>
     </g>
     <g id="line2d_4">
      <g>
       <use xlink:href="#mf209b1d2e7" x="237.18893" y="534.04" style="stroke: #000000; stroke-width: 0.8"/>
      </g>
     </g>
     <g id="text_2">
      <!-- 20 -->
      <g transform="translate(230.82643 548.638438) scale(0.1 -0.1)">
       <defs>
        <path id="DejaVuSans-32" d="M 1228 531 
L 3431 531 
L 3431 0 
L 469 0 
L 469 531 
Q 828 903 1448 1529 
Q 2069 2156 2228 2338 
Q 2531 2678 2651 2914 
Q 2772 3150 2772 3378 
Q 2772 3750 2511 3984 
Q 2250 4219 1831 4219 
Q 1534 4219 1204 4116 
Q 875 4013 500 3803 
L 500 4441 
Q 881 4594 1212 4672 
Q 1544 4750 1819 4750 
Q 2544 4750 2975 4387 
Q 3406 4025 3406 3419 
Q 3406 3131 3298 2873 
Q 3191 2616 2906 2266 
Q 2828 2175 2409 1742 
Q 1991 1309 1228 531 
z
" transform="scale(0.015625)"/>
       </defs>
       <use xlink:href="#DejaVuSans-32"/>
       <use xlink:href="#DejaVuSans-30" transform="translate(63.623047 0)"/>
      </g>
     </g>
    </g>
    <g id="xtick_3">
     <g id="line2d_5">
      <path d="M 383.945588 534.04 
L 383.945588 26.16 
" clip-path="url(#p5e84cd7819)" style="fill: none; stroke: #b0b0b0; stroke-width: 0.8; stroke-linecap: square"/>
     </g>
     <g id="line2d_6">
      <g>
       <use xlink:href="#mf209b1d2e7" x="383.945588" y="534.04" style="stroke: #000000; stroke-width: 0.8"/>
      </g>
     </g>
     <g id="text_3">
      <!-- 40 -->
      <g transform="translate(377.583088 548.638438) scale(0.1 -0.1)">
       <defs>
        <path id="DejaVuSans-34" d="M 2419 4116 
L 825 1625 
L 2419 1625 
L 2419 4116 
z
M 2253 4666 
L 3047 4666 
L 3047 1625 
L 3713 1625 
L 3713 1100 
L 3047 1100 
L 3047 0 
L 2419 0 
L 2419 1100 
L 313 1100 
L 313 1709 
L 2253 4666 
z
" transform="scale(0.015625)"/>
       </defs>
       <use xlink:href="#DejaVuSans-34"/>
       <use xlink:href="#DejaVuSans-30" transform="translate(63.623047 0)"/>
      </g>
     </g>
    </g>
    <g id="xtick_4">
     <g id="line2d_7">
      <path d="M 530.702245 534.04 
L 530.702245 26.16 
" clip-path="url(#p5e84cd7819)" style="fill: none; stroke: #b0b0b0; stroke-width: 0.8; stroke-linecap: square"/>
     </g>
     <g id="line2d_8">
      <g>
       <use xlink:href="#mf209b1d2e7" x="530.702245" y="534.04" style="stroke: #000000; stroke-width: 0.8"/>
      </g>
     </g>
     <g id="text_4">
      <!-- 60 -->
      <g transform="translate(524.339745 548.638438) scale(0.1 -0.1)">
       <defs>
        <path id="DejaVuSans-36" d="M 2113 2584 
Q 1688 2584 1439 2293 
Q 1191 2003 1191 1497 
Q 1191 994 1439 701 
Q 1688 409 2113 409 
Q 2538 409 2786 701 
Q 3034 994 3034 1497 
Q 3034 2003 2786 2293 
Q 2538 2584 2113 2584 
z
M 3366 4563 
L 3366 3988 
Q 3128 4100 2886 4159 
Q 2644 4219 2406 4219 
Q 1781 4219 1451 3797 
Q 1122 3375 1075 2522 
Q 1259 2794 1537 2939 
Q 1816 3084 2150 3084 
Q 2853 3084 3261 2657 
Q 3669 2231 3669 1497 
Q 3669 778 3244 343 
Q 2819 -91 2113 -91 
Q 1303 -91 875 529 
Q 447 1150 447 2328 
Q 447 3434 972 4092 
Q 1497 4750 2381 4750 
Q 2619 4750 2861 4703 
Q 3103 4656 3366 4563 
z
" transform="scale(0.015625)"/>
       </defs>
       <use xlink:href="#DejaVuSans-36"/>
       <use xlink:href="#DejaVuSans-30" transform="translate(63.623047 0)"/>
      </g>
     </g>
    </g>
    <g id="xtick_5">
     <g id="line2d_9">
      <path d="M 677.458903 534.04 
L 677.458903 26.16 
" clip-path="url(#p5e84cd7819)" style="fill: none; stroke: #b0b0b0; stroke-width: 0.8; stroke-linecap: square"/>
     </g>
     <g id="line2d_10">
      <g>
       <use xlink:href="#mf209b1d2e7" x="677.458903" y="534.04" style="stroke: #000000; stroke-width: 0.8"/>
      </g>
     </g>
     <g id="text_5">
      <!-- 80 -->
      <g transform="translate(671.096403 548.638438) scale(0.1 -0.1)">
       <defs>
        <path id="DejaVuSans-38" d="M 2034 2216 
Q 1584 2216 1326 1975 
Q 1069 1734 1069 1313 
Q 1069 891 1326 650 
Q 1584 409 2034 409 
Q 2484 409 2743 651 
Q 3003 894 3003 1313 
Q 3003 1734 2745 1975 
Q 2488 2216 2034 2216 
z
M 1403 2484 
Q 997 2584 770 2862 
Q 544 3141 544 3541 
Q 544 4100 942 4425 
Q 1341 4750 2034 4750 
Q 2731 4750 3128 4425 
Q 3525 4100 3525 3541 
Q 3525 3141 3298 2862 
Q 3072 2584 2669 2484 
Q 3125 2378 3379 2068 
Q 3634 1759 3634 1313 
Q 3634 634 3220 271 
Q 2806 -91 2034 -91 
Q 1263 -91 848 271 
Q 434 634 434 1313 
Q 434 1759 690 2068 
Q 947 2378 1403 2484 
z
M 1172 3481 
Q 1172 3119 1398 2916 
Q 1625 2713 2034 2713 
Q 2441 2713 2670 2916 
Q 2900 3119 2900 3481 
Q 2900 3844 2670 4047 
Q 2441 4250 2034 4250 
Q 1625 4250 1398 4047 
Q 1172 3844 1172 3481 
z
" transform="scale(0.015625)"/>
       </defs>
       <use xlink:href="#DejaVuSans-38"/>
       <use xlink:href="#DejaVuSans-30" transform="translate(63.623047 0)"/>
      </g>
     </g>
    </g>
    <g id="xtick_6">
     <g id="line2d_11">
      <path d="M 824.21556 534.04 
L 824.21556 26.16 
" clip-path="url(#p5e84cd7819)" style="fill: none; stroke: #b0b0b0; stroke-width: 0.8; stroke-linecap: square"/>
     </g>
     <g id="line2d_12">
      <g>
       <use xlink:href="#mf209b1d2e7" x="824.21556" y="534.04" style="stroke: #000000; stroke-width: 0.8"/>
      </g>
     </g>
     <g id="text_6">
      <!-- 100 -->
      <g transform="translate(814.67181 548.638438) scale(0.1 -0.1)">
       <defs>
        <path id="DejaVuSans-31" d="M 794 531 
L 1825 531 
L 1825 4091 
L 703 3866 
L 703 4441 
L 1819 4666 
L 2450 4666 
L 2450 531 
L 3481 531 
L 3481 0 
L 794 0 
L 794 531 
z
" transform="scale(0.015625)"/>
       </defs>
       <use xlink:href="#DejaVuSans-31"/>
       <use xlink:href="#DejaVuSans-30" transform="translate(63.623047 0)"/>
       <use xlink:href="#DejaVuSans-30" transform="translate(127.246094 0)"/>
      </g>
     </g>
    </g>
    <g id="text_7">
     <!-- Generation -->
     <g transform="translate(425.762031 562.316562) scale(0.1 -0.1)">
      <defs>
       <path id="DejaVuSans-47" d="M 3809 666 
L 3809 1919 
L 2778 1919 
L 2778 2438 
L 4434 2438 
L 4434 434 
Q 4069 175 3628 42 
Q 3188 -91 2688 -91 
Q 1594 -91 976 548 
Q 359 1188 359 2328 
Q 359 3472 976 4111 
Q 1594 4750 2688 4750 
Q 3144 4750 3555 4637 
Q 3966 4525 4313 4306 
L 4313 3634 
Q 3963 3931 3569 4081 
Q 3175 4231 2741 4231 
Q 1884 4231 1454 3753 
Q 1025 3275 1025 2328 
Q 1025 1384 1454 906 
Q 1884 428 2741 428 
Q 3075 428 3337 486 
Q 3600 544 3809 666 
z
" transform="scale(0.015625)"/>
       <path id="DejaVuSans-65" d="M 3597 1894 
L 3597 1613 
L 953 1613 
Q 991 1019 1311 708 
Q 1631 397 2203 397 
Q 2534 397 2845 478 
Q 3156 559 3463 722 
L 3463 178 
Q 3153 47 2828 -22 
Q 2503 -91 2169 -91 
Q 1331 -91 842 396 
Q 353 884 353 1716 
Q 353 2575 817 3079 
Q 1281 3584 2069 3584 
Q 2775 3584 3186 3129 
Q 3597 2675 3597 1894 
z
M 3022 2063 
Q 3016 2534 2758 2815 
Q 2500 3097 2075 3097 
Q 1594 3097 1305 2825 
Q 1016 2553 972 2059 
L 3022 2063 
z
" transform="scale(0.015625)"/>
       <path id="DejaVuSans-6e" d="M 3513 2113 
L 3513 0 
L 2938 0 
L 2938 2094 
Q 2938 2591 2744 2837 
Q 2550 3084 2163 3084 
Q 1697 3084 1428 2787 
Q 1159 2491 1159 1978 
L 1159 0 
L 581 0 
L 581 3500 
L 1159 3500 
L 1159 2956 
Q 1366 3272 1645 3428 
Q 1925 3584 2291 3584 
Q 2894 3584 3203 3211 
Q 3513 2838 3513 2113 
z
" transform="scale(0.015625)"/>
       <path id="DejaVuSans-72" d="M 2631 2963 
Q 2534 3019 2420 3045 
Q 2306 3072 2169 3072 
Q 1681 3072 1420 2755 
Q 1159 2438 1159 1844 
L 1159 0 
L 581 0 
L 581 3500 
L 1159 3500 
L 1159 2956 
Q 1341 3275 1631 3429 
Q 1922 3584 2338 3584 
Q 2397 3584 2469 3576 
Q 2541 3569 2628 3553 
L 2631 2963 
z
" transform="scale(0.015625)"/>
       <path id="DejaVuSans-61" d="M 2194 1759 
Q 1497 1759 1228 1600 
Q 959 1441 959 1056 
Q 959 750 1161 570 
Q 1363 391 1709 391 
Q 2188 391 2477 730 
Q 2766 1069 2766 1631 
L 2766 1759 
L 2194 1759 
z
M 3341 1997 
L 3341 0 
L 2766 0 
L 2766 531 
Q 2569 213 2275 61 
Q 1981 -91 1556 -91 
Q 1019 -91 701 211 
Q 384 513 384 1019 
Q 384 1609 779 1909 
Q 1175 2209 1959 2209 
L 2766 2209 
L 2766 2266 
Q 2766 2663 2505 2880 
Q 2244 3097 1772 3097 
Q 1472 3097 1187 3025 
Q 903 2953 641 2809 
L 641 3341 
Q 956 3463 1253 3523 
Q 1550 3584 1831 3584 
Q 2591 3584 2966 3190 
Q 3341 2797 3341 1997 
z
" transform="scale(0.015625)"/>
       <path id="DejaVuSans-74" d="M 1172 4494 
L 1172 3500 
L 2356 3500 
L 2356 3053 
L 1172 3053 
L 1172 1153 
Q 1172 725 1289 603 
Q 1406 481 1766 481 
L 2356 481 
L 2356 0 
L 1766 0 
Q 1100 0 847 248 
Q 594 497 594 1153 
L 594 3053 
L 172 3053 
L 172 3500 
L 594 3500 
L 594 4494 
L 1172 4494 
z
" transform="scale(0.015625)"/>
       <path id="DejaVuSans-69" d="M 603 3500 
L 1178 3500 
L 1178 0 
L 603 0 
L 603 3500 
z
M 603 4863 
L 1178 4863 
L 1178 4134 
L 603 4134 
L 603 4863 
z
" transform="scale(0.015625)"/>
       <path id="DejaVuSans-6f" d="M 1959 3097 
Q 1497 3097 1228 2736 
Q 959 2375 959 1747 
Q 959 1119 1226 758 
Q 1494 397 1959 397 
Q 2419 397 2687 759 
Q 2956 1122 2956 1747 
Q 2956 2369 2687 2733 
Q 2419 3097 1959 3097 
z
M 1959 3584 
Q 2709 3584 3137 3096 
Q 3566 2609 3566 1747 
Q 3566 888 3137 398 
Q 2709 -91 1959 -91 
Q 1206 -91 779 398 
Q 353 888 353 1747 
Q 353 2609 779 3096 
Q 1206 3584 1959 3584 
z
" transform="scale(0.015625)"/>
      </defs>
      <use xlink:href="#DejaVuSans-47"/>
      <use xlink:href="#DejaVuSans-65" transform="translate(77.490234 0)"/>
      <use xlink:href="#DejaVuSans-6e" transform="translate(139.013672 0)"/>
      <use xlink:href="#DejaVuSans-65" transform="translate(202.392578 0)"/>
      <use xlink:href="#DejaVuSans-72" transform="translate(263.916016 0)"/>
      <use xlink:href="#DejaVuSans-61" transform="translate(305.029297 0)"/>
      <use xlink:href="#DejaVuSans-74" transform="translate(366.308594 0)"/>
      <use xlink:href="#DejaVuSans-69" transform="translate(405.517578 0)"/>
      <use xlink:href="#DejaVuSans-6f" transform="translate(433.300781 0)"/>
      <use xlink:href="#DejaVuSans-6e" transform="translate(494.482422 0)"/>
     </g>
    </g>
   </g>
   <g id="matplotlib.axis_2">
    <g id="ytick_1">
     <g id="line2d_13">
      <path d="M 54.11 509.998362 
L 853.2 509.998362 
" clip-path="url(#p5e84cd7819)" style="fill: none; stroke: #b0b0b0; stroke-width: 0.8; stroke-linecap: square"/>
     </g>
     <g id="line2d_14">
      <defs>
       <path id="m3502b2bd3e" d="M 0 0 
L -3.5 0 
" style="stroke: #000000; stroke-width: 0.8"/>
      </defs>
      <g>
       <use xlink:href="#m3502b2bd3e" x="54.11" y="509.998362" style="stroke: #000000; stroke-width: 0.8"/>
      </g>
     </g>
     <g id="text_8">
      <!-- 5.0 -->
      <g transform="translate(31.206875 513.797581) scale(0.1 -0.1)">
       <defs>
        <path id="DejaVuSans-35" d="M 691 4666 
L 3169 4666 
L 3169 4134 
L 1269 4134 
L 1269 2991 
Q 1406 3038 1543 3061 
Q 1681 3084 1819 3084 
Q 2600 3084 3056 2656 
Q 3513 2228 3513 1497 
Q 3513 744 3044 326 
Q 2575 -91 1722 -91 
Q 1428 -91 1123 -41 
Q 819 9 494 109 
L 494 744 
Q 775 591 1075 516 
Q 1375 441 1709 441 
Q 2250 441 2565 725 
Q 2881 1009 2881 1497 
Q 2881 1984 2565 2268 
Q 2250 2553 1709 2553 
Q 1456 2553 1204 2497 
Q 953 2441 691 2322 
L 691 4666 
z
" transform="scale(0.015625)"/>
        <path id="DejaVuSans-2e" d="M 684 794 
L 1344 794 
L 1344 0 
L 684 0 
L 684 794 
z
" transform="scale(0.015625)"/>
       </defs>
       <use xlink:href="#DejaVuSans-35"/>
       <use xlink:href="#DejaVuSans-2e" transform="translate(63.623047 0)"/>
       <use xlink:href="#DejaVuSans-30" transform="translate(95.410156 0)"/>
      </g>
     </g>
    </g>
    <g id="ytick_2">
     <g id="line2d_15">
      <path d="M 54.11 446.079324 
L 853.2 446.079324 
" clip-path="url(#p5e84cd7819)" style="fill: none; stroke: #b0b0b0; stroke-width: 0.8; stroke-linecap: square"/>
     </g>
     <g id="line2d_16">
      <g>
       <use xlink:href="#m3502b2bd3e" x="54.11" y="446.079324" style="stroke: #000000; stroke-width: 0.8"/>
      </g>
     </g>
     <g id="text_9">
      <!-- 7.5 -->
      <g transform="translate(31.206875 449.878543) scale(0.1 -0.1)">
       <defs>
        <path id="DejaVuSans-37" d="M 525 4666 
L 3525 4666 
L 3525 4397 
L 1831 0 
L 1172 0 
L 2766 4134 
L 525 4134 
L 525 4666 
z
" transform="scale(0.015625)"/>
       </defs>
       <use xlink:href="#DejaVuSans-37"/>
       <use xlink:href="#DejaVuSans-2e" transform="translate(63.623047 0)"/>
       <use xlink:href="#DejaVuSans-35" transform="translate(95.410156 0)"/>
      </g>
     </g>
    </g>
    <g id="ytick_3">
     <g id="line2d_17">
      <path d="M 54.11 382.160286 
L 853.2 382.160286 
" clip-path="url(#p5e84cd7819)" style="fill: none; stroke: #b0b0b0; stroke-width: 0.8; stroke-linecap: square"/>
     </g>
     <g id="line2d_18">
      <g>
       <use xlink:href="#m3502b2bd3e" x="54.11" y="382.160286" style="stroke: #000000; stroke-width: 0.8"/>
      </g>
     </g>
     <g id="text_10">
      <!-- 10.0 -->
      <g transform="translate(24.844375 385.959505) scale(0.1 -0.1)">
       <use xlink:href="#DejaVuSans-31"/>
       <use xlink:href="#DejaVuSans-30" transform="translate(63.623047 0)"/>
       <use xlink:href="#DejaVuSans-2e" transform="translate(127.246094 0)"/>
       <use xlink:href="#DejaVuSans-30" transform="translate(159.033203 0)"/>
      </g>
     </g>
    </g>
    <g id="ytick_4">
     <g id="line2d_19">
      <path d="M 54.11 318.241249 
L 853.2 318.241249 
" clip-path="url(#p5e84cd7819)" style="fill: none; stroke: #b0b0b0; stroke-width: 0.8; stroke-linecap: square"/>
     </g>
     <g id="line2d_20">
      <g>
       <use xlink:href="#m3502b2bd3e" x="54.11" y="318.241249" style="stroke: #000000; stroke-width: 0.8"/>
      </g>
     </g>
     <g id="text_11">
      <!-- 12.5 -->
      <g transform="translate(24.844375 322.040468) scale(0.1 -0.1)">
       <use xlink:href="#DejaVuSans-31"/>
       <use xlink:href="#DejaVuSans-32" transform="translate(63.623047 0)"/>
       <use xlink:href="#DejaVuSans-2e" transform="translate(127.246094 0)"/>
       <use xlink:href="#DejaVuSans-35" transform="translate(159.033203 0)"/>
      </g>
     </g>
    </g>
    <g id="ytick_5">
     <g id="line2d_21">
      <path d="M 54.11 254.322211 
L 853.2 254.322211 
" clip-path="url(#p5e84cd7819)" style="fill: none; stroke: #b0b0b0; stroke-width: 0.8; stroke-linecap: square"/>
     </g>
     <g id="line2d_22">
      <g>
       <use xlink:href="#m3502b2bd3e" x="54.11" y="254.322211" style="stroke: #000000; stroke-width: 0.8"/>
      </g>
     </g>
     <g id="text_12">
      <!-- 15.0 -->
      <g transform="translate(24.844375 258.12143) scale(0.1 -0.1)">
       <use xlink:href="#DejaVuSans-31"/>
       <use xlink:href="#DejaVuSans-35" transform="translate(63.623047 0)"/>
       <use xlink:href="#DejaVuSans-2e" transform="translate(127.246094 0)"/>
       <use xlink:href="#DejaVuSans-30" transform="translate(159.033203 0)"/>
      </g>
     </g>
    </g>
    <g id="ytick_6">
     <g id="line2d_23">
      <path d="M 54.11 190.403173 
L 853.2 190.403173 
" clip-path="url(#p5e84cd7819)" style="fill: none; stroke: #b0b0b0; stroke-width: 0.8; stroke-linecap: square"/>
     </g>
     <g id="line2d_24">
      <g>
       <use xlink:href="#m3502b2bd3e" x="54.11" y="190.403173" style="stroke: #000000; stroke-width: 0.8"/>
      </g>
     </g>
     <g id="text_13">
      <!-- 17.5 -->
      <g transform="translate(24.844375 194.202392) scale(0.1 -0.1)">
       <use xlink:href="#DejaVuSans-31"/>
       <use xlink:href="#DejaVuSans-37" transform="translate(63.623047 0)"/>
       <use xlink:href="#DejaVuSans-2e" transform="translate(127.246094 0)"/>
       <use xlink:href="#DejaVuSans-35" transform="translate(159.033203 0)"/>
      </g>
     </g>
    </g>
    <g id="ytick_7">
     <g id="line2d_25">
      <path d="M 54.11 126.484136 
L 853.2 126.484136 
" clip-path="url(#p5e84cd7819)" style="fill: none; stroke: #b0b0b0; stroke-width: 0.8; stroke-linecap: square"/>
     </g>
     <g id="line2d_26">
      <g>
       <use xlink:href="#m3502b2bd3e" x="54.11" y="126.484136" style="stroke: #000000; stroke-width: 0.8"/>
      </g>
     </g>
     <g id="text_14">
      <!-- 20.0 -->
      <g transform="translate(24.844375 130.283354) scale(0.1 -0.1)">
       <use xlink:href="#DejaVuSans-32"/>
       <use xlink:href="#DejaVuSans-30" transform="translate(63.623047 0)"/>
       <use xlink:href="#DejaVuSans-2e" transform="translate(127.246094 0)"/>
       <use xlink:href="#DejaVuSans-30" transform="translate(159.033203 0)"/>
      </g>
     </g>
    </g>
    <g id="ytick_8">
     <g id="line2d_27">
      <path d="M 54.11 62.565098 
L 853.2 62.565098 
" clip-path="url(#p5e84cd7819)" style="fill: none; stroke: #b0b0b0; stroke-width: 0.8; stroke-linecap: square"/>
     </g>
     <g id="line2d_28">
      <g>
       <use xlink:href="#m3502b2bd3e" x="54.11" y="62.565098" style="stroke: #000000; stroke-width: 0.8"/>
      </g>
     </g>
     <g id="text_15">
      <!-- 22.5 -->
      <g transform="translate(24.844375 66.364317) scale(0.1 -0.1)">
       <use xlink:href="#DejaVuSans-32"/>
       <use xlink:href="#DejaVuSans-32" transform="translate(63.623047 0)"/>
       <use xlink:href="#DejaVuSans-2e" transform="translate(127.246094 0)"/>
       <use xlink:href="#DejaVuSans-35" transform="translate(159.033203 0)"/>
      </g>
     </g>
    </g>
    <g id="text_16">
     <!-- Fitness (↑ = better) -->
     <g transform="translate(18.764687 329.76875) rotate(-90) scale(0.1 -0.1)">
      <defs>
       <path id="DejaVuSans-46" d="M 628 4666 
L 3309 4666 
L 3309 4134 
L 1259 4134 
L 1259 2759 
L 3109 2759 
L 3109 2228 
L 1259 2228 
L 1259 0 
L 628 0 
L 628 4666 
z
" transform="scale(0.015625)"/>
       <path id="DejaVuSans-73" d="M 2834 3397 
L 2834 2853 
Q 2591 2978 2328 3040 
Q 2066 3103 1784 3103 
Q 1356 3103 1142 2972 
Q 928 2841 928 2578 
Q 928 2378 1081 2264 
Q 1234 2150 1697 2047 
L 1894 2003 
Q 2506 1872 2764 1633 
Q 3022 1394 3022 966 
Q 3022 478 2636 193 
Q 2250 -91 1575 -91 
Q 1294 -91 989 -36 
Q 684 19 347 128 
L 347 722 
Q 666 556 975 473 
Q 1284 391 1588 391 
Q 1994 391 2212 530 
Q 2431 669 2431 922 
Q 2431 1156 2273 1281 
Q 2116 1406 1581 1522 
L 1381 1569 
Q 847 1681 609 1914 
Q 372 2147 372 2553 
Q 372 3047 722 3315 
Q 1072 3584 1716 3584 
Q 2034 3584 2315 3537 
Q 2597 3491 2834 3397 
z
" transform="scale(0.015625)"/>
       <path id="DejaVuSans-20" transform="scale(0.015625)"/>
       <path id="DejaVuSans-28" d="M 1984 4856 
Q 1566 4138 1362 3434 
Q 1159 2731 1159 2009 
Q 1159 1288 1364 580 
Q 1569 -128 1984 -844 
L 1484 -844 
Q 1016 -109 783 600 
Q 550 1309 550 2009 
Q 550 2706 781 3412 
Q 1013 4119 1484 4856 
L 1984 4856 
z
" transform="scale(0.015625)"/>
       <path id="DejaVuSans-2191" d="M 2541 4688 
L 2822 4688 
L 4047 3456 
L 3672 3081 
L 2947 3813 
L 2947 0 
L 2416 0 
L 2416 3813 
L 1684 3081 
L 1309 3456 
L 2541 4688 
z
" transform="scale(0.015625)"/>
       <path id="DejaVuSans-3d" d="M 678 2906 
L 4684 2906 
L 4684 2381 
L 678 2381 
L 678 2906 
z
M 678 1631 
L 4684 1631 
L 4684 1100 
L 678 1100 
L 678 1631 
z
" transform="scale(0.015625)"/>
       <path id="DejaVuSans-62" d="M 3116 1747 
Q 3116 2381 2855 2742 
Q 2594 3103 2138 3103 
Q 1681 3103 1420 2742 
Q 1159 2381 1159 1747 
Q 1159 1113 1420 752 
Q 1681 391 2138 391 
Q 2594 391 2855 752 
Q 3116 1113 3116 1747 
z
M 1159 2969 
Q 1341 3281 1617 3432 
Q 1894 3584 2278 3584 
Q 2916 3584 3314 3078 
Q 3713 2572 3713 1747 
Q 3713 922 3314 415 
Q 2916 -91 2278 -91 
Q 1894 -91 1617 61 
Q 1341 213 1159 525 
L 1159 0 
L 581 0 
L 581 4863 
L 1159 4863 
L 1159 2969 
z
" transform="scale(0.015625)"/>
       <path id="DejaVuSans-29" d="M 513 4856 
L 1013 4856 
Q 1481 4119 1714 3412 
Q 1947 2706 1947 2009 
Q 1947 1309 1714 600 
Q 1481 -109 1013 -844 
L 513 -844 
Q 928 -128 1133 580 
Q 1338 1288 1338 2009 
Q 1338 2731 1133 3434 
Q 928 4138 513 4856 
z
" transform="scale(0.015625)"/>
      </defs>
      <use xlink:href="#DejaVuSans-46"/>
      <use xlink:href="#DejaVuSans-69" transform="translate(50.269531 0)"/>
      <use xlink:href="#DejaVuSans-74" transform="translate(78.052734 0)"/>
      <use xlink:href="#DejaVuSans-6e" transform="translate(117.261719 0)"/>
      <use xlink:href="#DejaVuSans-65" transform="translate(180.640625 0)"/>
      <use xlink:href="#DejaVuSans-73" transform="translate(242.164062 0)"/>
      <use xlink:href="#DejaVuSans-73" transform="translate(294.263672 0)"/>
      <use xlink:href="#DejaVuSans-20" transform="translate(346.363281 0)"/>
      <use xlink:href="#DejaVuSans-28" transform="translate(378.150391 0)"/>
      <use xlink:href="#DejaVuSans-2191" transform="translate(417.164062 0)"/>
      <use xlink:href="#DejaVuSans-20" transform="translate(500.953125 0)"/>
      <use xlink:href="#DejaVuSans-3d" transform="translate(532.740234 0)"/>
      <use xlink:href="#DejaVuSans-20" transform="translate(616.529297 0)"/>
      <use xlink:href="#DejaVuSans-62" transform="translate(648.316406 0)"/>
      <use xlink:href="#DejaVuSans-65" transform="translate(711.792969 0)"/>
      <use xlink:href="#DejaVuSans-74" transform="translate(773.316406 0)"/>
      <use xlink:href="#DejaVuSans-74" transform="translate(812.525391 0)"/>
      <use xlink:href="#DejaVuSans-65" transform="translate(851.734375 0)"/>
      <use xlink:href="#DejaVuSans-72" transform="translate(913.257812 0)"/>
      <use xlink:href="#DejaVuSans-29" transform="translate(954.371094 0)"/>
     </g>
    </g>
   </g>
   <g id="line2d_29">
    <path d="M 90.432273 485.440812 
L 97.770106 475.059691 
L 105.107938 458.950068 
L 112.445771 444.341164 
L 119.783604 434.58808 
L 127.121437 424.839209 
L 134.45927 414.925735 
L 141.797103 404.742499 
L 149.134936 393.200806 
L 156.472769 378.258445 
L 163.810601 372.417147 
L 171.148434 367.043211 
L 178.486267 359.255389 
L 185.8241 353.696105 
L 193.161933 350.108454 
L 200.499766 344.149251 
L 207.837599 338.667649 
L 215.175432 329.62436 
L 222.513264 328.098331 
L 229.851097 322.377173 
L 237.18893 319.411016 
L 244.526763 311.159922 
L 251.864596 307.910499 
L 259.202429 302.740986 
L 266.540262 299.111093 
L 273.878095 296.197772 
L 281.215927 288.621011 
L 288.55376 288.461575 
L 295.891593 284.716153 
L 303.229426 278.470046 
L 310.567259 275.738166 
L 317.905092 271.510912 
L 325.242925 268.627821 
L 332.580758 264.869389 
L 339.91859 260.636526 
L 347.256423 256.004123 
L 354.594256 253.413373 
L 361.932089 250.765838 
L 369.269922 247.056606 
L 376.607755 243.683171 
L 383.945588 240.675228 
L 391.283421 239.262804 
L 398.621253 237.04288 
L 405.959086 233.261923 
L 413.296919 230.70359 
L 420.634752 225.182458 
L 427.972585 219.8772 
L 435.310418 216.421468 
L 442.648251 215.348677 
L 449.986084 212.070319 
L 457.323916 211.399261 
L 464.661749 209.712742 
L 471.999582 203.680109 
L 479.337415 202.438445 
L 486.675248 200.811586 
L 494.013081 197.786133 
L 501.350914 199.055105 
L 508.688747 198.170891 
L 516.026579 196.301462 
L 523.364412 193.580601 
L 530.702245 187.069556 
L 538.040078 186.893381 
L 545.377911 185.816529 
L 552.715744 185.591333 
L 560.053577 180.657615 
L 567.39141 179.536822 
L 574.729242 175.88724 
L 582.067075 175.611146 
L 589.404908 175.099234 
L 596.742741 174.59939 
L 604.080574 172.24511 
L 611.418407 168.691643 
L 618.75624 184.314079 
L 626.094073 183.753839 
L 633.431905 182.348694 
L 640.769738 180.234032 
L 648.107571 180.234032 
L 655.445404 180.234032 
L 662.783237 179.108407 
L 670.12107 177.663102 
L 677.458903 175.525194 
L 684.796736 156.609276 
L 692.134568 178.494282 
L 699.472401 178.494282 
L 706.810234 175.711635 
L 714.148067 175.711635 
L 721.4859 174.960711 
L 728.823733 171.286208 
L 736.161566 171.286208 
L 743.499399 171.286208 
L 750.837231 171.286208 
" clip-path="url(#p5e84cd7819)" style="fill: none; stroke: #1f77b4; stroke-width: 2; stroke-linecap: square"/>
   </g>
   <g id="line2d_30">
    <path d="M 90.432273 507.914924 
L 97.770106 494.944161 
L 105.107938 481.683604 
L 112.445771 469.14792 
L 119.783604 456.863757 
L 127.121437 447.369942 
L 134.45927 435.386858 
L 141.797103 426.414819 
L 149.134936 417.121799 
L 156.472769 408.864375 
L 163.810601 397.736473 
L 171.148434 390.796724 
L 178.486267 382.391596 
L 185.8241 379.641918 
L 193.161933 373.886323 
L 200.499766 369.979402 
L 207.837599 361.392579 
L 215.175432 356.867239 
L 222.513264 352.90417 
L 229.851097 348.545809 
L 237.18893 342.969984 
L 244.526763 337.851573 
L 251.864596 334.179751 
L 259.202429 327.917088 
L 266.540262 325.6117 
L 273.878095 317.881317 
L 281.215927 314.73362 
L 288.55376 312.533456 
L 295.891593 310.743984 
L 303.229426 308.553236 
L 310.567259 305.341192 
L 317.905092 298.965141 
L 325.242925 297.531051 
L 332.580758 291.922878 
L 339.91859 287.388713 
L 347.256423 285.956884 
L 354.594256 285.014198 
L 361.932089 283.225914 
L 369.269922 276.049319 
L 376.607755 277.257936 
L 383.945588 271.532992 
L 391.283421 270.790382 
L 398.621253 267.071622 
L 405.959086 267.110081 
L 413.296919 263.645443 
L 420.634752 264.119336 
L 427.972585 257.770145 
L 435.310418 254.883168 
L 442.648251 249.718903 
L 449.986084 246.825895 
L 457.323916 245.574641 
L 464.661749 243.757637 
L 471.999582 244.628754 
L 479.337415 240.126076 
L 486.675248 235.692751 
L 494.013081 236.888404 
L 501.350914 233.52261 
L 508.688747 237.756728 
L 516.026579 234.530791 
L 523.364412 235.452155 
L 530.702245 229.155302 
L 538.040078 226.744166 
L 545.377911 228.089726 
L 552.715744 223.637856 
L 560.053577 219.922945 
L 567.39141 218.50739 
L 574.729242 211.334828 
L 582.067075 214.309308 
L 589.404908 213.170796 
L 596.742741 207.737262 
L 604.080574 212.860201 
L 611.418407 208.661678 
L 618.75624 228.532783 
L 626.094073 218.678487 
L 633.431905 215.988705 
L 640.769738 212.875669 
L 648.107571 220.365737 
L 655.445404 213.69425 
L 662.783237 214.223618 
L 670.12107 211.075195 
L 677.458903 210.983956 
L 684.796736 190.627063 
L 692.134568 214.628281 
L 699.472401 216.649037 
L 706.810234 214.141622 
L 714.148067 210.513965 
L 721.4859 215.118896 
L 728.823733 204.867046 
L 736.161566 209.709901 
L 743.499399 206.486139 
L 750.837231 202.369526 
" clip-path="url(#p5e84cd7819)" style="fill: none; stroke-dasharray: 5.55,2.4; stroke-dashoffset: 0; stroke: #ff7f0e; stroke-width: 1.5"/>
   </g>
   <g id="line2d_31">
    <path d="M 90.432273 492.707686 
L 97.770106 485.173982 
L 105.107938 475.445938 
L 112.445771 466.871447 
L 119.783604 460.72322 
L 127.121437 453.738396 
L 134.45927 444.607938 
L 141.797103 438.486382 
L 149.134936 425.790805 
L 156.472769 417.644958 
L 163.810601 408.315808 
L 171.148434 401.605953 
L 178.486267 392.836832 
L 185.8241 385.279454 
L 193.161933 380.443921 
L 200.499766 374.29792 
L 207.837599 362.937728 
L 215.175432 355.694441 
L 222.513264 349.483988 
L 229.851097 342.574666 
L 237.18893 333.941454 
L 244.526763 329.388468 
L 251.864596 322.199451 
L 259.202429 317.189702 
L 266.540262 311.189061 
L 273.878095 303.233502 
L 281.215927 297.723735 
L 288.55376 290.149518 
L 295.891593 286.523588 
L 303.229426 281.905221 
L 310.567259 277.865109 
L 317.905092 266.485897 
L 325.242925 262.667175 
L 332.580758 256.989723 
L 339.91859 252.73236 
L 347.256423 249.780638 
L 354.594256 247.74965 
L 361.932089 243.871673 
L 369.269922 241.745727 
L 376.607755 236.475137 
L 383.945588 232.148319 
L 391.283421 227.693252 
L 398.621253 224.313153 
L 405.959086 219.81337 
L 413.296919 218.2273 
L 420.634752 209.191565 
L 427.972585 205.244901 
L 435.310418 201.645804 
L 442.648251 199.821883 
L 449.986084 194.856211 
L 457.323916 192.200325 
L 464.661749 188.957887 
L 471.999582 184.315508 
L 479.337415 181.31921 
L 486.675248 180.107722 
L 494.013081 175.352005 
L 501.350914 176.382392 
L 508.688747 170.698943 
L 516.026579 164.824219 
L 523.364412 160.964937 
L 530.702245 157.835323 
L 538.040078 154.321174 
L 545.377911 151.410948 
L 552.715744 147.347568 
L 560.053577 144.287126 
L 567.39141 141.915316 
L 574.729242 151.462575 
L 582.067075 149.458087 
L 589.404908 145.940754 
L 596.742741 145.115229 
L 604.080574 139.615649 
L 611.418407 137.403939 
L 618.75624 136.092474 
L 626.094073 173.8987 
L 633.431905 170.106307 
L 640.769738 164.66749 
L 648.107571 158.516825 
L 655.445404 158.516825 
L 662.783237 153.816997 
L 670.12107 152.25679 
L 677.458903 151.763477 
L 684.796736 148.991922 
L 692.134568 202.149155 
L 699.472401 197.437019 
L 706.810234 193.990888 
L 714.148067 192.307797 
L 721.4859 189.023616 
L 728.823733 188.589615 
L 736.161566 187.126654 
L 743.499399 183.051081 
L 750.837231 182.546955 
L 758.175064 181.591174 
L 765.512897 178.251076 
L 772.85073 172.627544 
L 780.188563 169.796124 
L 787.526396 169.796124 
L 794.864229 165.188723 
L 802.202062 165.188723 
L 809.539894 152.80227 
L 816.877727 152.80227 
" clip-path="url(#p5e84cd7819)" style="fill: none; stroke: #2ca02c; stroke-width: 2; stroke-linecap: square"/>
   </g>
   <g id="line2d_32">
    <path d="M 90.432273 508.048222 
L 97.770106 498.998228 
L 105.107938 491.720478 
L 112.445771 483.072045 
L 119.783604 474.134786 
L 127.121437 465.228376 
L 134.45927 458.20204 
L 141.797103 451.372534 
L 149.134936 444.286493 
L 156.472769 434.765198 
L 163.810601 425.984557 
L 171.148434 417.147977 
L 178.486267 409.677213 
L 185.8241 402.541004 
L 193.161933 393.225368 
L 200.499766 388.356169 
L 207.837599 381.48666 
L 215.175432 375.06445 
L 222.513264 366.50494 
L 229.851097 358.838138 
L 237.18893 353.588697 
L 244.526763 346.484812 
L 251.864596 339.168194 
L 259.202429 333.134626 
L 266.540262 328.418599 
L 273.878095 321.259085 
L 281.215927 314.288017 
L 288.55376 308.471615 
L 295.891593 303.642756 
L 303.229426 300.57739 
L 310.567259 295.116198 
L 317.905092 288.787161 
L 325.242925 281.776563 
L 332.580758 277.099949 
L 339.91859 272.676768 
L 347.256423 267.215756 
L 354.594256 263.133265 
L 361.932089 262.14139 
L 369.269922 255.76835 
L 376.607755 253.013825 
L 383.945588 247.705911 
L 391.283421 245.924117 
L 398.621253 242.695564 
L 405.959086 238.599918 
L 413.296919 234.955758 
L 420.634752 231.468903 
L 427.972585 226.028086 
L 435.310418 221.28584 
L 442.648251 218.116146 
L 449.986084 214.072658 
L 457.323916 209.476668 
L 464.661749 204.794592 
L 471.999582 200.638433 
L 479.337415 200.122398 
L 486.675248 196.155589 
L 494.013081 192.334095 
L 501.350914 192.170014 
L 508.688747 188.516351 
L 516.026579 187.092743 
L 523.364412 183.425345 
L 530.702245 176.831757 
L 538.040078 174.8951 
L 545.377911 171.165166 
L 552.715744 165.353431 
L 560.053577 161.876033 
L 567.39141 158.004773 
L 574.729242 168.303255 
L 582.067075 163.666633 
L 589.404908 164.599471 
L 596.742741 159.454148 
L 604.080574 157.72526 
L 611.418407 152.650997 
L 618.75624 150.386372 
L 626.094073 189.759433 
L 633.431905 189.665487 
L 640.769738 182.086916 
L 648.107571 176.480555 
L 655.445404 180.134832 
L 662.783237 174.986222 
L 670.12107 168.32286 
L 677.458903 165.732253 
L 684.796736 162.945033 
L 692.134568 215.150226 
L 699.472401 213.188062 
L 706.810234 212.408555 
L 714.148067 208.902165 
L 721.4859 202.587461 
L 728.823733 202.55211 
L 736.161566 199.223243 
L 743.499399 197.38478 
L 750.837231 196.214419 
L 758.175064 192.697155 
L 765.512897 196.447548 
L 772.85073 189.316124 
L 780.188563 187.067337 
L 787.526396 183.304189 
L 794.864229 183.440819 
L 802.202062 179.92863 
L 809.539894 178.7458 
L 816.877727 179.878955 
" clip-path="url(#p5e84cd7819)" style="fill: none; stroke-dasharray: 5.55,2.4; stroke-dashoffset: 0; stroke: #d62728; stroke-width: 1.5"/>
   </g>
   <g id="line2d_33">
    <path d="M 90.432273 492.514323 
L 97.770106 483.517288 
L 105.107938 478.992025 
L 112.445771 474.280609 
L 119.783604 471.028408 
L 127.121437 467.584906 
L 134.45927 464.768328 
L 141.797103 461.109363 
L 149.134936 457.372183 
L 156.472769 454.477409 
L 163.810601 449.688716 
L 171.148434 445.271922 
L 178.486267 440.78318 
L 185.8241 438.266116 
L 193.161933 433.379003 
L 200.499766 428.234343 
L 207.837599 425.960112 
L 215.175432 419.184997 
L 222.513264 411.120875 
L 229.851097 407.235859 
L 237.18893 402.836021 
L 244.526763 396.763706 
L 251.864596 392.585499 
L 259.202429 388.635974 
L 266.540262 383.733368 
L 273.878095 380.632222 
L 281.215927 375.23748 
L 288.55376 370.20102 
L 295.891593 365.751384 
L 303.229426 361.475197 
L 310.567259 353.582074 
L 317.905092 352.177289 
L 325.242925 346.891605 
L 332.580758 342.784881 
L 339.91859 338.878689 
L 347.256423 332.605402 
L 354.594256 329.061525 
L 361.932089 324.714937 
L 369.269922 320.296514 
L 376.607755 319.020141 
L 383.945588 315.424305 
L 391.283421 309.986897 
L 398.621253 302.018734 
L 405.959086 281.121118 
L 413.296919 277.735716 
L 420.634752 274.359382 
L 427.972585 226.736294 
L 435.310418 226.736294 
L 442.648251 224.238277 
L 449.986084 217.907966 
L 457.323916 214.058645 
L 464.661749 206.959342 
L 471.999582 204.880102 
L 479.337415 202.246668 
L 486.675248 202.246668 
" clip-path="url(#p5e84cd7819)" style="fill: none; stroke: #9467bd; stroke-width: 2; stroke-linecap: square"/>
   </g>
   <g id="line2d_34">
    <path d="M 90.432273 505.66776 
L 97.770106 496.432724 
L 105.107938 489.046037 
L 112.445771 484.158769 
L 119.783604 478.493133 
L 127.121437 474.004252 
L 134.45927 470.634076 
L 141.797103 467.051371 
L 149.134936 463.405899 
L 156.472769 460.045833 
L 163.810601 456.858633 
L 171.148434 453.592917 
L 178.486267 449.371157 
L 185.8241 444.896618 
L 193.161933 441.090644 
L 200.499766 437.697859 
L 207.837599 433.848594 
L 215.175432 428.471434 
L 222.513264 423.527247 
L 229.851097 418.546665 
L 237.18893 412.811109 
L 244.526763 407.715003 
L 251.864596 402.631385 
L 259.202429 398.33111 
L 266.540262 393.585131 
L 273.878095 388.804058 
L 281.215927 384.349952 
L 288.55376 381.428394 
L 295.891593 375.33854 
L 303.229426 370.762698 
L 310.567259 366.899235 
L 317.905092 362.271935 
L 325.242925 357.118896 
L 332.580758 352.861889 
L 339.91859 348.704173 
L 347.256423 343.564145 
L 354.594256 339.310744 
L 361.932089 334.724068 
L 369.269922 329.923725 
L 376.607755 327.232563 
L 383.945588 324.410715 
L 391.283421 319.279844 
L 398.621253 311.218934 
L 405.959086 295.251507 
L 413.296919 291.629602 
L 420.634752 283.551271 
L 427.972585 240.266215 
L 435.310418 236.530959 
L 442.648251 231.92487 
L 449.986084 229.391472 
L 457.323916 225.318261 
L 464.661749 224.565416 
L 471.999582 217.837249 
L 479.337415 213.693807 
L 486.675248 209.210206 
" clip-path="url(#p5e84cd7819)" style="fill: none; stroke-dasharray: 5.55,2.4; stroke-dashoffset: 0; stroke: #8c564b; stroke-width: 1.5"/>
   </g>
   <g id="line2d_35">
    <path d="M 90.432273 487.793246 
L 97.770106 476.623682 
L 105.107938 462.941306 
L 112.445771 455.816893 
L 119.783604 442.069155 
L 127.121437 433.302627 
L 134.45927 425.935043 
L 141.797103 413.495701 
L 149.134936 400.189362 
L 156.472769 380.437883 
L 163.810601 372.919359 
L 171.148434 366.464491 
L 178.486267 350.209268 
L 185.8241 342.282726 
L 193.161933 341.331364 
L 200.499766 339.394306 
L 207.837599 333.674172 
L 215.175432 327.871665 
L 222.513264 324.762416 
L 229.851097 314.293586 
L 237.18893 306.363117 
L 244.526763 300.822551 
L 251.864596 298.428121 
L 259.202429 291.876924 
L 266.540262 286.103364 
L 273.878095 280.729304 
L 281.215927 279.770617 
L 288.55376 275.868514 
L 295.891593 275.458123 
L 303.229426 272.704421 
L 310.567259 258.454681 
L 317.905092 257.41757 
L 325.242925 245.528452 
L 332.580758 244.716748 
L 339.91859 236.708221 
L 347.256423 233.694375 
L 354.594256 224.042367 
L 361.932089 223.254412 
L 369.269922 217.843176 
L 376.607755 217.544285 
L 383.945588 214.421446 
L 391.283421 212.058475 
L 398.621253 203.540997 
L 405.959086 203.540997 
L 413.296919 201.920793 
L 420.634752 201.920793 
L 427.972585 199.569206 
L 435.310418 196.524577 
L 442.648251 187.868492 
L 449.986084 187.328721 
L 457.323916 177.801304 
L 464.661749 175.114726 
L 471.999582 173.616159 
L 479.337415 171.950023 
L 486.675248 167.399167 
L 494.013081 164.377949 
L 501.350914 161.364804 
L 508.688747 158.671056 
L 516.026579 155.211782 
L 523.364412 148.694262 
L 530.702245 148.193165 
L 538.040078 146.337386 
L 545.377911 146.337386 
L 552.715744 145.378188 
L 560.053577 128.898521 
L 567.39141 128.239356 
L 574.729242 126.613032 
L 582.067075 123.15672 
L 589.404908 120.838487 
L 596.742741 113.100868 
L 604.080574 113.100868 
L 611.418407 113.100868 
L 618.75624 113.100868 
L 626.094073 109.180277 
L 633.431905 109.180277 
L 640.769738 109.180277 
L 648.107571 108.970778 
L 655.445404 108.970778 
L 662.783237 146.084187 
L 670.12107 143.9314 
L 677.458903 143.710937 
L 684.796736 133.430368 
L 692.134568 133.430368 
L 699.472401 128.651683 
L 706.810234 124.649778 
L 714.148067 124.649778 
L 721.4859 121.959457 
L 728.823733 114.527409 
L 736.161566 104.651762 
L 743.499399 104.173826 
L 750.837231 101.01854 
L 758.175064 101.01854 
L 765.512897 99.475461 
L 772.85073 93.09014 
L 780.188563 75.32313 
L 787.526396 75.32313 
L 794.864229 75.32313 
L 802.202062 75.32313 
L 809.539894 75.32313 
L 816.877727 62.286675 
" clip-path="url(#p5e84cd7819)" style="fill: none; stroke: #e377c2; stroke-width: 2; stroke-linecap: square"/>
   </g>
   <g id="line2d_36">
    <path d="M 90.432273 507.584843 
L 97.770106 496.504797 
L 105.107938 484.21501 
L 112.445771 473.705604 
L 119.783604 464.092238 
L 127.121437 452.514858 
L 134.45927 444.332835 
L 141.797103 436.899219 
L 149.134936 428.884596 
L 156.472769 421.778977 
L 163.810601 410.857002 
L 171.148434 397.995826 
L 178.486267 389.193673 
L 185.8241 381.759423 
L 193.161933 373.941836 
L 200.499766 366.656473 
L 207.837599 361.040235 
L 215.175432 358.013641 
L 222.513264 353.033689 
L 229.851097 348.970153 
L 237.18893 340.54387 
L 244.526763 338.525573 
L 251.864596 330.560353 
L 259.202429 331.476368 
L 266.540262 323.56227 
L 273.878095 322.907554 
L 281.215927 317.947641 
L 288.55376 314.609015 
L 295.891593 308.941268 
L 303.229426 307.886952 
L 310.567259 300.723092 
L 317.905092 294.585596 
L 325.242925 290.133234 
L 332.580758 285.83781 
L 339.91859 278.729167 
L 347.256423 275.84648 
L 354.594256 275.048725 
L 361.932089 265.681284 
L 369.269922 264.466444 
L 376.607755 262.589119 
L 383.945588 260.6422 
L 391.283421 253.707714 
L 398.621253 248.821383 
L 405.959086 244.43879 
L 413.296919 246.057315 
L 420.634752 246.620528 
L 427.972585 237.882018 
L 435.310418 242.453075 
L 442.648251 239.229644 
L 449.986084 230.843654 
L 457.323916 234.909904 
L 464.661749 226.700197 
L 471.999582 223.464835 
L 479.337415 219.255022 
L 486.675248 221.777528 
L 494.013081 223.992413 
L 501.350914 214.979962 
L 508.688747 214.666851 
L 516.026579 209.993608 
L 523.364412 212.736151 
L 530.702245 200.723417 
L 538.040078 206.037018 
L 545.377911 196.472378 
L 552.715744 202.749029 
L 560.053577 192.028915 
L 567.39141 187.561121 
L 574.729242 178.596668 
L 582.067075 181.160631 
L 589.404908 175.993321 
L 596.742741 167.195658 
L 604.080574 171.723594 
L 611.418407 180.230422 
L 618.75624 165.646423 
L 626.094073 168.260277 
L 633.431905 166.724313 
L 640.769738 165.516372 
L 648.107571 166.484467 
L 655.445404 157.431827 
L 662.783237 195.266475 
L 670.12107 200.208637 
L 677.458903 180.410908 
L 684.796736 180.304894 
L 692.134568 181.425701 
L 699.472401 177.310798 
L 706.810234 192.082234 
L 714.148067 177.783339 
L 721.4859 183.501475 
L 728.823733 172.945205 
L 736.161566 162.841931 
L 743.499399 150.632915 
L 750.837231 150.259455 
L 758.175064 161.154551 
L 765.512897 163.163229 
L 772.85073 144.375856 
L 780.188563 162.926312 
L 787.526396 126.863739 
L 794.864229 136.620295 
L 802.202062 136.353573 
L 809.539894 157.01834 
L 816.877727 132.602137 
" clip-path="url(#p5e84cd7819)" style="fill: none; stroke-dasharray: 5.55,2.4; stroke-dashoffset: 0; stroke: #7f7f7f; stroke-width: 1.5"/>
   </g>
   <g id="patch_3">
    <path d="M 54.11 534.04 
L 54.11 26.16 
" style="fill: none; stroke: #000000; stroke-width: 0.8; stroke-linejoin: miter; stroke-linecap: square"/>
   </g>
   <g id="patch_4">
    <path d="M 853.2 534.04 
L 853.2 26.16 
" style="fill: none; stroke: #000000; stroke-width: 0.8; stroke-linejoin: miter; stroke-linecap: square"/>
   </g>
   <g id="patch_5">
    <path d="M 54.11 534.04 
L 853.2 534.04 
" style="fill: none; stroke: #000000; stroke-width: 0.8; stroke-linejoin: miter; stroke-linecap: square"/>
   </g>
   <g id="patch_6">
    <path d="M 54.11 26.16 
L 853.2 26.16 
" style="fill: none; stroke: #000000; stroke-width: 0.8; stroke-linejoin: miter; stroke-linecap: square"/>
   </g>
   <g id="text_17">
    <!-- Mutation Strategy Comparison -->
    <g transform="translate(361.706875 20.16) scale(0.12 -0.12)">
     <defs>
      <path id="DejaVuSans-4d" d="M 628 4666 
L 1569 4666 
L 2759 1491 
L 3956 4666 
L 4897 4666 
L 4897 0 
L 4281 0 
L 4281 4097 
L 3078 897 
L 2444 897 
L 1241 4097 
L 1241 0 
L 628 0 
L 628 4666 
z
" transform="scale(0.015625)"/>
      <path id="DejaVuSans-75" d="M 544 1381 
L 544 3500 
L 1119 3500 
L 1119 1403 
Q 1119 906 1312 657 
Q 1506 409 1894 409 
Q 2359 409 2629 706 
Q 2900 1003 2900 1516 
L 2900 3500 
L 3475 3500 
L 3475 0 
L 2900 0 
L 2900 538 
Q 2691 219 2414 64 
Q 2138 -91 1772 -91 
Q 1169 -91 856 284 
Q 544 659 544 1381 
z
M 1991 3584 
L 1991 3584 
z
" transform="scale(0.015625)"/>
      <path id="DejaVuSans-53" d="M 3425 4513 
L 3425 3897 
Q 3066 4069 2747 4153 
Q 2428 4238 2131 4238 
Q 1616 4238 1336 4038 
Q 1056 3838 1056 3469 
Q 1056 3159 1242 3001 
Q 1428 2844 1947 2747 
L 2328 2669 
Q 3034 2534 3370 2195 
Q 3706 1856 3706 1288 
Q 3706 609 3251 259 
Q 2797 -91 1919 -91 
Q 1588 -91 1214 -16 
Q 841 59 441 206 
L 441 856 
Q 825 641 1194 531 
Q 1563 422 1919 422 
Q 2459 422 2753 634 
Q 3047 847 3047 1241 
Q 3047 1584 2836 1778 
Q 2625 1972 2144 2069 
L 1759 2144 
Q 1053 2284 737 2584 
Q 422 2884 422 3419 
Q 422 4038 858 4394 
Q 1294 4750 2059 4750 
Q 2388 4750 2728 4690 
Q 3069 4631 3425 4513 
z
" transform="scale(0.015625)"/>
      <path id="DejaVuSans-67" d="M 2906 1791 
Q 2906 2416 2648 2759 
Q 2391 3103 1925 3103 
Q 1463 3103 1205 2759 
Q 947 2416 947 1791 
Q 947 1169 1205 825 
Q 1463 481 1925 481 
Q 2391 481 2648 825 
Q 2906 1169 2906 1791 
z
M 3481 434 
Q 3481 -459 3084 -895 
Q 2688 -1331 1869 -1331 
Q 1566 -1331 1297 -1286 
Q 1028 -1241 775 -1147 
L 775 -588 
Q 1028 -725 1275 -790 
Q 1522 -856 1778 -856 
Q 2344 -856 2625 -561 
Q 2906 -266 2906 331 
L 2906 616 
Q 2728 306 2450 153 
Q 2172 0 1784 0 
Q 1141 0 747 490 
Q 353 981 353 1791 
Q 353 2603 747 3093 
Q 1141 3584 1784 3584 
Q 2172 3584 2450 3431 
Q 2728 3278 2906 2969 
L 2906 3500 
L 3481 3500 
L 3481 434 
z
" transform="scale(0.015625)"/>
      <path id="DejaVuSans-79" d="M 2059 -325 
Q 1816 -950 1584 -1140 
Q 1353 -1331 966 -1331 
L 506 -1331 
L 506 -850 
L 844 -850 
Q 1081 -850 1212 -737 
Q 1344 -625 1503 -206 
L 1606 56 
L 191 3500 
L 800 3500 
L 1894 763 
L 2988 3500 
L 3597 3500 
L 2059 -325 
z
" transform="scale(0.015625)"/>
      <path id="DejaVuSans-43" d="M 4122 4306 
L 4122 3641 
Q 3803 3938 3442 4084 
Q 3081 4231 2675 4231 
Q 1875 4231 1450 3742 
Q 1025 3253 1025 2328 
Q 1025 1406 1450 917 
Q 1875 428 2675 428 
Q 3081 428 3442 575 
Q 3803 722 4122 1019 
L 4122 359 
Q 3791 134 3420 21 
Q 3050 -91 2638 -91 
Q 1578 -91 968 557 
Q 359 1206 359 2328 
Q 359 3453 968 4101 
Q 1578 4750 2638 4750 
Q 3056 4750 3426 4639 
Q 3797 4528 4122 4306 
z
" transform="scale(0.015625)"/>
      <path id="DejaVuSans-6d" d="M 3328 2828 
Q 3544 3216 3844 3400 
Q 4144 3584 4550 3584 
Q 5097 3584 5394 3201 
Q 5691 2819 5691 2113 
L 5691 0 
L 5113 0 
L 5113 2094 
Q 5113 2597 4934 2840 
Q 4756 3084 4391 3084 
Q 3944 3084 3684 2787 
Q 3425 2491 3425 1978 
L 3425 0 
L 2847 0 
L 2847 2094 
Q 2847 2600 2669 2842 
Q 2491 3084 2119 3084 
Q 1678 3084 1418 2786 
Q 1159 2488 1159 1978 
L 1159 0 
L 581 0 
L 581 3500 
L 1159 3500 
L 1159 2956 
Q 1356 3278 1631 3431 
Q 1906 3584 2284 3584 
Q 2666 3584 2933 3390 
Q 3200 3197 3328 2828 
z
" transform="scale(0.015625)"/>
      <path id="DejaVuSans-70" d="M 1159 525 
L 1159 -1331 
L 581 -1331 
L 581 3500 
L 1159 3500 
L 1159 2969 
Q 1341 3281 1617 3432 
Q 1894 3584 2278 3584 
Q 2916 3584 3314 3078 
Q 3713 2572 3713 1747 
Q 3713 922 3314 415 
Q 2916 -91 2278 -91 
Q 1894 -91 1617 61 
Q 1341 213 1159 525 
z
M 3116 1747 
Q 3116 2381 2855 2742 
Q 2594 3103 2138 3103 
Q 1681 3103 1420 2742 
Q 1159 2381 1159 1747 
Q 1159 1113 1420 752 
Q 1681 391 2138 391 
Q 2594 391 2855 752 
Q 3116 1113 3116 1747 
z
" transform="scale(0.015625)"/>
     </defs>
     <use xlink:href="#DejaVuSans-4d"/>
     <use xlink:href="#DejaVuSans-75" transform="translate(86.279297 0)"/>
     <use xlink:href="#DejaVuSans-74" transform="translate(149.658203 0)"/>
     <use xlink:href="#DejaVuSans-61" transform="translate(188.867188 0)"/>
     <use xlink:href="#DejaVuSans-74" transform="translate(250.146484 0)"/>
     <use xlink:href="#DejaVuSans-69" transform="translate(289.355469 0)"/>
     <use xlink:href="#DejaVuSans-6f" transform="translate(317.138672 0)"/>
     <use xlink:href="#DejaVuSans-6e" transform="translate(378.320312 0)"/>
     <use xlink:href="#DejaVuSans-20" transform="translate(441.699219 0)"/>
     <use xlink:href="#DejaVuSans-53" transform="translate(473.486328 0)"/>
     <use xlink:href="#DejaVuSans-74" transform="translate(536.962891 0)"/>
     <use xlink:href="#DejaVuSans-72" transform="translate(576.171875 0)"/>
     <use xlink:href="#DejaVuSans-61" transform="translate(617.285156 0)"/>
     <use xlink:href="#DejaVuSans-74" transform="translate(678.564453 0)"/>
     <use xlink:href="#DejaVuSans-65" transform="translate(717.773438 0)"/>
     <use xlink:href="#DejaVuSans-67" transform="translate(779.296875 0)"/>
     <use xlink:href="#DejaVuSans-79" transform="translate(842.773438 0)"/>
     <use xlink:href="#DejaVuSans-20" transform="translate(901.953125 0)"/>
     <use xlink:href="#DejaVuSans-43" transform="translate(933.740234 0)"/>
     <use xlink:href="#DejaVuSans-6f" transform="translate(1003.564453 0)"/>
     <use xlink:href="#DejaVuSans-6d" transform="translate(1064.746094 0)"/>
     <use xlink:href="#DejaVuSans-70" transform="translate(1162.158203 0)"/>
     <use xlink:href="#DejaVuSans-61" transform="translate(1225.634766 0)"/>
     <use xlink:href="#DejaVuSans-72" transform="translate(1286.914062 0)"/>
     <use xlink:href="#DejaVuSans-69" transform="translate(1328.027344 0)"/>
     <use xlink:href="#DejaVuSans-73" transform="translate(1355.810547 0)"/>
     <use xlink:href="#DejaVuSans-6f" transform="translate(1407.910156 0)"/>
     <use xlink:href="#DejaVuSans-6e" transform="translate(1469.091797 0)"/>
    </g>
   </g>
   <g id="legend_1">
    <g id="patch_7">
     <path d="M 61.11 151.585 
L 180.813125 151.585 
Q 182.813125 151.585 182.813125 149.585 
L 182.813125 33.16 
Q 182.813125 31.16 180.813125 31.16 
L 61.11 31.16 
Q 59.11 31.16 59.11 33.16 
L 59.11 149.585 
Q 59.11 151.585 61.11 151.585 
z
" style="fill: #ffffff; opacity: 0.8; stroke: #cccccc; stroke-linejoin: miter"/>
    </g>
    <g id="line2d_37">
     <path d="M 63.11 39.258437 
L 73.11 39.258437 
L 83.11 39.258437 
" style="fill: none; stroke: #1f77b4; stroke-width: 2; stroke-linecap: square"/>
    </g>
    <g id="text_18">
     <!-- complete (best↑) -->
     <g transform="translate(91.11 42.758437) scale(0.1 -0.1)">
      <defs>
       <path id="DejaVuSans-63" d="M 3122 3366 
L 3122 2828 
Q 2878 2963 2633 3030 
Q 2388 3097 2138 3097 
Q 1578 3097 1268 2742 
Q 959 2388 959 1747 
Q 959 1106 1268 751 
Q 1578 397 2138 397 
Q 2388 397 2633 464 
Q 2878 531 3122 666 
L 3122 134 
Q 2881 22 2623 -34 
Q 2366 -91 2075 -91 
Q 1284 -91 818 406 
Q 353 903 353 1747 
Q 353 2603 823 3093 
Q 1294 3584 2113 3584 
Q 2378 3584 2631 3529 
Q 2884 3475 3122 3366 
z
" transform="scale(0.015625)"/>
       <path id="DejaVuSans-6c" d="M 603 4863 
L 1178 4863 
L 1178 0 
L 603 0 
L 603 4863 
z
" transform="scale(0.015625)"/>
      </defs>
      <use xlink:href="#DejaVuSans-63"/>
      <use xlink:href="#DejaVuSans-6f" transform="translate(54.980469 0)"/>
      <use xlink:href="#DejaVuSans-6d" transform="translate(116.162109 0)"/>
      <use xlink:href="#DejaVuSans-70" transform="translate(213.574219 0)"/>
      <use xlink:href="#DejaVuSans-6c" transform="translate(277.050781 0)"/>
      <use xlink:href="#DejaVuSans-65" transform="translate(304.833984 0)"/>
      <use xlink:href="#DejaVuSans-74" transform="translate(366.357422 0)"/>
      <use xlink:href="#DejaVuSans-65" transform="translate(405.566406 0)"/>
      <use xlink:href="#DejaVuSans-20" transform="translate(467.089844 0)"/>
      <use xlink:href="#DejaVuSans-28" transform="translate(498.876953 0)"/>
      <use xlink:href="#DejaVuSans-62" transform="translate(537.890625 0)"/>
      <use xlink:href="#DejaVuSans-65" transform="translate(601.367188 0)"/>
      <use xlink:href="#DejaVuSans-73" transform="translate(662.890625 0)"/>
      <use xlink:href="#DejaVuSans-74" transform="translate(714.990234 0)"/>
      <use xlink:href="#DejaVuSans-2191" transform="translate(754.199219 0)"/>
      <use xlink:href="#DejaVuSans-29" transform="translate(837.988281 0)"/>
     </g>
    </g>
    <g id="line2d_38">
     <path d="M 63.11 53.936562 
L 73.11 53.936562 
L 83.11 53.936562 
" style="fill: none; stroke-dasharray: 5.55,2.4; stroke-dashoffset: 0; stroke: #ff7f0e; stroke-width: 1.5"/>
    </g>
    <g id="text_19">
     <!-- complete (avg↑) -->
     <g transform="translate(91.11 57.436562) scale(0.1 -0.1)">
      <defs>
       <path id="DejaVuSans-76" d="M 191 3500 
L 800 3500 
L 1894 563 
L 2988 3500 
L 3597 3500 
L 2284 0 
L 1503 0 
L 191 3500 
z
" transform="scale(0.015625)"/>
      </defs>
      <use xlink:href="#DejaVuSans-63"/>
      <use xlink:href="#DejaVuSans-6f" transform="translate(54.980469 0)"/>
      <use xlink:href="#DejaVuSans-6d" transform="translate(116.162109 0)"/>
      <use xlink:href="#DejaVuSans-70" transform="translate(213.574219 0)"/>
      <use xlink:href="#DejaVuSans-6c" transform="translate(277.050781 0)"/>
      <use xlink:href="#DejaVuSans-65" transform="translate(304.833984 0)"/>
      <use xlink:href="#DejaVuSans-74" transform="translate(366.357422 0)"/>
      <use xlink:href="#DejaVuSans-65" transform="translate(405.566406 0)"/>
      <use xlink:href="#DejaVuSans-20" transform="translate(467.089844 0)"/>
      <use xlink:href="#DejaVuSans-28" transform="translate(498.876953 0)"/>
      <use xlink:href="#DejaVuSans-61" transform="translate(537.890625 0)"/>
      <use xlink:href="#DejaVuSans-76" transform="translate(599.169922 0)"/>
      <use xlink:href="#DejaVuSans-67" transform="translate(658.349609 0)"/>
      <use xlink:href="#DejaVuSans-2191" transform="translate(721.826172 0)"/>
      <use xlink:href="#DejaVuSans-29" transform="translate(805.615234 0)"/>
     </g>
    </g>
    <g id="line2d_39">
     <path d="M 63.11 68.614687 
L 73.11 68.614687 
L 83.11 68.614687 
" style="fill: none; stroke: #2ca02c; stroke-width: 2; stroke-linecap: square"/>
    </g>
    <g id="text_20">
     <!-- limited (best↑) -->
     <g transform="translate(91.11 72.114687) scale(0.1 -0.1)">
      <defs>
       <path id="DejaVuSans-64" d="M 2906 2969 
L 2906 4863 
L 3481 4863 
L 3481 0 
L 2906 0 
L 2906 525 
Q 2725 213 2448 61 
Q 2172 -91 1784 -91 
Q 1150 -91 751 415 
Q 353 922 353 1747 
Q 353 2572 751 3078 
Q 1150 3584 1784 3584 
Q 2172 3584 2448 3432 
Q 2725 3281 2906 2969 
z
M 947 1747 
Q 947 1113 1208 752 
Q 1469 391 1925 391 
Q 2381 391 2643 752 
Q 2906 1113 2906 1747 
Q 2906 2381 2643 2742 
Q 2381 3103 1925 3103 
Q 1469 3103 1208 2742 
Q 947 2381 947 1747 
z
" transform="scale(0.015625)"/>
      </defs>
      <use xlink:href="#DejaVuSans-6c"/>
      <use xlink:href="#DejaVuSans-69" transform="translate(27.783203 0)"/>
      <use xlink:href="#DejaVuSans-6d" transform="translate(55.566406 0)"/>
      <use xlink:href="#DejaVuSans-69" transform="translate(152.978516 0)"/>
      <use xlink:href="#DejaVuSans-74" transform="translate(180.761719 0)"/>
      <use xlink:href="#DejaVuSans-65" transform="translate(219.970703 0)"/>
      <use xlink:href="#DejaVuSans-64" transform="translate(281.494141 0)"/>
      <use xlink:href="#DejaVuSans-20" transform="translate(344.970703 0)"/>
      <use xlink:href="#DejaVuSans-28" transform="translate(376.757812 0)"/>
      <use xlink:href="#DejaVuSans-62" transform="translate(415.771484 0)"/>
      <use xlink:href="#DejaVuSans-65" transform="translate(479.248047 0)"/>
      <use xlink:href="#DejaVuSans-73" transform="translate(540.771484 0)"/>
      <use xlink:href="#DejaVuSans-74" transform="translate(592.871094 0)"/>
      <use xlink:href="#DejaVuSans-2191" transform="translate(632.080078 0)"/>
      <use xlink:href="#DejaVuSans-29" transform="translate(715.869141 0)"/>
     </g>
    </g>
    <g id="line2d_40">
     <path d="M 63.11 83.292812 
L 73.11 83.292812 
L 83.11 83.292812 
" style="fill: none; stroke-dasharray: 5.55,2.4; stroke-dashoffset: 0; stroke: #d62728; stroke-width: 1.5"/>
    </g>
    <g id="text_21">
     <!-- limited (avg↑) -->
     <g transform="translate(91.11 86.792812) scale(0.1 -0.1)">
      <use xlink:href="#DejaVuSans-6c"/>
      <use xlink:href="#DejaVuSans-69" transform="translate(27.783203 0)"/>
      <use xlink:href="#DejaVuSans-6d" transform="translate(55.566406 0)"/>
      <use xlink:href="#DejaVuSans-69" transform="translate(152.978516 0)"/>
      <use xlink:href="#DejaVuSans-74" transform="translate(180.761719 0)"/>
      <use xlink:href="#DejaVuSans-65" transform="translate(219.970703 0)"/>
      <use xlink:href="#DejaVuSans-64" transform="translate(281.494141 0)"/>
      <use xlink:href="#DejaVuSans-20" transform="translate(344.970703 0)"/>
      <use xlink:href="#DejaVuSans-28" transform="translate(376.757812 0)"/>
      <use xlink:href="#DejaVuSans-61" transform="translate(415.771484 0)"/>
      <use xlink:href="#DejaVuSans-76" transform="translate(477.050781 0)"/>
      <use xlink:href="#DejaVuSans-67" transform="translate(536.230469 0)"/>
      <use xlink:href="#DejaVuSans-2191" transform="translate(599.707031 0)"/>
      <use xlink:href="#DejaVuSans-29" transform="translate(683.496094 0)"/>
     </g>
    </g>
    <g id="line2d_41">
     <path d="M 63.11 97.970937 
L 73.11 97.970937 
L 83.11 97.970937 
" style="fill: none; stroke: #9467bd; stroke-width: 2; stroke-linecap: square"/>
    </g>
    <g id="text_22">
     <!-- single (best↑) -->
     <g transform="translate(91.11 101.470937) scale(0.1 -0.1)">
      <use xlink:href="#DejaVuSans-73"/>
      <use xlink:href="#DejaVuSans-69" transform="translate(52.099609 0)"/>
      <use xlink:href="#DejaVuSans-6e" transform="translate(79.882812 0)"/>
      <use xlink:href="#DejaVuSans-67" transform="translate(143.261719 0)"/>
      <use xlink:href="#DejaVuSans-6c" transform="translate(206.738281 0)"/>
      <use xlink:href="#DejaVuSans-65" transform="translate(234.521484 0)"/>
      <use xlink:href="#DejaVuSans-20" transform="translate(296.044922 0)"/>
      <use xlink:href="#DejaVuSans-28" transform="translate(327.832031 0)"/>
      <use xlink:href="#DejaVuSans-62" transform="translate(366.845703 0)"/>
      <use xlink:href="#DejaVuSans-65" transform="translate(430.322266 0)"/>
      <use xlink:href="#DejaVuSans-73" transform="translate(491.845703 0)"/>
      <use xlink:href="#DejaVuSans-74" transform="translate(543.945312 0)"/>
      <use xlink:href="#DejaVuSans-2191" transform="translate(583.154297 0)"/>
      <use xlink:href="#DejaVuSans-29" transform="translate(666.943359 0)"/>
     </g>
    </g>
    <g id="line2d_42">
     <path d="M 63.11 112.649062 
L 73.11 112.649062 
L 83.11 112.649062 
" style="fill: none; stroke-dasharray: 5.55,2.4; stroke-dashoffset: 0; stroke: #8c564b; stroke-width: 1.5"/>
    </g>
    <g id="text_23">
     <!-- single (avg↑) -->
     <g transform="translate(91.11 116.149062) scale(0.1 -0.1)">
      <use xlink:href="#DejaVuSans-73"/>
      <use xlink:href="#DejaVuSans-69" transform="translate(52.099609 0)"/>
      <use xlink:href="#DejaVuSans-6e" transform="translate(79.882812 0)"/>
      <use xlink:href="#DejaVuSans-67" transform="translate(143.261719 0)"/>
      <use xlink:href="#DejaVuSans-6c" transform="translate(206.738281 0)"/>
      <use xlink:href="#DejaVuSans-65" transform="translate(234.521484 0)"/>
      <use xlink:href="#DejaVuSans-20" transform="translate(296.044922 0)"/>
      <use xlink:href="#DejaVuSans-28" transform="translate(327.832031 0)"/>
      <use xlink:href="#DejaVuSans-61" transform="translate(366.845703 0)"/>
      <use xlink:href="#DejaVuSans-76" transform="translate(428.125 0)"/>
      <use xlink:href="#DejaVuSans-67" transform="translate(487.304688 0)"/>
      <use xlink:href="#DejaVuSans-2191" transform="translate(550.78125 0)"/>
      <use xlink:href="#DejaVuSans-29" transform="translate(634.570312 0)"/>
     </g>
    </g>
    <g id="line2d_43">
     <path d="M 63.11 127.327187 
L 73.11 127.327187 
L 83.11 127.327187 
" style="fill: none; stroke: #e377c2; stroke-width: 2; stroke-linecap: square"/>
    </g>
    <g id="text_24">
     <!-- uniform (best↑) -->
     <g transform="translate(91.11 130.827187) scale(0.1 -0.1)">
      <defs>
       <path id="DejaVuSans-66" d="M 2375 4863 
L 2375 4384 
L 1825 4384 
Q 1516 4384 1395 4259 
Q 1275 4134 1275 3809 
L 1275 3500 
L 2222 3500 
L 2222 3053 
L 1275 3053 
L 1275 0 
L 697 0 
L 697 3053 
L 147 3053 
L 147 3500 
L 697 3500 
L 697 3744 
Q 697 4328 969 4595 
Q 1241 4863 1831 4863 
L 2375 4863 
z
" transform="scale(0.015625)"/>
      </defs>
      <use xlink:href="#DejaVuSans-75"/>
      <use xlink:href="#DejaVuSans-6e" transform="translate(63.378906 0)"/>
      <use xlink:href="#DejaVuSans-69" transform="translate(126.757812 0)"/>
      <use xlink:href="#DejaVuSans-66" transform="translate(154.541016 0)"/>
      <use xlink:href="#DejaVuSans-6f" transform="translate(189.746094 0)"/>
      <use xlink:href="#DejaVuSans-72" transform="translate(250.927734 0)"/>
      <use xlink:href="#DejaVuSans-6d" transform="translate(290.291016 0)"/>
      <use xlink:href="#DejaVuSans-20" transform="translate(387.703125 0)"/>
      <use xlink:href="#DejaVuSans-28" transform="translate(419.490234 0)"/>
      <use xlink:href="#DejaVuSans-62" transform="translate(458.503906 0)"/>
      <use xlink:href="#DejaVuSans-65" transform="translate(521.980469 0)"/>
      <use xlink:href="#DejaVuSans-73" transform="translate(583.503906 0)"/>
      <use xlink:href="#DejaVuSans-74" transform="translate(635.603516 0)"/>
      <use xlink:href="#DejaVuSans-2191" transform="translate(674.8125 0)"/>
      <use xlink:href="#DejaVuSans-29" transform="translate(758.601562 0)"/>
     </g>
    </g>
    <g id="line2d_44">
     <path d="M 63.11 142.005312 
L 73.11 142.005312 
L 83.11 142.005312 
" style="fill: none; stroke-dasharray: 5.55,2.4; stroke-dashoffset: 0; stroke: #7f7f7f; stroke-width: 1.5"/>
    </g>
    <g id="text_25">
     <!-- uniform (avg↑) -->
     <g transform="translate(91.11 145.505312) scale(0.1 -0.1)">
      <use xlink:href="#DejaVuSans-75"/>
      <use xlink:href="#DejaVuSans-6e" transform="translate(63.378906 0)"/>
      <use xlink:href="#DejaVuSans-69" transform="translate(126.757812 0)"/>
      <use xlink:href="#DejaVuSans-66" transform="translate(154.541016 0)"/>
      <use xlink:href="#DejaVuSans-6f" transform="translate(189.746094 0)"/>
      <use xlink:href="#DejaVuSans-72" transform="translate(250.927734 0)"/>
      <use xlink:href="#DejaVuSans-6d" transform="translate(290.291016 0)"/>
      <use xlink:href="#DejaVuSans-20" transform="translate(387.703125 0)"/>
      <use xlink:href="#DejaVuSans-28" transform="translate(419.490234 0)"/>
      <use xlink:href="#DejaVuSans-61" transform="translate(458.503906 0)"/>
      <use xlink:href="#DejaVuSans-76" transform="translate(519.783203 0)"/>
      <use xlink:href="#DejaVuSans-67" transform="translate(578.962891 0)"/>
      <use xlink:href="#DejaVuSans-2191" transform="translate(642.439453 0)"/>
      <use xlink:href="#DejaVuSans-29" transform="translate(726.228516 0)"/>
     </g>
    </g>
   </g>
  </g>
 </g>
 <defs>
  <clipPath id="p5e84cd7819">
   <rect x="54.11" y="26.16" width="799.09" height="507.88"/>
  </clipPath>
 </defs>
</svg>
